<?xml version="1.0" standalone="no"?>
<!DOCTYPE svg PUBLIC "-//W3C//DTD SVG 1.1//EN" "http://www.w3.org/Graphics/SVG/1.1/DTD/svg11.dtd" >
<svg xmlns="http://www.w3.org/2000/svg" xmlns:xlink="http://www.w3.org/1999/xlink" version="1.1">
<metadata>
Created by FontForge 20190801 at Tue Oct  9 09:22:50 2001
 By www-data
Copyright (c) 2000, 2001 Adobe Systems Incorporated. All Rights Reserved. U.S. Patent Des. 318,290 and 327,903.
</metadata>
<defs>
<font id="AdobeGaramondProRegular" horiz-adv-x="360" >
  <font-face 
    font-family="AdobeGaramondProRegular"
    font-weight="400"
    font-stretch="normal"
    units-per-em="1000"
    panose-1="2 2 5 2 6 5 6 2 4 3"
    ascent="725"
    descent="-275"
    x-height="397"
    cap-height="663"
    bbox="-183 -354 1354.78 917"
    underline-thickness="50"
    underline-position="-100"
    unicode-range="U+0020-FB04"
  />
<missing-glyph horiz-adv-x="500" 
d="M0 0v700h500v-700h-500zM250 395l170 255h-340zM280 350l170 -255v510zM80 50h340l-170 255zM50 605v-510l170 255z" />
    <glyph glyph-name="T_h" unicode="Th" horiz-adv-x="1065" 
d="M296 150v447q0 23 -4 27.5t-26 4.5h-65q-96 0 -123 -25q-25 -22 -45 -69q-6 -4 -14.5 -1.5t-11.5 8.5q23 66 38 149q2 2 9.5 2t9.5 -2q2 -12 8 -18.5t20.5 -9t23.5 -3t33 -0.5h415q69 0 74 14v14l67 27q7 0 10 -6q-3 -90 -3 -124v-210q0 -16 4 -19q67 52 135 52
q67 0 98 -36t31 -93v-167q0 -56 6 -70t32 -17l27 -3q5 -4 4 -13.5t-6 -11.5q-54 3 -100 3q-53 0 -93 -3q-5 2 -6 11.5t4 13.5l20 3q27 4 32.5 17.5t5.5 69.5v143q0 50 -24 78.5t-71 28.5q-46 0 -78 -27q-14 -12 -17.5 -20.5t-3.5 -34.5v-168q0 -55 6 -69t32 -18l21 -3
q5 -3 4 -13t-6 -12q-45 3 -94 3q-50 0 -98 -3q-5 2 -6 11.5t4 13.5l25 3q27 3 32.5 17t5.5 70v447q0 46 -25 58t-115 12h-91q-22 0 -25.5 -4.5t-3.5 -29.5v-445q0 -81 9 -101t51 -24l32 -3q4 -3 3.5 -13t-5.5 -12q-86 3 -131 3q-43 0 -139 -3q-5 2 -5.5 11.5t5.5 13.5l36 3
q42 4 52 24.5t10 100.5z" />
    <glyph glyph-name="T_h.caron" unicode="&#x164;h" horiz-adv-x="1065" 
d="M296 150v447q0 23 -4 27.5t-26 4.5h-65q-96 0 -123 -25q-25 -22 -45 -69q-6 -4 -14.5 -1.5t-11.5 8.5q23 66 38 149q2 2 9.5 2t9.5 -2q2 -12 8 -18.5t20.5 -9t23.5 -3t33 -0.5h415q69 0 74 14v14l67 27q7 0 10 -6q-3 -90 -3 -124v-210q0 -16 4 -19q67 52 135 52
q67 0 98 -36t31 -93v-167q0 -56 6 -70t32 -17l27 -3q5 -4 4 -13.5t-6 -11.5q-54 3 -100 3q-53 0 -93 -3q-5 2 -6 11.5t4 13.5l20 3q27 4 32.5 17.5t5.5 69.5v143q0 50 -24 78.5t-71 28.5q-46 0 -78 -27q-14 -12 -17.5 -20.5t-3.5 -34.5v-168q0 -55 6 -69t32 -18l21 -3
q5 -3 4 -13t-6 -12q-45 3 -94 3q-50 0 -98 -3q-5 2 -6 11.5t4 13.5l25 3q27 3 32.5 17t5.5 70v447q0 46 -25 58t-115 12h-91q-22 0 -25.5 -4.5t-3.5 -29.5v-445q0 -81 9 -101t51 -24l32 -3q4 -3 3.5 -13t-5.5 -12q-86 3 -131 3q-43 0 -139 -3q-5 2 -5.5 11.5t5.5 13.5l36 3
q42 4 52 24.5t10 100.5zM312 713l-123 113q0 7 4 13.5t10 6.5l114 -57q10 -6 15 -5.5t17 5.5l116 57q11 -2 11 -20l-122 -113q-20 -19 -42 0z" />
    <glyph glyph-name="T_h.commaaccent" unicode="&#x162;h" horiz-adv-x="1065" 
d="M296 150v447q0 23 -4 27.5t-26 4.5h-65q-96 0 -123 -25q-25 -22 -45 -69q-6 -4 -14.5 -1.5t-11.5 8.5q23 66 38 149q2 2 9.5 2t9.5 -2q2 -12 8 -18.5t20.5 -9t23.5 -3t33 -0.5h415q69 0 74 14v14l67 27q7 0 10 -6q-3 -90 -3 -124v-210q0 -16 4 -19q67 52 135 52
q67 0 98 -36t31 -93v-167q0 -56 6 -70t32 -17l27 -3q5 -4 4 -13.5t-6 -11.5q-54 3 -100 3q-53 0 -93 -3q-5 2 -6 11.5t4 13.5l20 3q27 4 32.5 17.5t5.5 69.5v143q0 50 -24 78.5t-71 28.5q-46 0 -78 -27q-14 -12 -17.5 -20.5t-3.5 -34.5v-168q0 -55 6 -69t32 -18l21 -3
q5 -3 4 -13t-6 -12q-45 3 -94 3q-50 0 -98 -3q-5 2 -6 11.5t4 13.5l25 3q27 3 32.5 17t5.5 70v447q0 46 -25 58t-115 12h-91q-22 0 -25.5 -4.5t-3.5 -29.5v-445q0 -81 9 -101t51 -24l32 -3q4 -3 3.5 -13t-5.5 -12q-86 3 -131 3q-43 0 -139 -3q-5 2 -5.5 11.5t5.5 13.5l36 3
q42 4 52 24.5t10 100.5zM318 -58q25 0 46 -22t21 -61q0 -94 -110 -128q-6 3 -7 15.5t2 15.5q23 8 43 26t20 44q0 9 -3.5 16.5t-9.5 12.5t-11 8.5t-11 6.5l-7 3q-15 8 -15 25q0 15 11.5 26.5t30.5 11.5z" />
    <glyph glyph-name="f_f_j" unicode="ffj" horiz-adv-x="782" 
d="M95 112v211q0 21 -2.5 25t-17.5 4h-35q-11 7 -3 19l43 21q15 8 15 20q0 83 34 155q25 52 71 88t113 36q42 0 72.5 -14t42.5 -31q22 28 65 48.5t95 20.5q51 0 87.5 -23t36.5 -55q0 -20 -13.5 -30.5t-27.5 -10.5q-17 0 -26 15q-20 34 -46 50t-48 16q-114 0 -114 -241v-11
q0 -19 3.5 -25t15.5 -6h112q91 0 131 15q7 0 10 -5q-4 -72 -4 -125v-229q0 -105 -21 -156q-38 -92 -152 -163q-9 1 -13 8t-1 15q35 17 59 45q54 63 54 236v251q0 45 -8.5 55.5t-41.5 10.5h-125q-12 0 -15.5 -6t-3.5 -25v-209q0 -56 6 -70.5t32 -16.5l32 -3q5 -4 4 -13.5
t-6 -11.5q-61 3 -105 3q-51 0 -96 -3q-5 2 -6 11.5t4 13.5l23 3q27 4 32.5 17.5t5.5 69.5v211q0 21 -2.5 25t-17.5 4h-157q-12 0 -14.5 -4t-2.5 -25v-211q0 -56 6 -70.5t32 -16.5l36 -3q5 -4 4 -13.5t-6 -11.5q-67 3 -109 3q-51 0 -96 -3q-5 2 -6 11.5t4 13.5l23 3
q27 4 32.5 17.5t5.5 69.5zM198 394h150q6 0 10.5 5.5t4.5 12.5q0 90 26 172q-8 27 -35.5 49.5t-64.5 22.5q-26 0 -46.5 -9.5t-33 -27t-21 -38t-12.5 -49t-5.5 -52t-1.5 -53.5v-5q0 -20 3.5 -24t25.5 -4z" />
    <glyph glyph-name="f_j" unicode="fj" horiz-adv-x="514" 
d="M95 112v211q0 21 -2.5 25t-17.5 4h-35q-11 7 -3 19l43 21q15 8 15 20q0 97 31 168q21 50 70 92.5t124 42.5q51 0 87.5 -23t36.5 -55q0 -20 -13.5 -30.5t-27.5 -10.5q-17 0 -26 15q-20 34 -46 50t-48 16q-114 0 -114 -241v-11q0 -19 3.5 -25t15.5 -6h112q91 0 131 15
q7 0 10 -5q-4 -72 -4 -125v-229q0 -105 -21 -156q-38 -92 -152 -163q-9 1 -13 8t-1 15q35 17 59 45q54 63 54 236v251q0 45 -8.5 55.5t-41.5 10.5h-125q-12 0 -15.5 -6t-3.5 -25v-209q0 -56 6 -70.5t32 -16.5l32 -3q5 -4 4 -13.5t-6 -11.5q-61 3 -105 3q-51 0 -96 -3
q-5 2 -6 11.5t4 13.5l23 3q27 4 32.5 17.5t5.5 69.5z" />
    <glyph glyph-name="ff" unicode="ff" horiz-adv-x="558" 
d="M95 112v211q0 21 -2.5 25t-17.5 4h-35q-11 7 -3 19l43 21q15 8 15 20q0 83 34 155q25 52 71 88t113 36q74 0 113 -44q20 26 61.5 47t87.5 21q40 0 67.5 -17t27.5 -43q0 -15 -11 -25.5t-25 -10.5q-12 0 -24 13q-38 44 -78 44q-50 0 -72 -54q-23 -58 -23 -171v-29
q0 -20 2 -24t15 -4h114q8 -8 5 -23.5t-12 -18.5h-107q-12 0 -14.5 -4t-2.5 -25v-211q0 -56 6 -70.5t32 -16.5l32 -3q5 -4 4 -13.5t-6 -11.5q-61 3 -105 3q-51 0 -96 -3q-5 2 -6 11.5t4 13.5l23 3q27 4 32.5 17.5t5.5 69.5v211q0 21 -2.5 25t-17.5 4h-157q-12 0 -14.5 -4
t-2.5 -25v-211q0 -56 6 -70.5t32 -16.5l36 -3q5 -4 4 -13.5t-6 -11.5q-67 3 -109 3q-51 0 -96 -3q-5 2 -6 11.5t4 13.5l23 3q27 4 32.5 17.5t5.5 69.5zM198 394h150q6 0 10.5 5.5t4.5 12.5q0 88 25 173q-8 26 -35 48.5t-64 22.5q-26 0 -46.5 -9.5t-33 -27t-21 -38t-12.5 -49
t-5.5 -52t-1.5 -53.5v-5q0 -20 3.5 -24t25.5 -4z" />
    <glyph glyph-name="fi" unicode="fi" horiz-adv-x="522" 
d="M95 112v211q0 21 -2.5 25t-17.5 4h-35q-11 7 -3 19l43 21q15 8 15 20q0 97 31 168q21 50 70 92.5t124 42.5q51 0 87.5 -23t36.5 -55q0 -20 -13.5 -30.5t-27.5 -10.5q-17 0 -26 15q-20 34 -46 50t-48 16q-114 0 -114 -241v-11q0 -19 3.5 -25t15.5 -6h112q91 0 131 15
q7 0 10 -5q-4 -72 -4 -125v-167q0 -55 6 -69t32 -18l21 -3q5 -4 4 -13.5t-6 -11.5q-45 3 -94 3q-52 0 -94 -3q-5 2 -6 11.5t4 13.5l21 3q27 4 32.5 17.5t5.5 69.5v174q0 45 -8.5 55.5t-41.5 10.5h-125q-12 0 -15.5 -6t-3.5 -25v-209q0 -56 6 -70.5t32 -16.5l32 -3
q5 -4 4 -13.5t-6 -11.5q-61 3 -105 3q-51 0 -96 -3q-5 2 -6 11.5t4 13.5l23 3q27 4 32.5 17.5t5.5 69.5z" />
    <glyph glyph-name="fl" unicode="fl" horiz-adv-x="522" 
d="M344 352h-156q-14 0 -16.5 -4t-2.5 -27v-209q0 -56 6 -70.5t32 -16.5l31 -3q5 -4 4 -13.5t-6 -11.5q-60 3 -104 3q-51 0 -96 -3q-5 2 -6 11.5t4 13.5l23 3q27 4 32.5 17.5t5.5 69.5v211q0 21 -2.5 25t-17.5 4h-35q-11 7 -3 19l43 21q15 8 15 20q0 108 27 174q21 51 68 90
t119 39q51 0 93 -26l26 26q8 0 12 -4q-3 -66 -3 -149v-450q0 -55 6 -69t32 -18l24 -3q5 -4 4 -13.5t-6 -11.5q-49 3 -97 3q-51 0 -96 -3q-5 2 -6 11.5t4 13.5l23 3q27 4 32.5 17.5t5.5 69.5v220q0 13 -3 16.5t-16 3.5zM363 414v161q0 53 -17 76q-25 32 -61 32
q-39 0 -64.5 -23.5t-35.5 -65.5t-13 -73.5t-3 -74.5v-31q0 -15 3 -18t16 -3h156q12 0 15.5 3.5t3.5 16.5z" />
    <glyph glyph-name="ffi" unicode="ffi" horiz-adv-x="790" 
d="M95 112v211q0 21 -2.5 25t-17.5 4h-35q-11 7 -3 19l43 21q15 8 15 20q0 83 34 155q25 52 71 88t113 36q42 0 72.5 -14t42.5 -31q22 28 65 48.5t95 20.5q51 0 87.5 -23t36.5 -55q0 -20 -13.5 -30.5t-27.5 -10.5q-17 0 -26 15q-20 34 -46 50t-48 16q-114 0 -114 -241v-11
q0 -19 3.5 -25t15.5 -6h112q91 0 131 15q7 0 10 -5q-4 -72 -4 -125v-167q0 -55 6 -69t32 -18l21 -3q5 -4 4 -13.5t-6 -11.5q-45 3 -94 3q-52 0 -94 -3q-5 2 -6 11.5t4 13.5l21 3q27 4 32.5 17.5t5.5 69.5v174q0 45 -8.5 55.5t-41.5 10.5h-125q-12 0 -15.5 -6t-3.5 -25v-209
q0 -56 6 -70.5t32 -16.5l32 -3q5 -4 4 -13.5t-6 -11.5q-61 3 -105 3q-51 0 -96 -3q-5 2 -6 11.5t4 13.5l23 3q27 4 32.5 17.5t5.5 69.5v211q0 21 -2.5 25t-17.5 4h-157q-12 0 -14.5 -4t-2.5 -25v-211q0 -56 6 -70.5t32 -16.5l36 -3q5 -4 4 -13.5t-6 -11.5q-67 3 -109 3
q-51 0 -96 -3q-5 2 -6 11.5t4 13.5l23 3q27 4 32.5 17.5t5.5 69.5zM198 394h150q6 0 10.5 5.5t4.5 12.5q0 90 26 172q-8 27 -35.5 49.5t-64.5 22.5q-26 0 -46.5 -9.5t-33 -27t-21 -38t-12.5 -49t-5.5 -52t-1.5 -53.5v-5q0 -20 3.5 -24t25.5 -4z" />
    <glyph glyph-name="ffl" unicode="ffl" horiz-adv-x="789" 
d="M95 112v211q0 21 -2.5 25t-17.5 4h-35q-11 7 -3 19l43 21q15 8 15 20q0 83 34 155q25 52 71 88t113 36q74 0 113 -44q20 26 60.5 47t86.5 21q55 0 97 -26l26 26q8 0 12 -4q-3 -66 -3 -149v-450q0 -55 6 -69t32 -18l23 -3q5 -4 4 -13.5t-6 -11.5q-48 3 -96 3q-52 0 -94 -3
q-5 2 -6 11.5t4 13.5l21 3q27 4 32.5 17.5t5.5 69.5v220q0 13 -3 16.5t-16 3.5h-156q-14 0 -16.5 -4t-2.5 -27v-209q0 -56 6 -70.5t32 -16.5l32 -3q5 -4 4 -13.5t-6 -11.5q-61 3 -105 3q-51 0 -96 -3q-5 2 -6 11.5t4 13.5l23 3q27 4 32.5 17.5t5.5 69.5v211q0 21 -2.5 25
t-17.5 4h-157q-12 0 -14.5 -4t-2.5 -25v-211q0 -56 6 -70.5t32 -16.5l36 -3q5 -4 4 -13.5t-6 -11.5q-67 3 -109 3q-51 0 -96 -3q-5 2 -6 11.5t4 13.5l23 3q27 4 32.5 17.5t5.5 69.5zM198 394h150q6 0 10.5 5.5t4.5 12.5q0 88 25 173q-8 26 -35 48.5t-64 22.5
q-26 0 -46.5 -9.5t-33 -27t-21 -38t-12.5 -49t-5.5 -52t-1.5 -53.5v-5q0 -20 3.5 -24t25.5 -4zM631 414v161q0 53 -17 76q-24 32 -61 32q-39 0 -64.5 -23.5t-35.5 -65.5t-13 -73.5t-3 -74.5v-31q0 -15 3 -18t16 -3h156q12 0 15.5 3.5t3.5 16.5z" />
    <glyph glyph-name=".notdef" horiz-adv-x="500" 
d="M0 0v700h500v-700h-500zM250 395l170 255h-340zM280 350l170 -255v510zM80 50h340l-170 255zM50 605v-510l170 255z" />
    <glyph glyph-name=".null" horiz-adv-x="0" 
 />
    <glyph glyph-name="nonmarkingreturn" horiz-adv-x="333" 
 />
    <glyph glyph-name="space" unicode=" " horiz-adv-x="250" 
 />
    <glyph glyph-name="space" unicode="&#xa0;" horiz-adv-x="250" 
 />
    <glyph glyph-name="exclam" unicode="!" horiz-adv-x="220" 
d="M110 -14q-23 0 -39.5 15t-16.5 40t16 42t40 17q25 0 40.5 -17t15.5 -42q0 -24 -15.5 -39.5t-40.5 -15.5zM110 646q26 0 37.5 -5.5t11.5 -23.5q0 -15 -7 -89l-29 -323q-5 -5 -13.5 -5t-12.5 5l-29 323q-7 74 -7 89q0 18 11.5 23.5t37.5 5.5z" />
    <glyph glyph-name="quotedbl" unicode="&#x22;" horiz-adv-x="404" 
d="M122 700q24 0 33.5 -4.5t9.5 -19.5q0 -4 -5 -39l-26 -161q-12 -12 -24 0l-26 161q-5 35 -5 39q0 15 9.5 19.5t33.5 4.5zM282 700q24 0 33.5 -4.5t9.5 -19.5q0 -4 -5 -39l-26 -161q-12 -12 -24 0l-26 161q-5 35 -5 39q0 15 9.5 19.5t33.5 4.5z" />
    <glyph glyph-name="numbersign" unicode="#" horiz-adv-x="500" 
d="M334 403h-117l-44 -162h118zM478 403h-102l-44 -162h99l-15 -50h-98l-51 -188h-39l50 188h-119l-51 -188h-38l50 188h-111l15 50h109l43 162h-112l16 50h109l45 171h43l-46 -171h116l45 171h44l-46 -171h101z" />
    <glyph glyph-name="dollar" unicode="$" horiz-adv-x="500" 
d="M251 383l27 228q-68 -1 -94 -33t-26 -75q0 -69 93 -120zM272 285l-31 -254q56 -1 93 25.5t37 82.5q0 42 -19.5 78t-79.5 68zM325 717l-10 -78q38 -1 100 -15q19 -47 21 -113q-2 -5 -9.5 -6t-12.5 3q-9 23 -16.5 37t-30.5 35t-55 28l-30 -242l42 -22q120 -63 120 -171
q0 -76 -56 -124.5t-151 -48.5l-11 -94q-6 -4 -17 -4t-16 4l12 96q-76 5 -122 32q-28 33 -28 131q3 5 9.5 6.5t12.5 -3.5q34 -113 131 -134l33 267l-38 19q-48 24 -80 66t-32 94q0 68 51 113t140 47l9 77q4 5 17 5t17 -5z" />
    <glyph glyph-name="percent" unicode="%" horiz-adv-x="844" 
d="M799 180q0 -43 -15 -85.5t-51.5 -75.5t-86.5 -33t-86.5 33t-51.5 75.5t-15 85.5q0 44 15 86.5t51 75t87 32.5t87 -32.5t51 -75t15 -86.5zM727 180q0 25 -2.5 49t-10 53t-25 46.5t-42.5 17.5t-42.5 -17.5t-25.5 -46t-11 -53t-3 -49.5t3 -49.5t11 -53t25.5 -46t42.5 -17.5
t42.5 17.5t25 46.5t10 53t2.5 49zM351 446q0 -43 -15 -85.5t-51.5 -75.5t-86.5 -33t-86.5 33t-51.5 75.5t-15 85.5q0 44 15 86.5t51 75t87 32.5t87 -32.5t51 -75t15 -86.5zM279 446q0 25 -2.5 49t-10 53t-25 46.5t-42.5 17.5t-42.5 -17.5t-25.5 -46t-11 -53t-3 -49.5
t3 -49.5t11 -53t25.5 -46t42.5 -17.5t42.5 17.5t25 46.5t10 53t2.5 49zM636 635l-407 -675q-12 0 -21 6t-9 16l404 670q19 2 33 -17z" />
    <glyph glyph-name="ampersand" unicode="&#x26;" horiz-adv-x="818" 
d="M575 478h82q87 0 141 4q5 -4 5.5 -12t-3.5 -12l-44 -7q-26 -4 -49 -23.5t-33.5 -34.5t-32.5 -51q-30 -49 -116 -167q6 -9 33 -50q36 -54 71 -72t74 -18q55 0 90 36q6 -1 9.5 -6t1.5 -12q-54 -67 -159 -67q-75 0 -107 29q-16 13 -61 92q-108 -121 -218 -121
q-97 0 -146.5 55.5t-49.5 124.5q0 72 42 122t120 96q-77 53 -77 121q0 58 42 96.5t98 38.5q57 0 93 -33.5t36 -85.5q0 -23 -7 -41t-26.5 -34t-29 -22.5t-38.5 -22.5q99 -61 191 -196q19 26 51.5 80t52.5 95q22 44 22 55q0 12 -26 15l-34 4q-5 4 -4.5 12t6.5 12zM251 363
q-44 -22 -78.5 -66.5t-34.5 -100.5q0 -67 41.5 -109t107.5 -42q94 0 172 92q-37 64 -93 125.5t-115 100.5zM284 611q-32 0 -52 -25t-20 -57q0 -62 82 -109q60 41 60 104q0 36 -18 61.5t-52 25.5z" />
    <glyph glyph-name="quotesingle" unicode="'" horiz-adv-x="235" 
d="M118 700q24 0 33.5 -4.5t9.5 -19.5q0 -4 -5 -39l-26 -161q-12 -12 -24 0l-26 161q-5 35 -5 39q0 15 9.5 19.5t33.5 4.5z" />
    <glyph glyph-name="parenleft" unicode="(" horiz-adv-x="320" 
d="M146 270q0 -256 154 -418q0 -14 -14 -15q-93 62 -149.5 178t-56.5 255t56.5 255t149.5 178q14 -1 14 -15q-154 -162 -154 -418z" />
    <glyph glyph-name="parenright" unicode=")" horiz-adv-x="320" 
d="M174 270q0 256 -154 418q0 14 14 15q93 -62 149.5 -178t56.5 -255t-56.5 -255t-149.5 -178q-14 1 -14 15q154 162 154 418z" />
    <glyph glyph-name="asterisk" unicode="*" horiz-adv-x="394" 
d="M210 676l10 -130l125 63q7 -1 10.5 -7.5t1.5 -13.5l-115 -80l114 -79q2 -7 -1.5 -14t-10.5 -8l-124 65l-10 -130q-12 -10 -24 0l-11 130l-124 -65q-7 1 -10.5 8t-1.5 14l114 79l-115 80q-2 7 1.5 13.5t10.5 7.5l125 -63l11 130q11 9 24 0z" />
    <glyph glyph-name="plus" unicode="+" horiz-adv-x="500" 
d="M280 0h-59v181h-163v49h163v164h59v-164h163v-49h-163v-181z" />
    <glyph glyph-name="comma" unicode="," horiz-adv-x="250" 
d="M113 122q30 0 54.5 -26t24.5 -72q0 -56 -36 -92t-94 -53q-7 2 -9 11t3 13q82 26 82 87q0 12 -5 21.5t-13 15.5t-15 10t-15 7t-9 4q-17 9 -17 29q0 18 13 31.5t36 13.5z" />
    <glyph glyph-name="hyphen" unicode="-" horiz-adv-x="320" 
d="M40 225l233 22q15 -10 15 -32q0 -15 -8 -25l-233 -22q-15 12 -15 32q0 15 8 25z" />
    <glyph glyph-name="hyphen" unicode="&#xad;" horiz-adv-x="320" 
d="M40 225l233 22q15 -10 15 -32q0 -15 -8 -25l-233 -22q-15 12 -15 32q0 15 8 25z" />
    <glyph glyph-name="period" unicode="." horiz-adv-x="250" 
d="M125 -14q-23 0 -39.5 15t-16.5 40t16 42t40 17q25 0 40.5 -17t15.5 -42q0 -24 -15.5 -39.5t-40.5 -15.5z" />
    <glyph glyph-name="slash" unicode="/" horiz-adv-x="327" 
d="M297 686l-209 -702h-58l209 702h58z" />
    <glyph glyph-name="zero" unicode="0" horiz-adv-x="500" 
d="M250 640q69 0 117.5 -51.5t69 -123t20.5 -152.5q0 -61 -12 -117.5t-36 -104.5t-65 -76.5t-94 -28.5t-94 28.5t-65 76.5t-36 104.5t-12 117.5q0 81 20.5 152.5t69 123t117.5 51.5zM250 610q-118 0 -118 -297t118 -297t118 297t-118 297z" />
    <glyph glyph-name="one" unicode="1" horiz-adv-x="500" 
d="M220 122v340q0 55 -8 73t-40 21l-48 4q-6 3 -6.5 11t5.5 11q105 19 165 58q7 0 10 -5q-4 -36 -4 -125v-388q0 -61 6.5 -78t36.5 -19l42 -3q5 -4 4 -13.5t-6 -11.5q-59 3 -119 3q-62 0 -120 -3q-5 2 -6 11.5t4 13.5l41 3q30 2 36.5 19t6.5 78z" />
    <glyph glyph-name="two" unicode="2" horiz-adv-x="500" 
d="M192 62h124q69 0 94 22q19 17 32 41q14 6 22 -6q-24 -93 -46 -122q-62 3 -129 3h-145q-78 0 -111 -3q-7 3 -7 13q0 4 11 11q33 21 63 50t90 94q143 154 143 275q0 69 -32.5 107.5t-92.5 38.5q-84 0 -130 -100q-7 -4 -15.5 0t-8.5 13q24 65 78.5 103t122.5 38
q75 0 120 -45t45 -118q0 -97 -107 -220l-61 -70q-91 -104 -91 -116q0 -9 31 -9z" />
    <glyph glyph-name="three" unicode="3" horiz-adv-x="500" 
d="M140 -56q-40 0 -69.5 15t-29.5 47q0 16 11 27.5t28 11.5q23 0 48 -36q21 -30 53 -30q55 0 117 59.5t62 136.5q0 70 -33.5 116.5t-95.5 46.5q-63 0 -108 -49q-13 2 -19.5 11.5t-2.5 23.5q119 53 160 87q53 43 53 96q0 39 -23.5 62.5t-58.5 23.5q-82 0 -135 -88
q-8 -2 -14.5 2.5t-6.5 11.5q23 53 73.5 87t107.5 34q62 0 100.5 -31t38.5 -84q0 -35 -22 -65t-85 -63q-7 -13 12 -15q61 -5 103 -45.5t42 -108.5q0 -114 -97 -198q-51 -44 -108 -65t-101 -21z" />
    <glyph glyph-name="four" unicode="4" horiz-adv-x="500" 
d="M273 189h-239q-14 0 -14 17q0 12 18 38l321 448q11 14 23 14h17q15 0 15 -8q0 -4 -5 -11l-318 -440q-5 -12 0 -14t28 -2h155q18 0 23 4.5t5 21.5v184q0 14 9 20q23 15 51 17q10 1 12 -6t2 -25v-193q0 -14 3.5 -18.5t16.5 -4.5h64q7 -5 7 -20t-7 -22h-54q-20 0 -25 -3.5
t-5 -18.5v-45q0 -61 6.5 -77t36.5 -20l26 -3q5 -4 4 -13.5t-6 -11.5q-54 3 -104 3q-59 0 -125 -3q-5 2 -6 11.5t4 13.5l45 3q30 2 37.5 19.5t7.5 77.5v42q0 18 -4.5 21.5t-24.5 3.5z" />
    <glyph glyph-name="five" unicode="5" horiz-adv-x="500" 
d="M78 415l53 178q8 25 26 27l241 34q4 1 6.5 -2t2.5 -7q-11 -36 -36 -62l-189 -27q-17 -2 -23 -7t-11 -20l-18 -60q-6 -17 14 -18l21 -2q51 -5 95 -18.5t84 -38t63 -66.5t23 -96q0 -82 -57 -151.5t-138 -106.5t-163 -40q-8 3 -9 14.5t6 16.5q120 7 203.5 74t83.5 167
q0 51 -24.5 87.5t-66.5 55.5t-85.5 27.5t-92.5 9.5q-11 0 -13 7t4 24z" />
    <glyph glyph-name="six" unicode="6" horiz-adv-x="500" 
d="M40 236q0 76 31 159t103 154q123 120 287 142q5 -2 6.5 -9.5t-2.5 -11.5q-46 -16 -72.5 -26.5t-71.5 -38t-78 -63.5q-114 -121 -114 -303q0 -95 34.5 -159t104.5 -64q54 0 83.5 43t29.5 110q0 70 -31.5 118.5t-91.5 48.5q-19 0 -46 -8q-10 5 -3 16q48 30 98 30
q71 0 115 -50.5t44 -128.5q0 -89 -59 -149t-152 -60q-105 0 -160 71t-55 179z" />
    <glyph glyph-name="seven" unicode="7" horiz-adv-x="500" 
d="M357 564h-200q-46 0 -66.5 -8.5t-40.5 -42.5q-15 -6 -21 8q23 63 34 108q24 -3 106 -3h169q122 0 134 3q7 -2 7 -9q-40 -61 -94 -171l-255 -513q-12 -2 -22 3.5t-12 15.5l283 572q11 23 6.5 30t-28.5 7z" />
    <glyph glyph-name="eight" unicode="8" horiz-adv-x="500" 
d="M263 640q71 0 118.5 -38.5t47.5 -107.5q0 -13 -2 -25.5t-7.5 -23.5t-9.5 -19.5t-14 -18.5t-14.5 -15t-18 -14.5t-17 -12t-18.5 -12.5t-17 -11q61 -35 96.5 -78t35.5 -108q0 -78 -55.5 -124t-144.5 -46q-76 0 -130.5 41t-54.5 126q0 50 36 89t99 79q-113 62 -114 157
q-1 74 52 118t132 44zM253 16q53 0 84.5 33t31.5 88q0 100 -148 167q-91 -62 -91 -142q0 -64 34 -105t89 -41zM256 610q-49 0 -77 -32.5t-28 -78.5q0 -47 36 -80t95 -62q80 57 80 135q0 48 -30 83t-76 35z" />
    <glyph glyph-name="nine" unicode="9" horiz-adv-x="500" 
d="M239 610q-50 0 -81 -36.5t-31 -101.5t31 -116.5t84 -51.5q28 0 44 4q7 -4 3 -12q-34 -29 -90 -29q-63 0 -107.5 46.5t-44.5 122.5q0 89 59 146.5t146 57.5q92 0 145.5 -71t53.5 -184q0 -87 -37 -176t-110 -154q-51 -46 -116 -75.5t-122 -39.5q-6 2 -8 10.5t2 12.5
q89 27 148 70q74 55 114 140.5t40 219.5q0 38 -6 73t-19 69t-38.5 54.5t-59.5 20.5z" />
    <glyph glyph-name="colon" unicode=":" horiz-adv-x="250" 
d="M125 280q-23 0 -39.5 15t-16.5 40t16 42t40 17q25 0 40.5 -17t15.5 -42q0 -24 -15.5 -39.5t-40.5 -15.5zM125 -14q-23 0 -39.5 15t-16.5 40t16 42t40 17q25 0 40.5 -17t15.5 -42q0 -24 -15.5 -39.5t-40.5 -15.5z" />
    <glyph glyph-name="semicolon" unicode=";" horiz-adv-x="250" 
d="M113 122q30 0 54.5 -26t24.5 -72q0 -56 -36 -92t-94 -53q-7 2 -9 11t3 13q82 26 82 87q0 12 -5 21.5t-13 15.5t-15 10t-15 7t-9 4q-17 9 -17 29q0 18 13 31.5t36 13.5zM125 280q-23 0 -39.5 15t-16.5 40t16 42t40 17q25 0 40.5 -17t15.5 -42q0 -24 -15.5 -39.5
t-40.5 -15.5z" />
    <glyph glyph-name="less" unicode="&#x3c;" horiz-adv-x="500" 
d="M56 228l389 185v-58l-317 -148v-2l317 -149v-57l-389 184v45z" />
    <glyph glyph-name="equal" unicode="=" horiz-adv-x="500" 
d="M443 305v-49h-385v49h385zM443 155v-49h-385v49h385z" />
    <glyph glyph-name="greater" unicode="&#x3e;" horiz-adv-x="500" 
d="M55 413l389 -185v-45l-389 -184v57l317 149v2l-317 148v58z" />
    <glyph glyph-name="question" unicode="?" horiz-adv-x="321" 
d="M104 646q62 0 117 -63t55 -141q0 -37 -12 -59.5t-26 -30.5l-79 -42q-35 -18 -35 -44q0 -18 10 -58q-3 -6 -10 -7.5t-11 2.5q-36 59 -36 99q0 28 13 42.5t41 29.5l49 26q55 29 55 73q0 39 -22 61q-32 32 -116 32q-9 0 -21 12.5t-12 29.5q0 16 10.5 27t29.5 11zM126 -14
q-23 0 -39.5 15t-16.5 40t16 42t40 17q25 0 40.5 -17t15.5 -42q0 -24 -15.5 -39.5t-40.5 -15.5z" />
    <glyph glyph-name="at" unicode="@" horiz-adv-x="765" 
d="M452 325q-26 0 -63 -30q-41 -33 -73 -96t-32 -105q0 -13 12 -13q22 0 80 52q34 30 71.5 83t47.5 80q-10 29 -43 29zM518 338l25 51q11 4 26 0t22 -12q-99 -227 -117 -277q-7 -17 -1.5 -25t24.5 -7q83 3 139 58t56 146q0 104 -74 167t-187 63q-143 0 -230 -102t-87 -246
q0 -48 15 -93.5t47.5 -87.5t93 -68t142.5 -26q72 0 155 35q13 -6 8 -19q-81 -51 -193 -51q-64 0 -122.5 19t-107.5 56t-78 97.5t-29 136.5q0 170 117 276.5t278 106.5q137 0 216 -76.5t79 -183.5q0 -100 -71 -170.5t-188 -70.5q-72 0 -72 22q0 10 8 31l25 63l-2 1
q-45 -47 -101.5 -82t-87.5 -35q-20 0 -30.5 13t-10.5 32q0 20 18.5 63.5t57.5 90.5q103 126 200 126q11 0 22 -6t15 -16z" />
    <glyph glyph-name="A" unicode="A" horiz-adv-x="623" 
d="M451 96l-44 136q-5 17 -12 21t-29 4h-151q-19 0 -26 -4t-12 -20l-35 -105q-22 -66 -22 -83q0 -18 29 -20l33 -3q5 -4 5 -13t-7 -12q-14 1 -104 3q-15 0 -96 -3q-5 3 -5.5 12t3.5 13l33 3q42 4 60 49q5 14 20 49.5t32 79.5t36 94l102 270q20 53 17 71q26 8 52 38
q12 0 15 -9q11 -37 44 -134l137 -402q22 -64 37.5 -83t47.5 -23l27 -3q5 -4 4.5 -13t-4.5 -12q-62 3 -121 3q-28 0 -115 -3q-6 3 -6.5 12t4.5 13l29 3q35 3 35 18q0 14 -13 53zM272 495l-63 -174q-6 -17 -3 -20.5t24 -3.5h123q22 0 25.5 5.5t-3.5 25.5l-54 163
q-17 51 -23 63h-2q-6 -10 -24 -59z" />
    <glyph glyph-name="B" unicode="B" horiz-adv-x="605" 
d="M128 150v380q0 58 -8 76t-41 21l-32 3q-6 5 -5.5 13.5t6.5 11.5q86 8 215 8q113 0 168 -28q76 -37 76 -125q0 -51 -26 -82.5t-76 -54.5q0 -12 19 -15q50 -9 92 -52t42 -115q0 -90 -67.5 -142t-198.5 -52q-13 0 -55 1.5t-65 1.5q-4 0 -115 -3q-5 2 -5.5 11t3.5 14l18 3
q39 7 47 26t8 99zM210 313v-148q0 -85 21 -109q23 -28 79 -28q71 0 114 34.5t43 105.5t-45.5 121t-153.5 50q-39 0 -48.5 -5t-9.5 -21zM210 600v-203q0 -21 7 -25t45 -3q80 3 118.5 31.5t38.5 96.5q0 69 -43 102t-106 33q-33 0 -46 -6q-14 -4 -14 -26z" />
    <glyph glyph-name="C" unicode="C" horiz-adv-x="696" 
d="M44 326q0 81 34 150.5t92 114.5q109 85 270 85q90 0 177 -24q20 -5 28 -4q3 -60 14 -147q-4 -5 -13 -6t-14 4q-32 146 -205 146q-122 0 -202.5 -78t-80.5 -226q0 -152 84.5 -239t212.5 -87q86 0 136.5 43t72.5 100q5 4 14 2.5t12 -6.5q-5 -37 -20.5 -79.5t-27.5 -57.5
q-14 -2 -35 -10q-20 -7 -67.5 -15t-90.5 -8q-149 0 -249 67q-142 98 -142 275z" />
    <glyph glyph-name="D" unicode="D" horiz-adv-x="780" 
d="M128 150v380q0 55 -8.5 74t-38.5 23l-22 3q-6 4 -6 13t7 12q136 8 251 8q139 0 220 -30q99 -36 151 -114.5t52 -180.5q0 -96 -45 -174t-130 -124q-89 -48 -224 -48q-36 0 -92.5 4t-70.5 4q-54 0 -125 -3q-5 2 -5.5 11t3.5 14l23 3q43 6 51.5 25t8.5 100zM210 542v-369
q0 -81 20 -109q29 -41 123 -41q141 0 211 84t70 229q0 37 -7 73.5t-28.5 78t-55 72.5t-91.5 51.5t-133 20.5q-80 0 -99 -14q-10 -8 -10 -76z" />
    <glyph glyph-name="E" unicode="E" horiz-adv-x="584" 
d="M128 150v360q0 81 -9 101t-52 25l-16 2q-4 3 -3.5 13t5.5 12q65 -3 118 -3h188q123 0 135 3q5 -15 16 -133q-3 -5 -12 -5.5t-13 3.5q-7 21 -9 27.5t-9 21.5t-13.5 21t-18 13.5t-26.5 11.5q-25 6 -97 6h-72q-22 0 -26 -5.5t-4 -34.5v-200q0 -20 5 -24t28 -4h58q67 0 85 6
t24 35l8 41q4 5 13.5 4.5t12.5 -5.5q0 -10 -2 -45t-2 -56q0 -20 2 -53.5t2 -42.5q-3 -5 -12.5 -5.5t-13.5 4.5l-9 39q-7 32 -31 38q-18 5 -77 5h-58q-23 0 -28 -4t-5 -23v-141q0 -84 19 -104q23 -23 121 -23t128 15q31 17 71 97q5 4 13.5 2t11.5 -9q-16 -78 -45 -139
q-135 3 -268 3h-90q-47 0 -136 -3q-5 2 -5.5 11t3.5 14l33 3q42 4 52 24.5t10 100.5z" />
    <glyph glyph-name="F" unicode="F" horiz-adv-x="538" 
d="M210 589v-211q0 -20 5 -23.5t28 -3.5h68q67 0 85 6q6 2 10 5t8 10.5t7 19.5l9 40q4 4 13.5 4t12.5 -4q0 -10 -2 -45.5t-2 -55.5t2 -53.5t2 -43.5q-3 -4 -12 -4t-14 4l-10 39q-8 31 -32 38q-18 5 -77 5h-68q-23 0 -28 -4t-5 -23v-139q0 -81 9 -101t52 -24l34 -3
q4 -3 3.5 -13t-5.5 -12q-89 3 -133 3q-55 0 -125 -3q-5 2 -5.5 11t3.5 14l25 3q42 5 51 24.5t9 100.5v360q0 81 -9 101t-51 25l-16 2q-4 3 -3.5 13t5.5 12q63 -3 116 -3h184q122 0 135 3q0 -75 3 -132q-2 -5 -10.5 -6t-13.5 3q-7 40 -21.5 63t-48.5 32q-22 6 -97 6h-61
q-22 0 -26 -5.5t-4 -34.5z" />
    <glyph glyph-name="G" unicode="G" horiz-adv-x="747" 
d="M648 158v-56q0 -62 24 -71q6 -6 -1 -12q-15 0 -49 -9q-98 -26 -179 -26q-195 0 -305 111q-92 92 -92 227q0 141 90 237q112 117 317 117q63 0 127 -15q51 -11 62 -9q0 -45 15 -145q-2 -6 -12.5 -7t-14.5 4q-20 77 -71.5 109.5t-133.5 32.5q-137 0 -208 -83t-71 -205
q0 -151 77.5 -247t222.5 -96q91 0 110 30q10 14 10 57v40q0 63 -9.5 77.5t-55.5 19.5l-44 5q-6 3 -5.5 13t5.5 12q44 -3 143 -3q56 0 106 3q5 -3 5.5 -11.5t-4.5 -13.5l-16 -2q-29 -3 -36 -21t-7 -63z" />
    <glyph glyph-name="H" unicode="H" horiz-adv-x="806" 
d="M546 323h-286q-36 0 -43 -4.5t-7 -27.5v-141q0 -80 9.5 -100.5t51.5 -24.5l29 -3q4 -3 3.5 -13t-5.5 -12q-81 3 -127 3q-19 0 -38.5 -0.5t-42 -1.5t-35.5 -1q-5 2 -5.5 11t3.5 14l17 3q41 7 49.5 26t8.5 99v360q0 79 -10 101t-49 25l-26 2q-4 3 -3.5 13t5.5 12
q15 0 58 -1.5t68 -1.5q52 0 116 3q5 -2 5.5 -12t-3.5 -13l-19 -2q-42 -4 -51 -24.5t-9 -101.5v-115q0 -23 7 -27.5t43 -4.5h286q36 0 43 4.5t7 27.5v115q0 81 -9 101.5t-52 24.5l-19 2q-4 3 -3.5 13t5.5 12q69 -3 121 -3q51 0 118 3q5 -2 5.5 -12t-3.5 -13l-21 -2
q-42 -4 -51 -24.5t-9 -101.5v-360q0 -81 9 -100.5t51 -24.5l24 -3q4 -3 3.5 -13t-5.5 -12q-72 3 -121 3q-55 0 -121 -3q-5 2 -5.5 11t3.5 14l19 3q45 7 53 25.5t8 99.5v141q0 23 -7 27.5t-43 4.5z" />
    <glyph glyph-name="I" unicode="I" horiz-adv-x="338" 
d="M128 152v356q0 83 -9 103.5t-52 24.5l-25 2q-4 3 -3.5 13t5.5 12q75 -3 126 -3q49 0 124 3q5 -2 5.5 -12t-3.5 -13l-25 -2q-43 -4 -52 -24.5t-9 -103.5v-356q0 -82 9 -102t52 -25l25 -3q4 -3 3.5 -13t-5.5 -12q-75 3 -124 3q-51 0 -126 -3q-5 2 -5.5 11t3.5 14l25 3
q43 5 52 25t9 102z" />
    <glyph glyph-name="J" unicode="J" horiz-adv-x="345" 
d="M143 130v378q0 82 -12 103t-57 25l-25 2q-4 3 -3.5 13t5.5 12q87 -3 134 -3q54 0 114 3q5 -2 5.5 -12t-3.5 -13l-15 -2q-43 -6 -52 -26t-9 -102v-371q0 -138 -23 -194q-26 -63 -78 -103.5t-119 -40.5q-43 0 -43 21q0 14 10.5 30t25.5 16q18 0 37 -6q25 -7 42 -7
q27 0 40 26q26 53 26 251z" />
    <glyph glyph-name="K" unicode="K" horiz-adv-x="675" 
d="M128 150v360q0 82 -9 102t-51 24l-25 2q-4 3 -3.5 13t5.5 12q74 -3 126 -3t116 3q5 -2 5.5 -12t-3.5 -13l-19 -2q-42 -4 -51 -24.5t-9 -101.5v-115q0 -38 13 -38t28 11q8 7 28 26t23 22l108 107q58 55 78 83q7 10 7 16t-17 10l-27 6q-5 5 -4.5 13t6.5 12q52 -3 110 -3
q54 0 99 3q5 -4 6 -12.5t-4 -12.5q-51 -4 -93 -28q-44 -25 -140 -116l-90 -85q-23 -23 -23 -31t19 -31q189 -217 250 -281q36 -36 80 -41l27 -3q5 -4 4 -13.5t-6 -11.5q-39 3 -112 3q-53 0 -122 -3q-5 2 -6.5 11t2.5 14l23 4q24 3 24 10q0 5 -14 23q-1 1 -83 94l-80 90
q-60 67 -74 77q-11 7 -23 7q-11 0 -14 -10t-3 -38v-129q0 -81 8.5 -101t49.5 -24l27 -3q4 -3 3.5 -13t-5.5 -12q-74 3 -122 3q-54 0 -116 -3q-5 2 -5.5 11t3.5 14l20 3q39 6 47 25t8 100z" />
    <glyph glyph-name="L" unicode="L" horiz-adv-x="553" 
d="M128 150v360q0 82 -9.5 102t-55.5 24l-25 2q-4 3 -3.5 13t5.5 12q84 -3 130 -3q48 0 123 3q5 -2 5.5 -12t-3.5 -13l-24 -2q-43 -4 -52 -24t-9 -102v-348q0 -50 4 -72t17 -36q23 -23 109 -23q99 0 122 13q36 21 66 99q4 4 14.5 1.5t10.5 -7.5q0 -10 -16 -65.5t-26 -74.5
q-77 3 -249 3h-92q-46 0 -130 -3q-5 2 -5.5 11t3.5 14l30 3q42 4 51 24t9 101z" />
    <glyph glyph-name="M" unicode="M" horiz-adv-x="912" 
d="M275 498l114 -231q50 -102 69 -137h2q24 41 77 150l94 191q61 124 71 159q4 18 5 33q34 -3 75 -3q42 0 89 3q4 -3 4.5 -12.5t-3.5 -12.5l-21 -2q-46 -4 -58.5 -22.5t-11.5 -72.5q7 -359 11 -435q1 -23 1.5 -28t3.5 -20t7.5 -18.5t13.5 -8.5t23 -6l32 -3q5 -4 4 -13
t-6 -12q-61 3 -118 3q-59 0 -121 -3q-5 4 -6 12.5t4 12.5l29 3q35 4 42 18.5t7 66.5l-3 417h-2q-3 -5 -14.5 -28.5t-27 -55t-23.5 -46.5l-89 -175q-80 -156 -108 -228q-3 -4 -10 -4q-6 0 -9 4q-13 40 -88 200l-90 193q-8 18 -30 68t-34 76h-2q-4 -62 -10 -178
q-7 -142 -7 -235q0 -56 8 -73.5t37 -19.5l38 -3q5 -5 4.5 -14t-5.5 -11q-51 3 -111 3q-51 0 -102 -3q-5 4 -5.5 12.5t3.5 12.5l22 3q34 5 46 18.5t16 63.5q11 121 17 220q7 121 11 223q2 48 -10 64t-57 22l-16 2q-4 4 -3 13t7 12q45 -3 79 -3q50 0 83 3q-5 -48 52 -165z" />
    <glyph glyph-name="N" unicode="N" horiz-adv-x="783" 
d="M666 409v-239q0 -149 3 -175q-4 -11 -19 -11q-19 27 -128 151l-232 264q-6 7 -55 64.5t-61 70.5h-2q-5 -15 -5 -65v-218q0 -175 18 -207q9 -16 51 -19l31 -3q4 -6 3.5 -13.5t-5.5 -11.5q-67 3 -117 3q-52 0 -104 -3q-5 4 -6 12.5t4 12.5l27 3q37 5 44 20q13 33 13 206
v289q0 48 -22 72q-19 19 -62 24l-17 2q-5 4 -4.5 13t6.5 12q42 -3 113 -3q26 0 46 3q20 -50 171 -220l97 -109q132 -147 165 -181h2q4 5 4 42v214q0 175 -20 207q-9 13 -62 20l-17 2q-5 4 -4.5 13.5t6.5 11.5q69 -3 118 -3q52 0 103 3q6 -4 6.5 -12.5t-4.5 -12.5l-14 -2
q-49 -8 -56 -21q-15 -32 -15 -206z" />
    <glyph glyph-name="O" unicode="O" horiz-adv-x="795" 
d="M402 -16q-161 0 -258.5 99t-97.5 240q0 151 101 252t255 101q164 0 255.5 -100.5t91.5 -242.5q0 -150 -100.5 -249.5t-246.5 -99.5zM415 15q98 0 166 74t68 213q0 65 -15 124t-45 109t-82.5 80t-121.5 30q-42 0 -81.5 -15t-76.5 -47t-59 -91t-22 -137q0 -46 9 -92
t29.5 -91.5t50.5 -79.5t76.5 -55.5t103.5 -21.5z" />
    <glyph glyph-name="P" unicode="P" horiz-adv-x="549" 
d="M210 596v-446q0 -81 9.5 -100.5t56.5 -24.5l27 -3q4 -4 3.5 -13.5t-5.5 -11.5q-85 3 -130 3q-56 0 -122 -3q-5 2 -5.5 11t3.5 14l21 3q43 6 51.5 25t8.5 100v369q0 67 -7 85t-40 22l-36 4q-5 4 -4.5 13t6.5 12q61 8 198 8q127 0 192 -40q80 -50 80 -150q0 -110 -100 -159
q-63 -30 -138 -30q-5 2 -5.5 10.5t4.5 9.5q147 27 147 168q0 74 -42 117t-119 43q-39 0 -46.5 -5.5t-7.5 -30.5z" />
    <glyph glyph-name="Q" unicode="Q" horiz-adv-x="795" 
d="M402 676q164 0 255.5 -100.5t91.5 -242.5q0 -121 -67.5 -211.5t-174.5 -122.5q-2 -5 8 -15q133 -128 223 -157q43 -14 93 -14q27 0 48 9q4 -1 5.5 -6t-0.5 -9q-46 -26 -112 -26q-81 0 -162 37q-94 44 -185 132q-21 21 -32.5 27t-34.5 10q-60 9 -98 24q-100 37 -157 121
t-57 191q0 151 101 252t255 101zM415 15q98 0 166 74t68 213q0 65 -15 124t-45 109t-82.5 80t-121.5 30q-42 0 -81.5 -15t-76.5 -47t-59 -91t-22 -137q0 -46 9 -92t29.5 -91.5t50.5 -79.5t76.5 -55.5t103.5 -21.5z" />
    <glyph glyph-name="R" unicode="R" horiz-adv-x="645" 
d="M128 150v359q0 73 -7 93t-37 24l-32 4q-5 4 -5 13t6 12q90 8 223 8q112 0 167 -30q83 -43 83 -140q0 -64 -38.5 -106t-86.5 -61q-6 -7 5 -24q68 -109 111 -167.5t90 -98.5q28 -25 69 -28q4 -2 4.5 -6.5t-3.5 -7.5q-15 -5 -44 -5q-66 0 -110.5 26t-96.5 100q-13 19 -48 74
t-50 77q-12 17 -27 24.5t-44 7.5q-34 0 -40.5 -3t-6.5 -19v-126q0 -81 8.5 -100t51.5 -25l21 -3q4 -4 3.5 -13.5t-5.5 -11.5q-67 3 -119 3q-55 0 -125 -3q-5 2 -5.5 11t3.5 14l25 3q42 5 51 24.5t9 100.5zM210 600v-234q0 -29 3 -33q5 -5 69 -5q69 0 103 26q50 39 50 124
q0 65 -41 109.5t-119 44.5q-45 0 -55 -5t-10 -27z" />
    <glyph glyph-name="S" unicode="S" horiz-adv-x="489" 
d="M437 169q0 -83 -58 -134t-155 -51q-92 0 -156 37q-9 16 -17 60t-10 80q4 5 12.5 6t11.5 -3q44 -149 172 -149q60 0 92.5 33.5t32.5 81.5q0 41 -16.5 74.5t-65.5 65.5l-95 62q-108 71 -108 172q0 74 54.5 123t149.5 49q45 0 93 -13q20 -6 35 -6q18 -48 18 -122
q-3 -5 -12 -6t-13 3q-6 22 -14 38.5t-22.5 35t-40 29t-59.5 10.5q-66 0 -92.5 -33.5t-26.5 -77.5q0 -70 85 -123l80 -50q125 -77 125 -192z" />
    <glyph glyph-name="T" unicode="T" horiz-adv-x="660" 
d="M368 595v-445q0 -81 9 -101t51 -24l32 -3q4 -3 3.5 -13t-5.5 -12q-86 3 -131 3q-43 0 -139 -3q-5 2 -5.5 11.5t5.5 13.5l36 3q42 4 52 24.5t10 100.5v447q0 23 -4 27.5t-26 4.5h-55q-96 0 -123 -25q-25 -22 -45 -69q-6 -4 -14.5 -1.5t-11.5 8.5q23 66 38 149q2 2 9.5 2
t9.5 -2q2 -12 8 -18.5t20.5 -9t23.5 -3t33 -0.5h405q41 0 54 4.5t24 23.5q4 2 10.5 1t7.5 -4q-8 -30 -12.5 -79.5t-2.5 -72.5q-3 -6 -12.5 -6.5t-13.5 4.5q-7 60 -25 73q-34 25 -116 25h-71q-22 0 -25.5 -4.5t-3.5 -29.5z" />
    <glyph glyph-name="U" unicode="U" horiz-adv-x="746" 
d="M605 294v115q0 173 -19 207q-10 18 -50 21l-25 2q-4 5 -3.5 13t5.5 11q57 -3 114 -3q51 0 105 3q6 -4 6 -12t-4 -12l-24 -2q-40 -3 -50 -24q-14 -33 -14 -204v-113q0 -164 -70 -239q-32 -35 -83 -54t-108 -19q-123 0 -187 55q-78 65 -78 236v236q0 81 -9 101.5t-51 24.5
l-25 2q-4 3 -3.5 12.5t5.5 11.5q75 -3 124 -3t123 3q5 -2 5.5 -11.5t-3.5 -12.5l-24 -2q-42 -4 -51 -24.5t-9 -101.5v-216q0 -129 47 -198t156 -69q103 0 151.5 72t48.5 194z" />
    <glyph glyph-name="V" unicode="V" horiz-adv-x="676" 
d="M276 120l-176 434q-18 44 -34 61t-47 21l-18 2q-5 4 -4.5 12.5t6.5 12.5q44 -3 104 -3q58 0 121 3q5 -3 6 -11.5t-4 -13.5l-15 -2q-45 -6 -47 -19q7 -34 50 -140q88 -222 142 -345q14 29 32 71t37.5 88.5t26.5 62.5q61 143 93 224q9 24 9 39q0 14 -45 19l-18 2
q-5 5 -4 13.5t6 11.5q42 -3 104 -3q47 0 97 3q5 -3 5.5 -12t-3.5 -13l-30 -2q-32 -3 -52 -35q-41 -68 -112 -230l-54 -123q-77 -178 -104 -261q-4 -3 -11 -3t-15 3q-14 55 -46 133z" />
    <glyph glyph-name="W" unicode="W" horiz-adv-x="960" 
d="M21 637l-24 2q-5 4 -4 12.5t7 11.5q40 -3 103 -3q61 0 114 3q6 -2 6.5 -10.5t-4.5 -13.5l-23 -2q-33 -3 -33 -17q0 -15 52 -134q55 -123 173 -373q55 114 77 162q16 34 16 41t-8 26q-47 107 -110 240q-13 26 -26.5 39.5t-37.5 15.5l-24 2q-5 6 -4.5 13.5t6.5 10.5
q44 -3 107 -3q75 0 110 3q5 -2 6 -10t-4 -14l-26 -2q-29 -2 -32.5 -11.5t11.5 -43.5q29 -69 77 -174q34 71 59 131q14 32 20 51t5 29.5t-7 13.5t-19 4l-30 2q-12 18 2 24q41 -3 94 -3q61 0 96 3q5 -2 6 -10t-4 -14l-29 -2q-9 -1 -16.5 -3.5t-14.5 -8.5t-12 -11t-11 -15.5
t-9 -15.5t-10 -18t-9 -17q-40 -71 -78 -159q-9 -18 -9 -24q0 -7 7 -24q14 -32 49 -109t53 -119q49 111 90 211q39 94 80 199q30 83 30 91q0 21 -33 23l-29 2q-14 16 1 24q57 -3 96 -3q54 0 93 3q6 -2 6.5 -10t-4.5 -14l-19 -2q-35 -3 -52 -30t-67 -144l-73 -169
q-66 -153 -125 -307q-5 -3 -12 -3q-8 0 -14 3q-21 57 -121 284q-88 -179 -125 -284q-5 -3 -12 -3t-15 3q-30 73 -69 161q-21 46 -87.5 192t-103.5 225q-12 26 -18.5 37.5t-20.5 22t-34 12.5z" />
    <glyph glyph-name="X" unicode="X" horiz-adv-x="643" 
d="M631 25l35 -3q5 -5 4.5 -13t-5.5 -12q-69 3 -126 3q-75 0 -129 -3q-12 12 -2 25l29 3q34 3 34 13q0 13 -22 44q-128 181 -143 201q-22 -28 -67.5 -96t-73.5 -117q-13 -23 -13 -32q0 -10 29 -13l27 -3q5 -5 4.5 -13t-5.5 -12q-54 3 -108 3q-55 0 -103 -3q-7 3 -7.5 12
t4.5 13l25 3q36 4 63 27t56 62q114 152 136 184q9 13 9 20q0 6 -12 23l-150 215q-26 37 -44 53t-43 22l-32 7q-4 4 -3 13.5t5 11.5q71 -3 116 -3q69 0 113 3q5 -2 6 -11t-4 -14l-28 -2q-30 -2 -30 -13t30 -55q112 -164 128 -183q44 55 134 204q14 23 14 33q0 9 -33 13l-26 3
q-5 5 -4.5 13.5t6.5 11.5q53 -3 106 -3q49 0 96 3q5 -4 6 -12.5t-4 -12.5l-24 -2q-43 -4 -107 -85q-39 -50 -130 -177q-10 -15 -10 -19q0 -9 13 -26l169 -238q44 -61 91 -66z" />
    <glyph glyph-name="Y" unicode="Y" horiz-adv-x="574" 
d="M336 204v-52q0 -81 10 -102.5t50 -24.5l38 -3q4 -5 3.5 -14t-5.5 -11q-93 3 -136 3q-52 0 -131 -3q-5 2 -5.5 11t3.5 14l31 3q42 4 51 24t9 103v51q0 42 -5 62t-27 62l-118 230q-24 46 -39 59t-40 17l-28 5q-5 5 -4 13.5t6 11.5q48 -3 116 -3q70 0 107 3q6 -2 7 -11.5
t-4 -13.5l-13 -2q-42 -6 -42 -18q0 -15 31 -77q96 -191 113 -222q57 97 94 169q65 121 65 132t-42 16l-18 2q-5 5 -4.5 13.5t6.5 11.5q54 -3 96 -3t93 3q6 -4 6.5 -12.5t-4.5 -12.5l-28 -5q-10 -2 -19 -6.5t-16.5 -9.5t-16.5 -16t-14.5 -18t-15.5 -23t-15 -24.5t-17 -29.5
t-18 -31l-63 -109q-33 -57 -40 -81t-7 -81z" />
    <glyph glyph-name="Z" unicode="Z" horiz-adv-x="641" 
d="M136 145l216 307q88 126 97 142q12 21 12 27q0 8 -36 8h-149q-119 0 -149 -33q-25 -27 -44 -68q-7 -3 -14.5 -1t-10.5 8q23 66 41 150q8 6 17 0q2 -17 19 -21t80 -4h264q99 0 115 3q6 -1 6 -9q-38 -33 -164 -214l-165 -238q-99 -144 -99 -155t28 -14q26 -2 148 -2
q143 0 185 23q39 22 70 92q20 7 25 -7q-20 -103 -45 -142q-83 3 -182 3h-257q-43 0 -112 -3q-5 3 -5 12q16 15 51 58.5t58 77.5z" />
    <glyph glyph-name="bracketleft" unicode="[" horiz-adv-x="320" 
d="M117 -150v836h69q16 0 34.5 -0.5t41 -1.5t34.5 -1q13 -8 1 -22l-89 -10q-16 -1 -25 -10q-13 -13 -13 -156v-434q0 -143 13 -156q9 -9 25 -10l89 -10q12 -14 -1 -22q-12 0 -34.5 -1t-41 -1.5t-34.5 -0.5h-69z" />
    <glyph glyph-name="backslash" unicode="\" horiz-adv-x="309" 
d="M88 686l191 -702h-58l-191 702h58z" />
    <glyph glyph-name="bracketright" unicode="]" horiz-adv-x="320" 
d="M203 686v-836h-69q-16 0 -34.5 0.5t-41 1.5t-34.5 1q-13 8 -1 22l89 10q16 1 25 10q13 13 13 156v434q0 143 -13 156q-9 9 -25 10l-89 10q-12 14 1 22q12 0 34.5 1t41 1.5t34.5 0.5h69z" />
    <glyph glyph-name="asciicircum" unicode="^" horiz-adv-x="500" 
d="M450 244h-62l-138 311l-138 -311h-63l177 382h48z" />
    <glyph glyph-name="underscore" unicode="_" horiz-adv-x="500" 
d="M500 -75v-50h-500v50h500z" />
    <glyph glyph-name="grave" unicode="`" 
d="M139 640l79 -161q0 -6 -7.5 -9.5t-13.5 -2.5l-117 127q-17 18 -17 30q0 9 19 25q21 14 34 14q12 0 23 -23z" />
    <glyph glyph-name="a" unicode="a" horiz-adv-x="404" 
d="M118 164l119 43q17 6 17 29l1 46q2 87 -73 87q-24 0 -43.5 -11.5t-20.5 -33.5q-2 -28 -10 -34q-24 -19 -57 -19q-14 0 -14 14q0 38 65 80.5t121 42.5q54 0 80 -30t24 -87l-6 -174q-4 -87 46 -87q13 0 25 6q12 7 13 7q7 0 7 -13q0 -3 -10 -13.5t-31 -20.5t-43 -10
q-41 0 -65 31q-9 14 -16 14q-3 0 -39 -20q-46 -25 -72 -25q-44 0 -70 23q-31 28 -31 70q0 30 18 49t65 36zM112 91q0 -19 15 -39.5t48 -20.5q14 0 33.5 8.5t27.5 16.5q11 11 13 47l2 59q0 13 -10 13q-11 0 -41 -10q-48 -16 -68 -31.5t-20 -42.5z" />
    <glyph glyph-name="b" unicode="b" horiz-adv-x="500" 
d="M75 87v477q0 45 -4.5 57.5t-26.5 25.5l-10 6q-4 2 -4 10t4 10q7 3 28.5 10t42.5 15t38 17q7 0 10 -6q-4 -70 -4 -124v-189q0 -21 10 -21q57 33 115 33q84 0 137.5 -56t53.5 -140q0 -100 -64.5 -163t-165.5 -63q-42 0 -85 13q-39 13 -42 13q-10 0 -21 -15q-1 -1 -4 -1
q-7 0 -10 6q2 28 2 85zM149 292v-156q0 -56 25 -87q27 -33 76 -33q66 0 98.5 47.5t32.5 118.5q0 80 -40 131.5t-112 51.5q-43 0 -68 -16q-12 -8 -12 -57z" />
    <glyph glyph-name="c" unicode="c" horiz-adv-x="400" 
d="M278 408q51 0 89 -17q15 -13 15 -40q0 -14 -6.5 -25.5t-15.5 -11.5q-8 0 -14 7q-43 53 -100 53q-56 0 -97 -43t-41 -118q0 -65 43 -118t118 -53q70 0 111 60q6 2 11.5 -2.5t6.5 -11.5q-24 -51 -71 -76.5t-96 -25.5q-85 0 -137 51q-58 56 -58 148q0 90 63 156.5t179 66.5z
" />
    <glyph glyph-name="d" unicode="d" horiz-adv-x="509" 
d="M424 585v-439q0 -67 5 -91.5t24 -24.5q13 0 43 10q6 -2 6 -15t-7 -17q-79 -11 -132 -32q-11 0 -11 8v17q0 27 -2 31h-4q-67 -46 -126 -46q-82 0 -133.5 55.5t-51.5 136.5q0 103 69 166.5t173 63.5q42 0 67 -9q6 0 6 14v151q0 45 -4.5 57.5t-26.5 25.5l-10 6q-4 2 -4 10
t4 10q72 23 108 42q7 0 10 -6q-3 -90 -3 -124zM350 99v197q0 23 -11 39q-30 42 -84 42q-65 0 -101.5 -48.5t-36.5 -117.5q0 -73 39.5 -125t109.5 -52q49 0 77 28q7 7 7 37z" />
    <glyph glyph-name="e" unicode="e" horiz-adv-x="396" 
d="M315 256h-185q-19 0 -23 -4t-4 -23q0 -79 44.5 -133t121.5 -54q53 0 92 49q16 5 18 -12q-23 -47 -67.5 -70t-89.5 -23q-95 0 -145 66q-42 55 -42 130q0 94 56.5 160t144.5 66q62 0 102 -36t40 -83q0 -18 -4 -26q-4 -7 -59 -7zM121 286h71q91 0 104 10q6 4 6 19
q0 25 -18.5 44t-58.5 19q-41 0 -75.5 -30t-35.5 -57q0 -5 7 -5z" />
    <glyph glyph-name="f" unicode="f" horiz-adv-x="290" 
d="M293 352h-107q-12 0 -14.5 -4t-2.5 -25v-211q0 -56 6 -70.5t32 -16.5l36 -3q5 -4 4 -13.5t-6 -11.5q-67 3 -109 3q-51 0 -96 -3q-5 2 -6 11.5t4 13.5l23 3q27 4 32.5 17.5t5.5 69.5v211q0 21 -2.5 25t-17.5 4h-35q-11 7 -3 19l43 21q15 8 15 20q0 104 31 176
q23 52 68 89.5t112 37.5q41 0 69.5 -17t28.5 -43q0 -15 -11.5 -25.5t-26.5 -10.5q-14 0 -24 12q-38 44 -80 44q-48 0 -71 -55q-22 -56 -22 -169v-29q0 -20 2 -24t15 -4h114q8 -8 5 -23.5t-12 -18.5z" />
    <glyph glyph-name="g" unicode="g" horiz-adv-x="446" 
d="M365 372h81q9 -4 7 -22t-13 -19h-72q2 -17 2 -51q0 -28 -9 -54.5t-27 -50.5t-52.5 -39t-79.5 -15q-8 0 -44 3q-44 -26 -44 -55q0 -18 18 -30t52 -12q16 0 56 1.5t63 1.5q140 0 140 -110q0 -80 -74.5 -134.5t-174.5 -54.5q-84 0 -125 35.5t-41 80.5q0 24 11 37
q10 10 35 34.5t33 32.5q18 18 8 24q-30 8 -51.5 30.5t-21.5 48.5q0 6 15 17q25 16 53 46q10 12 10 19q-75 40 -75 121q0 64 48 107.5t115 43.5q50 0 96 -20q37 -16 61 -16zM271 -32h-34q-69 0 -86 -11q-48 -30 -48 -84q0 -43 34.5 -71t99.5 -28t106.5 31.5t41.5 75.5
q0 87 -114 87zM217 150q39 0 60.5 28.5t21.5 75.5q0 54 -22.5 89.5t-66.5 35.5q-37 0 -60.5 -31t-23.5 -81q0 -52 27 -84.5t64 -32.5z" />
    <glyph glyph-name="h" unicode="h" horiz-adv-x="515" 
d="M88 112v452q0 45 -4.5 57.5t-26.5 25.5l-10 6q-4 2 -4 10t4 10q72 23 108 42q7 0 10 -6q-3 -90 -3 -124v-210q0 -16 4 -19q67 52 135 52q67 0 98 -36t31 -93v-167q0 -56 6 -70t32 -17l27 -3q5 -4 4 -13.5t-6 -11.5q-54 3 -100 3q-53 0 -93 -3q-5 2 -6 11.5t4 13.5l20 3
q27 4 32.5 17.5t5.5 69.5v143q0 50 -24 78.5t-71 28.5q-46 0 -78 -27q-14 -12 -17.5 -20.5t-3.5 -34.5v-168q0 -55 6 -69t32 -18l21 -3q5 -3 4 -13t-6 -12q-45 3 -94 3q-50 0 -98 -3q-5 2 -6 11.5t4 13.5l25 3q27 3 32.5 17t5.5 70z" />
    <glyph glyph-name="i" unicode="i" horiz-adv-x="257" 
d="M98 112v175q0 31 -3.5 40t-23.5 22l-9 6q-3 3 -3 9.5t4 8.5q60 21 103 49q8 0 10 -6q-4 -70 -4 -124v-180q0 -55 6 -69t32 -18l21 -3q5 -4 4 -13.5t-6 -11.5q-45 3 -94 3q-52 0 -94 -3q-5 2 -6 11.5t4 13.5l21 3q27 4 32.5 17.5t5.5 69.5zM131 624q22 0 36 -15t14 -37
q0 -26 -15 -39t-38 -13t-37 14.5t-14 35.5q0 24 15.5 39t38.5 15z" />
    <glyph glyph-name="j" unicode="j" horiz-adv-x="253" 
d="M100 35v252q0 31 -3.5 40t-23.5 22l-9 6q-3 3 -3 9.5t4 8.5q60 21 103 49q8 0 10 -6q-4 -70 -4 -124v-242q0 -105 -21 -156q-38 -92 -152 -163q-9 1 -13 8t-1 15q35 17 59 45q54 63 54 236zM133 624q22 0 36 -15t14 -37q0 -25 -15.5 -38.5t-37.5 -13.5q-23 0 -37 14.5
t-14 36.5q0 24 15.5 38.5t38.5 14.5z" />
    <glyph glyph-name="k" unicode="k" horiz-adv-x="482" 
d="M88 112v452q0 45 -4.5 57.5t-26.5 25.5l-10 6q-4 2 -4 10t4 10q72 23 108 42q7 0 10 -6q-3 -90 -3 -124v-343q0 -10 3 -12.5t15 -2.5q30 0 68 39l41 44q35 38 35 46q0 7 -22 10l-24 3q-7 2 -7 12.5t7 12.5h23q84 0 159 8q5 -2 6 -11.5t-4 -13.5l-32 -6q-26 -5 -63 -35
q-13 -10 -91 -84q-15 -14 -7 -24q22 -29 67 -80q71 -80 94 -102q18 -16 52 -22l14 -2q5 -4 4.5 -13.5t-6.5 -11.5q-44 3 -95 3q-61 0 -104 -3q-6 3 -6.5 12.5t4.5 12.5l18 3q25 3 25 10q0 8 -17 28l-107 124q-13 14 -31 14q-13 0 -16 -5t-3 -29v-55q0 -55 6 -69t32 -18
l24 -3q5 -4 4 -13.5t-6 -11.5q-50 3 -97 3q-51 0 -96 -3q-5 2 -6 11.5t5 13.5l22 3q27 4 32.5 17.5t5.5 69.5z" />
    <glyph glyph-name="l" unicode="l" horiz-adv-x="247" 
d="M162 585v-473q0 -55 6 -69t32 -18l24 -3q5 -4 4 -13.5t-6 -11.5q-50 3 -97 3q-51 0 -96 -3q-5 2 -6 11.5t4 13.5l23 3q27 4 32.5 17.5t5.5 69.5v452q0 45 -4.5 57.5t-26.5 25.5l-10 6q-4 2 -4 10t4 10q72 23 108 42q7 0 10 -6q-3 -90 -3 -124z" />
    <glyph glyph-name="m" unicode="m" horiz-adv-x="787" 
d="M628 112v145q0 103 -93 103q-56 0 -83 -35q-15 -19 -15 -60v-153q0 -55 6 -69t32 -18l21 -3q5 -4 4 -13.5t-6 -11.5q-45 3 -94 3t-91 -3q-5 2 -6 11.5t4 13.5l18 3q27 4 32.5 17.5t5.5 69.5v145q0 103 -92 103q-54 0 -84 -36q-15 -18 -15 -57v-155q0 -55 5.5 -69
t32.5 -18l18 -3q5 -4 4 -13.5t-6 -11.5q-40 3 -91 3t-97 -3q-5 2 -6 11.5t4 13.5l24 3q27 4 32.5 17.5t5.5 69.5v175q0 31 -3.5 40t-23.5 22l-9 6q-3 3 -3 9.5t4 8.5q20 7 53 23t47 26q8 0 11 -7q-2 -23 -2 -47q0 -11 11 -11q72 51 133 51q37 0 60.5 -13.5t45.5 -45.5
q10 -2 25 8q73 51 136 51q58 0 88.5 -35t30.5 -89v-172q0 -55 6 -69t32 -18l24 -3q5 -4 4 -13.5t-6 -11.5q-50 3 -97 3q-49 0 -91 -3q-5 2 -6 11.5t4 13.5l18 3q27 4 32.5 17.5t5.5 69.5z" />
    <glyph glyph-name="n" unicode="n" horiz-adv-x="525" 
d="M98 112v175q0 31 -3.5 40t-23.5 22l-9 6q-3 3 -3 9.5t4 8.5q20 7 53 23t47 26q8 0 11 -7q-2 -23 -2 -47q0 -11 11 -11q82 51 140 51q59 0 88 -35t29 -89v-172q0 -55 6 -69t32 -18l22 -3q5 -4 4 -13.5t-6 -11.5q-45 3 -94 3q-52 0 -93 -3q-5 2 -6 11.5t4 13.5l19 3
q27 4 32.5 17.5t5.5 69.5v149q0 99 -94 99q-59 0 -85 -35q-15 -20 -15 -60v-153q0 -55 5.5 -69t32.5 -18l18 -3q5 -4 4 -13.5t-6 -11.5q-40 3 -91 3q-52 0 -94 -3q-5 2 -6 11.5t4 13.5l21 3q27 4 32.5 17.5t5.5 69.5z" />
    <glyph glyph-name="o" unicode="o" horiz-adv-x="486" 
d="M248 408q86 0 144.5 -58t58.5 -149q0 -94 -59 -154.5t-152 -60.5q-88 0 -146.5 57t-58.5 149q0 93 61.5 154.5t151.5 61.5zM365 185q0 75 -32 134t-97 59q-51 0 -83 -46t-32 -127q0 -75 33.5 -132t95.5 -57q60 0 87.5 50.5t27.5 118.5z" />
    <glyph glyph-name="p" unicode="p" horiz-adv-x="507" 
d="M85 -143v430q0 31 -3.5 40t-23.5 22l-9 6q-3 3 -3 9.5t4 8.5q60 25 99 54q9 0 12 -7q-4 -36 -4 -46q0 -13 9 -13q2 1 13 7t24 12t29.5 13t36 11t37.5 4q74 0 120 -52.5t46 -130.5q0 -104 -69 -171.5t-175 -67.5q-37 0 -55 4q-14 -3 -14 -28v-105q0 -54 5.5 -67.5
t32.5 -17.5l39 -5q5 -4 4 -13.5t-6 -11.5q-72 3 -112 3q-52 0 -94 -3q-5 2 -6 11.5t4 13.5l21 3q27 4 32.5 17.5t5.5 69.5zM159 273v-172q0 -23 6.5 -35t23.5 -25q29 -22 72 -22q60 0 95 50t35 130q0 65 -35.5 113t-99.5 48q-59 0 -85 -28q-12 -15 -12 -59z" />
    <glyph glyph-name="q" unicode="q" horiz-adv-x="497" 
d="M423 278v-421q0 -54 6 -67.5t32 -17.5l29 -5q5 -4 4 -13.5t-6 -11.5q-57 3 -102 3q-47 0 -104 -3q-5 2 -6 11.5t4 13.5l31 3q27 3 32.5 17t5.5 70v130q0 24 -9 24q-43 -25 -102 -25q-53 0 -94 19.5t-63.5 50t-34 63t-11.5 63.5q0 105 69.5 165.5t170.5 60.5q48 0 83 -10
q26 -7 35 -7q8 0 27 17q7 0 11 -9q-8 -32 -8 -121zM349 82v149q0 76 -13 100q-26 46 -86 46q-57 0 -94 -46t-37 -117q0 -83 44 -135.5t114 -52.5q52 0 65 16q7 8 7 40z" />
    <glyph glyph-name="r" unicode="r" horiz-adv-x="332" 
d="M98 112v175q0 31 -3.5 40t-23.5 22l-9 6q-3 3 -3 9.5t4 8.5q46 16 101 49q8 -2 8 -7v-58q0 -7 3 -9q72 60 110 60q19 0 32 -11t13 -29q0 -22 -14 -34t-29 -12q-10 0 -22 7q-24 16 -44 16q-21 0 -36 -20q-13 -18 -13 -77v-136q0 -56 6 -70.5t34 -16.5l36 -3q5 -4 4 -13.5
t-6 -11.5q-70 3 -111 3q-53 0 -92 -3q-5 2 -6 11.5t4 13.5l19 3q27 4 32.5 17.5t5.5 69.5z" />
    <glyph glyph-name="s" unicode="s" horiz-adv-x="323" 
d="M186 408q68 0 88 -18q16 -39 16 -81q-3 -5 -11.5 -6t-12.5 3q-28 73 -88 73q-29 0 -46.5 -17t-17.5 -44q0 -15 6 -27t20.5 -23.5t22.5 -16t28 -16.5q49 -28 75.5 -57.5t26.5 -77.5q0 -54 -42 -84t-102 -30q-69 0 -107 30q-16 38 -12 101q4 5 11.5 5t11.5 -4
q32 -103 106 -103q29 0 48 16.5t19 47.5q0 21 -13 40t-26.5 29t-37.5 23q-49 28 -74 56.5t-25 66.5q0 53 38.5 83.5t97.5 30.5z" />
    <glyph glyph-name="t" unicode="t" horiz-adv-x="307" 
d="M293 352h-113q-12 0 -15 -4t-3 -20v-187q0 -53 14 -82t59 -29q14 0 27 5q5 2 14.5 8t10.5 6q6 0 9 -6t1 -11q-39 -46 -105 -46q-60 0 -82 28.5t-22 79.5v229q0 20 -3 24.5t-18 4.5h-28q-4 3 -5 10t2 11q45 14 64 31q23 21 42 59q3 2 10.5 1t10.5 -6v-45q0 -13 2.5 -16
t15.5 -3h111q9 -7 8.5 -22t-7.5 -20z" />
    <glyph glyph-name="u" unicode="u" horiz-adv-x="512" 
d="M159 314v-167q0 -57 20 -86t73 -29q46 0 81 30q20 18 20 58v164q0 33 -3.5 47.5t-9.5 19.5t-24 12l-13 5q-5 3 -5 11t6 11q82 2 117 18q8 -2 9 -7q-3 -28 -3 -87v-168q0 -64 5.5 -86.5t25.5 -22.5q16 0 39 5q5 -4 5 -15t-6 -14q-102 -21 -131 -37q-9 0 -12 7v41
q0 14 -9 14q-82 -52 -138 -52q-64 0 -92.5 31t-28.5 94v167q0 50 -4 63t-26 22l-12 5q-5 4 -4 12t6 10q61 1 107 18q9 -1 10 -7q-3 -26 -3 -87z" />
    <glyph glyph-name="v" unicode="v" horiz-adv-x="432" 
d="M166 92l-84 203q-1 3 -5.5 13.5t-5.5 13.5t-5 11t-6.5 11t-7 9t-8.5 8t-9.5 4.5t-12.5 3.5l-20 3q-5 6 -4 14.5t7 10.5q37 -3 94 -3q30 0 81 3q5 -3 5.5 -12t-4.5 -13l-12 -2q-23 -4 -26.5 -11t4.5 -29q29 -87 75 -191q13 -29 16 -32q6 5 19 38q7 19 30 78t27 69
q18 45 18 62q0 12 -18 15l-23 3q-5 5 -4 13.5t6 11.5q47 -3 75 -3t70 3q5 -3 6 -12t-4 -13l-15 -2q-7 -1 -12.5 -3t-9.5 -4.5t-9 -8t-7.5 -8.5t-8 -12.5t-8 -14t-9 -17.5l-9.5 -19q-10 -19 -44.5 -99.5t-47.5 -113.5q-1 -3 -13 -32.5t-20 -49.5q-3 -4 -10 -4q-9 0 -13 4
q-10 35 -38 104z" />
    <glyph glyph-name="w" unicode="w" horiz-adv-x="660" 
d="M167 71l-92 226q-17 40 -28.5 53.5t-31.5 18.5l-16 4q-4 4 -3.5 12.5t6.5 11.5q46 -3 89 -3q47 0 87 3q6 -3 6.5 -11.5t-4.5 -12.5l-23 -4q-22 -3 -22 -14q0 -13 16 -52l62 -153q4 -10 8.5 -20.5t7 -16t2.5 -6.5q4 3 23 48l49 121q16 40 9 58q-11 27 -46 35l-16 4
q-5 5 -4 13.5t7 10.5q38 -3 83 -3q44 0 95 3q6 -2 7 -11t-4 -13l-21 -4q-29 -6 -32.5 -13t6.5 -33q1 -2 76 -187q11 -26 13 -28q3 3 14 28q24 53 68 177q10 29 10 43q0 10 -18 13l-25 4q-6 4 -5 13t6 11q44 -3 79 -3q32 0 65 3q6 -3 7 -11.5t-4 -12.5l-20 -4q-17 -4 -27 -16
t-27 -47q-41 -86 -94 -227q-29 -74 -34 -91q-5 -4 -13 -4q-7 0 -11 4q-21 63 -41 110l-48 115q-20 51 -23 51t-22 -49l-52 -125q-27 -64 -40 -102q-4 -4 -12 -4t-12 4q-5 17 -30 83z" />
    <glyph glyph-name="x" unicode="x" horiz-adv-x="432" 
d="M177 199l-90 127q-25 37 -60 43l-16 3q-5 4 -4 13.5t6 11.5q59 -3 87 -3q26 0 85 3q5 -3 5.5 -12t-4.5 -13l-15 -3q-20 -4 -21 -10.5t12 -24.5l48 -70q8 -12 13 -17q4 3 58 85q12 20 10.5 26t-18.5 11l-12 3q-5 4 -3.5 13.5t7.5 11.5q35 -3 73 -3q44 0 73 3q6 -3 6.5 -12
t-4.5 -13l-15 -3q-39 -8 -50 -17q-25 -20 -94 -114q-9 -12 -9 -18t10 -19l93 -131q18 -25 32 -35.5t34 -11.5l16 -1q5 -4 4 -13.5t-6 -11.5q-56 3 -99 3q-47 0 -95 -3q-6 2 -7 11.5t4 13.5l29 3q21 2 24.5 9.5t-7.5 20.5l-52 75q-17 25 -22 29q-7 -7 -18 -24l-42 -66
q-16 -24 -15.5 -32.5t18.5 -11.5l17 -3q5 -4 4 -13.5t-6 -11.5q-37 3 -74 3q-34 0 -73 -3q-6 3 -6.5 12.5t4.5 12.5l23 4q26 4 50 30q12 12 46 59t43 58q12 14 3 26z" />
    <glyph glyph-name="y" unicode="y" horiz-adv-x="438" 
d="M68 -249q-21 0 -32.5 12t-11.5 31t11.5 29.5t28.5 10.5h19q22 0 33 18q39 61 58 111q10 27 10 43q0 21 -17 69l-78 214q-11 31 -15.5 41.5t-15.5 22t-28 14.5l-25 5q-5 4 -4 13.5t7 11.5q48 -3 95 -3q39 0 87 3q6 -2 6.5 -11.5t-4.5 -13.5l-25 -5q-22 -5 -22 -13
q0 -12 29 -94l32 -92q26 -70 29 -71q6 4 37 74l34 79q35 83 35 100q0 13 -24 17l-31 5q-5 4 -4.5 13.5t6.5 11.5q48 -3 88 -3q34 0 76 3q6 -3 6.5 -12t-4.5 -13l-17 -3q-24 -4 -41 -26.5t-44 -79.5l-56 -115q-76 -155 -164 -350q-21 -47 -64 -47z" />
    <glyph glyph-name="z" unicode="z" horiz-adv-x="377" 
d="M226 0h-90q-87 0 -105 -3q-6 3 -6 10q36 44 96 147l106 180q11 21 8.5 25.5t-17.5 4.5h-69q-50 0 -69 -15q-18 -14 -36 -58q-4 -5 -12.5 -3.5t-10.5 7.5q2 21 12.5 60.5t20.5 56.5q6 4 12 0q2 -12 14.5 -15t56.5 -3h142q46 0 61 3q6 -3 5 -10q-31 -43 -74 -114l-121 -203
q-16 -27 -13 -33.5t32 -6.5h34q90 0 118 30q12 14 32 58q5 3 12.5 1.5t9.5 -7.5q-15 -83 -37 -115q-50 3 -112 3z" />
    <glyph glyph-name="braceleft" unicode="{" horiz-adv-x="320" 
d="M216 375q0 -86 -75 -105v-4q75 -19 75 -105q0 -27 -9 -103q-10 -85 -10 -100q0 -37 17 -62.5t67 -33.5q4 -3 4 -9.5t-4 -10.5q-142 0 -142 126q0 35 8 107q7 61 7 99q0 16 -2 27t-10 24.5t-27 21.5t-48 10q-9 11 0 22q29 2 48 10t27 21.5t10 24.5t2 27t-7 100
q-8 93 -8 106q0 126 142 126q10 -10 0 -20q-50 -8 -67 -33.5t-17 -62.5q0 -32 10 -100q9 -61 9 -103z" />
    <glyph glyph-name="bar" unicode="|" horiz-adv-x="239" 
d="M149 750v-1000h-59v1000h59z" />
    <glyph glyph-name="braceright" unicode="}" horiz-adv-x="320" 
d="M104 375q0 42 9 103q10 68 10 100q0 37 -17 62.5t-67 33.5q-10 10 0 20q142 0 142 -126q0 -13 -8 -106q-7 -84 -7 -100t2 -27t10 -24.5t27 -21.5t48 -10q9 -11 0 -22q-29 -2 -48 -10t-27 -21.5t-10 -24.5t-2 -27q0 -38 7 -99q8 -72 8 -107q0 -126 -142 -126q-4 4 -4 10.5
t4 9.5q50 8 67 33.5t17 62.5q0 15 -10 100q-9 77 -9 103q0 86 75 105v4q-75 19 -75 105z" />
    <glyph glyph-name="asciitilde" unicode="~" horiz-adv-x="500" 
d="M322 180h-124q-37 0 -53 -12.5t-36 -52.5q-10 -4 -20 -0.5t-13 14.5q23 56 45 80q21 21 57 21h124q37 0 53 12.5t36 52.5q10 4 20 0.5t13 -14.5q-25 -63 -46 -82q-22 -19 -56 -19z" />
    <glyph glyph-name="exclamdown" unicode="&#xa1;" horiz-adv-x="220" 
d="M110 -266q-26 0 -37.5 5.5t-11.5 23.5q0 15 7 89l29 323q5 5 13.5 5t12.5 -5l29 -323q7 -74 7 -89q0 -18 -11.5 -23.5t-37.5 -5.5zM110 280q-23 0 -39.5 15t-16.5 40t16 42t40 17q25 0 40.5 -17t15.5 -42q0 -24 -15.5 -39.5t-40.5 -15.5z" />
    <glyph glyph-name="cent" unicode="&#xa2;" horiz-adv-x="500" 
d="M314 490l-40 -333q16 -4 40 -4q63 0 115 56q7 1 12 -3t4 -9q-56 -91 -177 -91l-12 -102q-17 -10 -33 0l13 105q-75 9 -123 61t-48 135q0 96 62.5 154.5t158.5 66.5l10 86q17 9 33 0l-10 -84q31 0 80 -11q22 -19 22 -51q0 -14 -4 -24.5t-8 -10.5q-6 0 -14 9q-32 38 -81 50
zM243 166l39 327q-64 1 -106 -41.5t-42 -114.5q0 -53 27.5 -101t81.5 -70z" />
    <glyph glyph-name="sterling" unicode="&#xa3;" horiz-adv-x="500" 
d="M34 333h81q10 0 12.5 1.5t1.5 7.5q-1 17 -1 59q0 104 60 171.5t153 67.5q36 0 56 -15q11 -10 11 -23q0 -14 -10.5 -28t-18.5 -14q-5 0 -15 7q-39 31 -68 31q-38 0 -66 -37t-28 -103q0 -30 7 -110q1 -10 4 -12.5t16 -2.5h147q7 -5 7 -16.5t-7 -15.5h-146q-13 0 -17 -2.5
t-4 -11.5q0 -126 -95 -207l1 -2q37 5 80 -1q22 -3 88 -31q61 -26 92 -26q50 0 39 72q-3 17 4 26t20 9q15 0 25.5 -13.5t10.5 -31.5q0 -40 -47 -76t-110 -36q-37 0 -109 39q-68 37 -103 37q-34 0 -34 -33q0 -10 -14 -18.5t-24 -8.5q-18 0 -18 18q0 26 48 65q69 59 69 218
q0 9 -2.5 11.5t-13.5 2.5h-82q-6 5 -6 16t6 16z" />
    <glyph glyph-name="currency" unicode="&#xa4;" horiz-adv-x="500" 
d="M251 493q-64 0 -111.5 -49.5t-47.5 -118.5q0 -71 47.5 -119.5t111.5 -48.5q63 0 111 49t48 119q0 69 -48 118.5t-111 49.5zM251 539q70 0 125 -40l41 51q18 -5 32.5 -19t16.5 -29l-45 -45q46 -56 46 -132t-46 -132l45 -45q-2 -15 -16.5 -29t-32.5 -19l-41 51
q-55 -40 -125 -40t-125 40l-41 -51q-18 5 -32.5 19t-16.5 29l45 45q-46 56 -46 132t46 132l-45 45q2 15 16.5 29t32.5 19l41 -51q55 40 125 40z" />
    <glyph glyph-name="yen" unicode="&#xa5;" horiz-adv-x="500" 
d="M449 209h-151v-86q0 -61 7 -78.5t36 -20.5l37 -4q5 -4 4 -12.5t-6 -10.5q-54 3 -116 3q-58 0 -112 -3q-5 2 -6 10.5t4 12.5l37 4q30 4 36.5 21t6.5 78v86h-152q-5 5 -5 16t5 16h150v81h-150q-5 4 -5 16t5 16h136l-102 173q-26 44 -39 58t-41 20l-21 5q-4 4 -3.5 11
t6.5 10q37 -3 108 -3q57 0 95 3q5 -2 5.5 -9.5t-3.5 -11.5l-38 -7q-20 -4 -20 -15q0 -7 35 -71l51 -91q31 -56 33 -56q10 0 31 39l38 70q52 98 52 106q0 14 -23 18l-38 7q-5 4 -4 11.5t7 9.5q45 -3 94 -3q37 0 75 3q5 -3 5.5 -10t-3.5 -11l-24 -5q-20 -4 -37 -25.5
t-47 -72.5l-89 -153h136q5 -4 5 -16t-5 -16h-149v-81h149q5 -4 5 -15.5t-5 -16.5z" />
    <glyph glyph-name="brokenbar" unicode="&#xa6;" horiz-adv-x="239" 
d="M149 675v-350h-59v350h59zM149 175v-350h-59v350h59z" />
    <glyph glyph-name="section" unicode="&#xa7;" horiz-adv-x="506" 
d="M185 -124q-35 0 -57.5 14t-22.5 36q0 14 9.5 25t25.5 11q14 0 25 -9q42 -35 85 -35q25 0 47 17t22 45q0 10 -2.5 20t-9 22t-11.5 21t-16.5 23t-18 22t-21 23t-20 20.5l-21.5 21.5l-19 19q-65 65 -97.5 118t-32.5 124q0 93 81 177.5t185 84.5q38 0 57.5 -14.5t19.5 -31.5
q0 -11 -9.5 -21.5t-23.5 -10.5q-17 0 -28 8q-43 29 -82 29q-25 0 -42 -16.5t-17 -43.5q0 -36 29 -73t113 -114q64 -59 93.5 -113.5t29.5 -119.5q0 -99 -79.5 -189t-191.5 -90zM225 224q78 -79 106 -125t28 -104q48 43 48 116q0 65 -29.5 116t-92.5 111q-81 77 -107.5 121.5
t-26.5 105.5q-52 -44 -52 -107q0 -21 3 -39.5t14.5 -48t39 -67t69.5 -79.5z" />
    <glyph glyph-name="dieresis" unicode="&#xa8;" 
d="M93 512q-21 0 -34.5 13t-14.5 36q-1 22 13 37t36 15q21 0 35.5 -14.5t14.5 -33.5q0 -23 -14 -38t-36 -15zM268 512q-21 0 -35.5 13.5t-15.5 36.5q0 21 14.5 36t36.5 15q21 0 34.5 -14.5t13.5 -32.5q0 -24 -13.5 -39t-34.5 -15z" />
    <glyph glyph-name="copyright" unicode="&#xa9;" horiz-adv-x="790" 
d="M280 334q0 -79 41 -127t108 -48q81 0 123 95q12 10 20 -3q-2 -20 -10 -50.5t-17 -45.5q-73 -23 -122 -23q-104 0 -161 58t-57 138q0 89 64 145t160 56q24 0 50.5 -3.5t46.5 -8t24 -4.5q3 -17 6.5 -48.5t5.5 -44.5q-3 -5 -10 -6t-11 3q-27 85 -118 85q-68 0 -105.5 -47.5
t-37.5 -120.5zM395 -16q-149 0 -249.5 100.5t-100.5 245.5t100.5 245.5t249.5 100.5t249.5 -100.5t100.5 -245.5t-100.5 -245.5t-249.5 -100.5zM102 331q0 -130 84.5 -219t208.5 -89t208.5 89t84.5 219q0 129 -84.5 217.5t-208.5 88.5t-208.5 -88.5t-84.5 -217.5z" />
    <glyph glyph-name="ordfeminine" unicode="&#xaa;" horiz-adv-x="332" 
d="M201 428v12q0 33 -10.5 51.5t-42.5 18.5q-39 0 -45 -31q-4 -21 -9 -26q-7 -5 -23 -11t-22 -6q-14 0 -14 13q0 23 30 46q56 45 115 45q47 0 65.5 -22.5t16.5 -63.5l-5 -122q-2 -56 34 -56q14 0 29 10q6 0 8.5 -5t-0.5 -9q-31 -32 -72 -32q-25 0 -46 20q-9 9 -15 9
q-5 0 -16 -6q-42 -23 -70 -23q-38 0 -57 20t-19 50q0 38 39 55q27 10 64 23t43 15q22 8 22 25zM196 316l2 52q0 7 -1.5 10t-6.5 3t-10 -1.5t-17 -5.5q-2 -1 -9 -3t-10 -3t-9 -4t-9.5 -5t-8.5 -5t-7.5 -6.5t-5.5 -8t-4 -10t-1 -11.5q0 -15 11 -29t34 -14q28 0 44 16
q8 10 8 25z" />
    <glyph glyph-name="guillemotleft" unicode="&#xab;" horiz-adv-x="378" 
d="M188 358l-70 -140q-5 -12 0 -24l70 -142q-4 -10 -17 -13q-102 131 -119 151q-13 16 0 31q28 33 119 150q13 -2 17 -13zM333 358l-70 -140q-5 -12 0 -24l70 -142q-4 -10 -17 -13q-102 131 -119 151q-13 16 0 31q28 33 119 150q13 -2 17 -13z" />
    <glyph glyph-name="logicalnot" unicode="&#xac;" horiz-adv-x="500" 
d="M408 50v206h-375v49h434v-255h-59z" />
    <glyph glyph-name="registered" unicode="&#xae;" horiz-adv-x="320" 
d="M118 522v57q0 19 -11 20h-4q-2 3 -1.5 6.5t2.5 4.5q42 2 56 2q50 0 50 -34q0 -19 -18 -28q-3 -1 0 -7q16 -34 25 -40q7 -5 9 -6q2 0 2 -3t-2 -4q-5 -1 -14 -1q-24 0 -37 21q-1 2 -14 25q-3 6 -9 6t-6 -5v-14q0 -12 2 -16t12 -5l3 -1q1 -1 1 -5t-1 -5q-5 0 -14.5 0.5
t-15.5 0.5t-15.5 -0.5t-13.5 -0.5q-2 1 -2.5 5t1.5 5l4 1q8 2 9.5 5.5t1.5 15.5zM146 590v-30q0 -5 2 -6t10 -1q20 0 20 20q0 25 -19 25q-13 0 -13 -8zM160 677q54 0 92 -37t38 -90t-38 -90t-92 -37t-92 37t-38 90t38 90t92 37zM160 655q-41 0 -70 -30.5t-29 -74.5
q0 -43 29 -74t70 -31t70 31t29 74q0 44 -29 74.5t-70 30.5z" />
    <glyph glyph-name="macron" unicode="&#xaf;" 
d="M283 524h-204q-8 10 -8 28t8 29h204q7 -11 7 -29t-7 -28z" />
    <glyph glyph-name="macron" unicode="&#x2c9;" 
d="M283 524h-204q-8 10 -8 28t8 29h204q7 -11 7 -29t-7 -28z" />
    <glyph glyph-name="degree" unicode="&#xb0;" horiz-adv-x="302" 
d="M151 640q51 0 86 -32.5t35 -83.5q0 -54 -34.5 -85t-86.5 -31t-86.5 31t-34.5 85q0 51 35 83.5t86 32.5zM151 609q-30 0 -50 -23.5t-20 -61.5t20 -61.5t50 -23.5t50 23.5t20 61.5t-20 61.5t-50 23.5z" />
    <glyph glyph-name="plusminus" unicode="&#xb1;" horiz-adv-x="500" 
d="M443 49v-49h-385v49h385zM280 84h-59v170h-163v49h163v163h59v-163h163v-49h-163v-170z" />
    <glyph glyph-name="twosuperior" unicode="&#xb2;" 
d="M148 363h71q39 0 59.5 6.5t35.5 29.5q13 5 19 -7q-5 -10 -11 -25t-10 -23.5t-8.5 -17.5t-9.5 -13q-50 2 -113 2h-72q-45 0 -75 -2q-5 5 -5 7q0 6 2 9q43 27 104 88q92 92 92 166q0 39 -20.5 61.5t-54.5 22.5q-53 0 -90 -63q-6 -4 -12.5 -0.5t-6.5 9.5q41 95 139 95
q54 0 86 -28.5t32 -74.5q0 -62 -76 -138l-56 -56q-34 -34 -34 -40q0 -8 14 -8z" />
    <glyph glyph-name="threesuperior" unicode="&#xb3;" 
d="M254 427q0 37 -20.5 63t-62.5 26q-41 0 -72 -29q-18 9 -13 27q79 33 106 51q31 21 31 56q0 25 -15.5 39t-37.5 14q-49 0 -85 -58q-13 -1 -17 11q19 38 53 59.5t76 21.5t69 -21t27 -50q0 -23 -16 -42t-57 -38q-3 -5 -0.5 -7.5t8.5 -2.5q40 0 69 -26t29 -69q0 -72 -69 -123
q-72 -53 -144 -53q-71 0 -71 39q0 14 9.5 23t23.5 9q16 0 33 -26q11 -18 32 -18q36 0 75 34.5t39 89.5z" />
    <glyph glyph-name="acute" unicode="&#xb4;" 
d="M275 596l-125 -130q-15 -2 -17 11l86 163q13 24 24 24q13 0 31 -15q17 -14 17 -26q0 -11 -16 -27z" />
    <glyph glyph-name="mu" unicode="&#xb5;" horiz-adv-x="512" 
d="M159 314v-167q0 -57 20 -86t73 -29q46 0 81 30q20 18 20 53v169q0 33 -3.5 47.5t-9.5 19.5t-24 12l-13 5q-5 3 -5 11t6 11q82 2 117 18q8 -2 9 -7q-3 -28 -3 -87v-168q0 -64 5.5 -86.5t25.5 -22.5q16 0 39 5q5 -4 5 -15t-6 -14q-102 -21 -131 -37q-9 0 -12 7v41
q0 14 -9 14q-82 -52 -146 -52q-24 0 -56 14q-5 1 -7.5 -2.5t-2.5 -13.5v-57q0 -33 17 -82t17 -51q0 -16 -22.5 -39.5t-38.5 -23.5q-20 0 -20 31v516q0 50 -4 63t-26 22l-12 5q-5 4 -4 12t6 10q61 1 107 18q9 -1 10 -7q-3 -26 -3 -87z" />
    <glyph glyph-name="mu" unicode="&#x3bc;" horiz-adv-x="512" 
d="M159 314v-167q0 -57 20 -86t73 -29q46 0 81 30q20 18 20 53v169q0 33 -3.5 47.5t-9.5 19.5t-24 12l-13 5q-5 3 -5 11t6 11q82 2 117 18q8 -2 9 -7q-3 -28 -3 -87v-168q0 -64 5.5 -86.5t25.5 -22.5q16 0 39 5q5 -4 5 -15t-6 -14q-102 -21 -131 -37q-9 0 -12 7v41
q0 14 -9 14q-82 -52 -146 -52q-24 0 -56 14q-5 1 -7.5 -2.5t-2.5 -13.5v-57q0 -33 17 -82t17 -51q0 -16 -22.5 -39.5t-38.5 -23.5q-20 0 -20 31v516q0 50 -4 63t-26 22l-12 5q-5 4 -4 12t6 10q61 1 107 18q9 -1 10 -7q-3 -26 -3 -87z" />
    <glyph glyph-name="paragraph" unicode="&#xb6;" horiz-adv-x="500" 
d="M366 441v-464q0 -192 -118 -192q-34 0 -61 18t-27 55q0 38 29 52q16 0 32 -9.5t19 -20.5q-14 -17 -14 -34q0 -14 9.5 -22.5t23.5 -8.5t27 9t25 39.5t12 78.5v141q0 19 -5 25.5t-16 6.5q-104 0 -173.5 56.5t-69.5 149.5q0 108 73.5 163.5t204.5 55.5q93 0 121 -5
q4 -3 4 -10.5t-4 -10.5l-39 -7q-38 -7 -45.5 -17t-7.5 -49z" />
    <glyph glyph-name="periodcentered" unicode="&#xb7;" horiz-adv-x="250" 
d="M125 148q-23 0 -39.5 15t-16.5 40t16 42t40 17q25 0 40.5 -17t15.5 -42q0 -24 -15.5 -39.5t-40.5 -15.5z" />
    <glyph glyph-name="periodcentered" unicode="&#x2219;" horiz-adv-x="250" 
d="M125 148q-23 0 -39.5 15t-16.5 40t16 42t40 17q25 0 40.5 -17t15.5 -42q0 -24 -15.5 -39.5t-40.5 -15.5z" />
    <glyph glyph-name="cedilla" unicode="&#xb8;" 
d="M204 0h31l-34 -55q-7 -12 8 -21q41 -27 41 -63q0 -33 -28 -55.5t-64 -22.5q-51 0 -51 31q0 8 6 15.5t16 7.5q9 0 25 -13t21 -13q24 0 24 28q0 17 -15.5 33.5t-39.5 25.5v5z" />
    <glyph glyph-name="onesuperior" unicode="&#xb9;" 
d="M153 401v193q0 31 -5.5 43t-25.5 14l-31 3q-4 3 -4.5 9.5t3.5 9.5q49 8 122 35q7 0 7 -5q-2 -21 -2 -73v-229q0 -40 6.5 -50.5t35.5 -14.5l17 -2q4 -3 3.5 -11t-4.5 -10q-60 2 -92 2t-88 -2q-4 2 -4.5 10t3.5 11l17 2q29 4 35.5 14.5t6.5 50.5z" />
    <glyph glyph-name="ordmasculine" unicode="&#xba;" horiz-adv-x="387" 
d="M197 540q68 0 113 -41.5t45 -105.5q0 -67 -45.5 -110t-118.5 -43q-70 0 -114.5 41t-44.5 105q0 67 47 110.5t118 43.5zM189 514q-35 0 -59 -33t-24 -85t23.5 -91t68.5 -39q43 0 63 35t20 81q0 49 -23 90.5t-69 41.5z" />
    <glyph glyph-name="guillemotright" unicode="&#xbb;" horiz-adv-x="378" 
d="M115 218l-70 140q4 11 17 13q91 -117 119 -150q13 -15 0 -31q-17 -20 -119 -151q-13 3 -17 13l70 142q5 12 0 24zM260 218l-70 140q4 11 17 13q91 -117 119 -150q13 -15 0 -31q-17 -20 -119 -151q-13 3 -17 13l70 142q5 12 0 24z" />
    <glyph glyph-name="onequarter" unicode="&#xbc;" horiz-adv-x="780" 
d="M138 -14q281 426 436 668q21 0 31 -23q-210 -316 -440 -671q-25 0 -27 26zM110 333v193q0 31 -5.5 43t-25.5 14l-31 3q-4 3 -4.5 9.5t3.5 9.5q49 8 122 35q7 0 7 -5q-2 -21 -2 -73v-229q0 -40 6.5 -50.5t35.5 -14.5l17 -2q4 -3 3.5 -11t-4.5 -10q-60 2 -92 2t-88 -2
q-4 2 -4.5 10t3.5 11l17 2q29 4 35.5 14.5t6.5 50.5zM475 145h90q12 0 15 2.5t3 13.5v109q0 8 6 12q20 11 46 11q11 0 11 -19v-115q0 -9 2.5 -11.5t12.5 -2.5h37q6 -4 6 -14.5t-6 -14.5h-33q-13 0 -16 -2.5t-3 -13.5v-14q0 -44 5 -53t34 -12l18 -2q3 -4 2.5 -11.5t-4.5 -9.5
q-42 2 -86 2q-63 0 -89 -2q-4 2 -5 9.5t3 11.5l18 2q30 4 35.5 13.5t5.5 51.5v12q0 12 -3 15t-16 3h-155q-9 0 -9 10q0 8 9 20l213 274q9 12 21 12q22 0 22 -5q0 -2 -2 -6l-206 -264q-5 -9 -2 -10.5t20 -1.5z" />
    <glyph glyph-name="onehalf" unicode="&#xbd;" horiz-adv-x="780" 
d="M130 -14q281 426 436 668q21 0 31 -23q-210 -316 -440 -671q-25 0 -27 26zM117 333v193q0 31 -5.5 43t-25.5 14l-31 3q-4 3 -4.5 9.5t3.5 9.5q49 8 122 35q7 0 7 -5q-2 -21 -2 -73v-229q0 -40 6.5 -50.5t35.5 -14.5l17 -2q4 -3 3.5 -11t-4.5 -10q-60 2 -92 2t-88 -2
q-4 2 -4.5 10t3.5 11l17 2q29 4 35.5 14.5t6.5 50.5zM563 48h71q39 0 59.5 6.5t35.5 29.5q13 5 19 -7q-5 -10 -11 -25t-10 -23.5t-8.5 -17.5t-9.5 -13q-50 2 -113 2h-72q-45 0 -75 -2q-5 5 -5 7q0 6 2 9q43 27 104 88q92 92 92 166q0 39 -20.5 61.5t-54.5 22.5
q-53 0 -90 -63q-6 -4 -12.5 -0.5t-6.5 9.5q41 95 139 95q54 0 86 -28.5t32 -74.5q0 -62 -76 -138l-56 -56q-34 -34 -34 -40q0 -8 14 -8z" />
    <glyph glyph-name="threequarters" unicode="&#xbe;" horiz-adv-x="780" 
d="M173 -14q281 426 436 668q21 0 31 -23q-210 -316 -440 -671q-25 0 -27 26zM249 359q0 37 -20.5 63t-62.5 26q-41 0 -72 -29q-18 9 -13 27q79 33 106 51q31 21 31 56q0 25 -15.5 39t-37.5 14q-49 0 -85 -58q-13 -1 -17 11q19 38 53 59.5t76 21.5t69 -21t27 -50
q0 -23 -16 -42t-57 -38q-3 -5 -0.5 -7.5t8.5 -2.5q40 0 69 -26t29 -69q0 -72 -69 -123q-72 -53 -144 -53q-71 0 -71 39q0 14 9.5 23t23.5 9q16 0 33 -26q11 -18 32 -18q36 0 75 34.5t39 89.5zM495 145h90q12 0 15 2.5t3 13.5v109q0 8 6 12q20 11 46 11q11 0 11 -19v-115
q0 -9 2.5 -11.5t12.5 -2.5h37q6 -4 6 -14.5t-6 -14.5h-33q-13 0 -16 -2.5t-3 -13.5v-14q0 -44 5 -53t34 -12l18 -2q3 -4 2.5 -11.5t-4.5 -9.5q-42 2 -86 2q-63 0 -89 -2q-4 2 -5 9.5t3 11.5l18 2q30 4 35.5 13.5t5.5 51.5v12q0 12 -3 15t-16 3h-155q-9 0 -9 10q0 8 9 20
l213 274q9 12 21 12q22 0 22 -5q0 -2 -2 -6l-206 -264q-5 -9 -2 -10.5t20 -1.5z" />
    <glyph glyph-name="questiondown" unicode="&#xbf;" horiz-adv-x="321" 
d="M217 -266q-62 0 -117 63t-55 141q0 37 12 59.5t26 30.5l79 42q35 18 35 44q0 18 -10 58q3 6 10 7.5t11 -2.5q36 -59 36 -99q0 -28 -13 -42.5t-41 -29.5l-49 -26q-55 -29 -55 -73q0 -39 22 -61q32 -32 116 -32q9 0 21 -12.5t12 -29.5q0 -16 -10.5 -27t-29.5 -11zM196 280
q-23 0 -39.5 15t-16.5 40t16 42t40 17q25 0 40.5 -17t15.5 -42q0 -24 -15.5 -39.5t-40.5 -15.5z" />
    <glyph glyph-name="Agrave" unicode="&#xc0;" horiz-adv-x="623" 
d="M451 96l-44 136q-5 17 -12 21t-29 4h-151q-19 0 -26 -4t-12 -20l-35 -105q-22 -66 -22 -83q0 -18 29 -20l33 -3q5 -4 5 -13t-7 -12q-14 1 -104 3q-15 0 -96 -3q-5 3 -5.5 12t3.5 13l33 3q42 4 60 49q5 14 20 49.5t32 79.5t36 94l102 270q20 53 17 71q26 8 52 38
q12 0 15 -9q11 -37 44 -134l137 -402q22 -64 37.5 -83t47.5 -23l27 -3q5 -4 4.5 -13t-4.5 -12q-62 3 -121 3q-28 0 -115 -3q-6 3 -6.5 12t4.5 13l29 3q35 3 35 18q0 14 -13 53zM272 495l-63 -174q-6 -17 -3 -20.5t24 -3.5h123q22 0 25.5 5.5t-3.5 25.5l-54 163
q-17 51 -23 63h-2q-6 -10 -24 -59zM359 706l-167 72q-21 9 -25 16q-8 16 8 40t26 24q7 0 27 -13l141 -115q2 -8 -1 -15t-9 -9z" />
    <glyph glyph-name="Aacute" unicode="&#xc1;" horiz-adv-x="623" 
d="M451 96l-44 136q-5 17 -12 21t-29 4h-151q-19 0 -26 -4t-12 -20l-35 -105q-22 -66 -22 -83q0 -18 29 -20l33 -3q5 -4 5 -13t-7 -12q-14 1 -104 3q-15 0 -96 -3q-5 3 -5.5 12t3.5 13l33 3q42 4 60 49q5 14 20 49.5t32 79.5t36 94l102 270q20 53 17 71q26 8 52 38
q12 0 15 -9q11 -37 44 -134l137 -402q22 -64 37.5 -83t47.5 -23l27 -3q5 -4 4.5 -13t-4.5 -12q-62 3 -121 3q-28 0 -115 -3q-6 3 -6.5 12t4.5 13l29 3q35 3 35 18q0 14 -13 53zM272 495l-63 -174q-6 -17 -3 -20.5t24 -3.5h123q22 0 25.5 5.5t-3.5 25.5l-54 163
q-17 51 -23 63h-2q-6 -10 -24 -59zM433 773l-167 -72q-6 2 -9 9t-1 15l141 115q19 13 27 13q16 0 28 -23q13 -25 7 -41q-7 -8 -26 -16z" />
    <glyph glyph-name="Acircumflex" unicode="&#xc2;" horiz-adv-x="623" 
d="M451 96l-44 136q-5 17 -12 21t-29 4h-151q-19 0 -26 -4t-12 -20l-35 -105q-22 -66 -22 -83q0 -18 29 -20l33 -3q5 -4 5 -13t-7 -12q-14 1 -104 3q-15 0 -96 -3q-5 3 -5.5 12t3.5 13l33 3q42 4 60 49q5 14 20 49.5t32 79.5t36 94l102 270q20 53 17 71q26 8 52 38
q12 0 15 -9q11 -37 44 -134l137 -402q22 -64 37.5 -83t47.5 -23l27 -3q5 -4 4.5 -13t-4.5 -12q-62 3 -121 3q-28 0 -115 -3q-6 3 -6.5 12t4.5 13l29 3q35 3 35 18q0 14 -13 53zM272 495l-63 -174q-6 -17 -3 -20.5t24 -3.5h123q22 0 25.5 5.5t-3.5 25.5l-54 163
q-17 51 -23 63h-2q-6 -10 -24 -59zM182 717l122 115q20 20 42 0l122 -115q0 -18 -12 -20l-116 59q-16 8 -32 0l-113 -59q-13 0 -13 20z" />
    <glyph glyph-name="Atilde" unicode="&#xc3;" horiz-adv-x="623" 
d="M451 96l-44 136q-5 17 -12 21t-29 4h-151q-19 0 -26 -4t-12 -20l-35 -105q-22 -66 -22 -83q0 -18 29 -20l33 -3q5 -4 5 -13t-7 -12q-14 1 -104 3q-15 0 -96 -3q-5 3 -5.5 12t3.5 13l33 3q42 4 60 49q5 14 20 49.5t32 79.5t36 94l102 270q20 53 17 71q26 8 52 38
q12 0 15 -9q11 -37 44 -134l137 -402q22 -64 37.5 -83t47.5 -23l27 -3q5 -4 4.5 -13t-4.5 -12q-62 3 -121 3q-28 0 -115 -3q-6 3 -6.5 12t4.5 13l29 3q35 3 35 18q0 14 -13 53zM272 495l-63 -174q-6 -17 -3 -20.5t24 -3.5h123q22 0 25.5 5.5t-3.5 25.5l-54 163
q-17 51 -23 63h-2q-6 -10 -24 -59zM283 788h61q32 0 46.5 7.5t33.5 33.5q12 8 17 -5q-12 -52 -39 -78q-17 -16 -51 -16h-56q-34 0 -51 -12t-33 -41q-4 -3 -11 -2t-9 6q3 16 15.5 45t23.5 39q20 23 53 23z" />
    <glyph glyph-name="Adieresis" unicode="&#xc4;" horiz-adv-x="623" 
d="M451 96l-44 136q-5 17 -12 21t-29 4h-151q-19 0 -26 -4t-12 -20l-35 -105q-22 -66 -22 -83q0 -18 29 -20l33 -3q5 -4 5 -13t-7 -12q-14 1 -104 3q-15 0 -96 -3q-5 3 -5.5 12t3.5 13l33 3q42 4 60 49q5 14 20 49.5t32 79.5t36 94l102 270q20 53 17 71q26 8 52 38
q12 0 15 -9q11 -37 44 -134l137 -402q22 -64 37.5 -83t47.5 -23l27 -3q5 -4 4.5 -13t-4.5 -12q-62 3 -121 3q-28 0 -115 -3q-6 3 -6.5 12t4.5 13l29 3q35 3 35 18q0 14 -13 53zM272 495l-63 -174q-6 -17 -3 -20.5t24 -3.5h123q22 0 25.5 5.5t-3.5 25.5l-54 163
q-17 51 -23 63h-2q-6 -10 -24 -59zM224 695q-49 0 -49 51q-2 22 12 39t37 17q22 0 36.5 -16.5t14.5 -37.5q0 -22 -14 -37.5t-37 -15.5zM420 695q-50 0 -52 51q0 23 14.5 39.5t37.5 16.5q22 0 35 -16.5t13 -37.5q0 -23 -13 -38t-35 -15z" />
    <glyph glyph-name="Aring" unicode="&#xc5;" horiz-adv-x="623" 
d="M451 96l-44 136q-5 17 -12 21t-29 4h-151q-19 0 -26 -4t-12 -20l-35 -105q-22 -66 -22 -83q0 -18 29 -20l33 -3q5 -4 5 -13t-7 -12q-14 1 -104 3q-15 0 -96 -3q-5 3 -5.5 12t3.5 13l33 3q42 4 60 49q5 14 20 49.5t32 79.5t36 94l102 270q20 53 17 71q26 8 52 38
q12 0 15 -9q11 -37 44 -134l137 -402q22 -64 37.5 -83t47.5 -23l27 -3q5 -4 4.5 -13t-4.5 -12q-62 3 -121 3q-28 0 -115 -3q-6 3 -6.5 12t4.5 13l29 3q35 3 35 18q0 14 -13 53zM272 495l-63 -174q-6 -17 -3 -20.5t24 -3.5h123q22 0 25.5 5.5t-3.5 25.5l-54 163
q-17 51 -23 63h-2q-6 -10 -24 -59zM316 868q36 0 60.5 -24t24.5 -57t-24 -57t-61 -24t-61 24t-24 57t24.5 57t60.5 24zM271 787q0 -23 13 -38t32 -15q20 0 32.5 15t12.5 38t-13 37.5t-32 14.5t-32 -15t-13 -37z" />
    <glyph glyph-name="AE" unicode="&#xc6;" horiz-adv-x="850" 
d="M363 660h262q123 0 135 3q5 -14 16 -132q-3 -5 -12 -6t-13 3q-18 57 -33 73q-16 17 -43 23q-21 5 -97 5h-72q-21 0 -25 -5.5t-4 -34.5v-200q0 -20 5 -24t28 -4h58q67 0 85 6t24 35l8 41q4 5 13.5 4.5t12.5 -5.5q0 -10 -2 -45t-2 -56q0 -20 2 -53.5t2 -42.5
q-3 -5 -12.5 -5.5t-13.5 4.5l-9 39q-7 32 -31 38q-17 5 -77 5h-58q-23 0 -28 -4t-5 -23v-141q0 -84 18 -104q23 -23 122 -23t127 15q31 17 71 97q4 4 13 2t12 -9q-15 -76 -45 -139q-135 3 -268 3h-92q-45 0 -133 -3q-5 2 -5.5 11t3.5 14l34 3q41 4 51 24.5t10 100.5v147
q0 22 -5.5 25.5t-38.5 3.5h-82q-31 0 -39 -5.5t-26 -38.5q-66 -123 -101 -212q-9 -21 -6 -29t21 -11l54 -8q4 -5 4 -13.5t-5 -11.5q-60 3 -110 3q-22 0 -57.5 -1.5t-45.5 -1.5q-6 3 -7 12t6 13l31 5q19 3 33.5 17.5t36.5 54.5q100 183 243 461q24 45 24 57q0 9 -22 12l-60 9
q-5 5 -4 14t7 11q71 -3 117 -3zM284 361h67q33 0 38.5 4t5.5 28v195q0 31 -6 36h-5q-8 -4 -23 -31q-53 -101 -106 -210q-8 -16 -4 -19t33 -3z" />
    <glyph glyph-name="Ccedilla" unicode="&#xc7;" horiz-adv-x="696" 
d="M364 -102l54 87q-138 2 -232 66q-64 43 -103 113t-39 162q0 81 34 150.5t92 114.5q109 85 270 85q90 0 177 -24q20 -5 28 -4q3 -60 14 -147q-4 -5 -13 -6t-14 4q-32 146 -205 146q-122 0 -202.5 -78t-80.5 -226q0 -152 84.5 -239t212.5 -87q86 0 136.5 43t72.5 100
q5 4 14 2.5t12 -6.5q-5 -37 -20.5 -79.5t-27.5 -57.5q-14 -2 -35 -10q-59 -21 -142 -22l-27 -43q-7 -11 8 -22q43 -29 43 -66q0 -34 -29.5 -58t-66.5 -24q-26 0 -40 9t-14 24q0 8 6.5 16t16.5 8t26.5 -13.5t22.5 -13.5q25 0 25 29q0 18 -16.5 35t-41.5 27v5z" />
    <glyph glyph-name="Egrave" unicode="&#xc8;" horiz-adv-x="584" 
d="M128 150v360q0 81 -9 101t-52 25l-16 2q-4 3 -3.5 13t5.5 12q65 -3 118 -3h188q123 0 135 3q5 -15 16 -133q-3 -5 -12 -5.5t-13 3.5q-7 21 -9 27.5t-9 21.5t-13.5 21t-18 13.5t-26.5 11.5q-25 6 -97 6h-72q-22 0 -26 -5.5t-4 -34.5v-200q0 -20 5 -24t28 -4h58q67 0 85 6
t24 35l8 41q4 5 13.5 4.5t12.5 -5.5q0 -10 -2 -45t-2 -56q0 -20 2 -53.5t2 -42.5q-3 -5 -12.5 -5.5t-13.5 4.5l-9 39q-7 32 -31 38q-18 5 -77 5h-58q-23 0 -28 -4t-5 -23v-141q0 -84 19 -104q23 -23 121 -23t128 15q31 17 71 97q5 4 13.5 2t11.5 -9q-16 -78 -45 -139
q-135 3 -268 3h-90q-47 0 -136 -3q-5 2 -5.5 11t3.5 14l33 3q42 4 52 24.5t10 100.5zM334 705l-167 72q-21 9 -25 16q-8 15 6 41q12 23 28 23q7 0 27 -13l141 -115q2 -8 -1 -15t-9 -9z" />
    <glyph glyph-name="Eacute" unicode="&#xc9;" horiz-adv-x="584" 
d="M128 150v360q0 81 -9 101t-52 25l-16 2q-4 3 -3.5 13t5.5 12q65 -3 118 -3h188q123 0 135 3q5 -15 16 -133q-3 -5 -12 -5.5t-13 3.5q-7 21 -9 27.5t-9 21.5t-13.5 21t-18 13.5t-26.5 11.5q-25 6 -97 6h-72q-22 0 -26 -5.5t-4 -34.5v-200q0 -20 5 -24t28 -4h58q67 0 85 6
t24 35l8 41q4 5 13.5 4.5t12.5 -5.5q0 -10 -2 -45t-2 -56q0 -20 2 -53.5t2 -42.5q-3 -5 -12.5 -5.5t-13.5 4.5l-9 39q-7 32 -31 38q-18 5 -77 5h-58q-23 0 -28 -4t-5 -23v-141q0 -84 19 -104q23 -23 121 -23t128 15q31 17 71 97q5 4 13.5 2t11.5 -9q-16 -78 -45 -139
q-135 3 -268 3h-90q-47 0 -136 -3q-5 2 -5.5 11t3.5 14l33 3q42 4 52 24.5t10 100.5zM423 778l-167 -72q-6 2 -9 9t-1 15l141 115q19 13 27 13q16 0 28 -23q13 -25 7 -41q-7 -8 -26 -16z" />
    <glyph glyph-name="Ecircumflex" unicode="&#xca;" horiz-adv-x="584" 
d="M128 150v360q0 81 -9 101t-52 25l-16 2q-4 3 -3.5 13t5.5 12q65 -3 118 -3h188q123 0 135 3q5 -15 16 -133q-3 -5 -12 -5.5t-13 3.5q-7 21 -9 27.5t-9 21.5t-13.5 21t-18 13.5t-26.5 11.5q-25 6 -97 6h-72q-22 0 -26 -5.5t-4 -34.5v-200q0 -20 5 -24t28 -4h58q67 0 85 6
t24 35l8 41q4 5 13.5 4.5t12.5 -5.5q0 -10 -2 -45t-2 -56q0 -20 2 -53.5t2 -42.5q-3 -5 -12.5 -5.5t-13.5 4.5l-9 39q-7 32 -31 38q-18 5 -77 5h-58q-23 0 -28 -4t-5 -23v-141q0 -84 19 -104q23 -23 121 -23t128 15q31 17 71 97q5 4 13.5 2t11.5 -9q-16 -78 -45 -139
q-135 3 -268 3h-90q-47 0 -136 -3q-5 2 -5.5 11t3.5 14l33 3q42 4 52 24.5t10 100.5zM156 727l122 115q20 20 42 0l122 -115q0 -18 -12 -20l-116 59q-16 8 -32 0l-113 -59q-13 0 -13 20z" />
    <glyph glyph-name="Edieresis" unicode="&#xcb;" horiz-adv-x="584" 
d="M128 150v360q0 81 -9 101t-52 25l-16 2q-4 3 -3.5 13t5.5 12q65 -3 118 -3h188q123 0 135 3q5 -15 16 -133q-3 -5 -12 -5.5t-13 3.5q-7 21 -9 27.5t-9 21.5t-13.5 21t-18 13.5t-26.5 11.5q-25 6 -97 6h-72q-22 0 -26 -5.5t-4 -34.5v-200q0 -20 5 -24t28 -4h58q67 0 85 6
t24 35l8 41q4 5 13.5 4.5t12.5 -5.5q0 -10 -2 -45t-2 -56q0 -20 2 -53.5t2 -42.5q-3 -5 -12.5 -5.5t-13.5 4.5l-9 39q-7 32 -31 38q-18 5 -77 5h-58q-23 0 -28 -4t-5 -23v-141q0 -84 19 -104q23 -23 121 -23t128 15q31 17 71 97q5 4 13.5 2t11.5 -9q-16 -78 -45 -139
q-135 3 -268 3h-90q-47 0 -136 -3q-5 2 -5.5 11t3.5 14l33 3q42 4 52 24.5t10 100.5zM196 709q-49 0 -49 51q-2 22 12 39t37 17q22 0 36.5 -16.5t14.5 -37.5q0 -22 -14 -37.5t-37 -15.5zM394 709q-50 0 -52 51q0 23 14.5 39.5t37.5 16.5q22 0 35 -16.5t13 -37.5
q0 -23 -13 -38t-35 -15z" />
    <glyph glyph-name="Igrave" unicode="&#xcc;" horiz-adv-x="338" 
d="M128 152v356q0 83 -9 103.5t-52 24.5l-25 2q-4 3 -3.5 13t5.5 12q75 -3 126 -3q49 0 124 3q5 -2 5.5 -12t-3.5 -13l-25 -2q-43 -4 -52 -24.5t-9 -103.5v-356q0 -82 9 -102t52 -25l25 -3q4 -3 3.5 -13t-5.5 -12q-75 3 -124 3q-51 0 -126 -3q-5 2 -5.5 11t3.5 14l25 3
q43 5 52 25t9 102zM206 706l-167 72q-19 8 -26 16q-6 16 7 41q12 23 28 23q8 0 27 -13l141 -115q2 -8 -1 -15t-9 -9z" />
    <glyph glyph-name="Iacute" unicode="&#xcd;" horiz-adv-x="338" 
d="M128 152v356q0 83 -9 103.5t-52 24.5l-25 2q-4 3 -3.5 13t5.5 12q75 -3 126 -3q49 0 124 3q5 -2 5.5 -12t-3.5 -13l-25 -2q-43 -4 -52 -24.5t-9 -103.5v-356q0 -82 9 -102t52 -25l25 -3q4 -3 3.5 -13t-5.5 -12q-75 3 -124 3q-51 0 -126 -3q-5 2 -5.5 11t3.5 14l25 3
q43 5 52 25t9 102zM300 778l-167 -72q-6 2 -9 9t-1 15l141 114q19 14 27 14q17 0 28 -23q13 -25 7 -41q-7 -8 -26 -16z" />
    <glyph glyph-name="Icircumflex" unicode="&#xce;" horiz-adv-x="338" 
d="M128 152v356q0 83 -9 103.5t-52 24.5l-25 2q-4 3 -3.5 13t5.5 12q75 -3 126 -3q49 0 124 3q5 -2 5.5 -12t-3.5 -13l-25 -2q-43 -4 -52 -24.5t-9 -103.5v-356q0 -82 9 -102t52 -25l25 -3q4 -3 3.5 -13t-5.5 -12q-75 3 -124 3q-51 0 -126 -3q-5 2 -5.5 11t3.5 14l25 3
q43 5 52 25t9 102zM32 727l122 115q20 20 42 0l122 -115q0 -18 -12 -20l-116 59q-16 8 -32 0l-113 -59q-13 0 -13 20z" />
    <glyph glyph-name="Idieresis" unicode="&#xcf;" horiz-adv-x="338" 
d="M128 152v356q0 83 -9 103.5t-52 24.5l-25 2q-4 3 -3.5 13t5.5 12q75 -3 126 -3q49 0 124 3q5 -2 5.5 -12t-3.5 -13l-25 -2q-43 -4 -52 -24.5t-9 -103.5v-356q0 -82 9 -102t52 -25l25 -3q4 -3 3.5 -13t-5.5 -12q-75 3 -124 3q-51 0 -126 -3q-5 2 -5.5 11t3.5 14l25 3
q43 5 52 25t9 102zM84 705q-49 0 -49 51q-2 22 12 39t37 17q22 0 36.5 -16.5t14.5 -37.5q0 -22 -14 -37.5t-37 -15.5zM270 705q-50 0 -52 51q0 23 14.5 39.5t37.5 16.5q22 0 35 -16.5t13 -37.5q0 -23 -13 -38t-35 -15z" />
    <glyph glyph-name="Eth" unicode="&#xd0;" horiz-adv-x="786" 
d="M128 150v176h-90q-7 5 -7 17.5t7 17.5h90v144q0 73 -8.5 97.5t-43.5 28.5l-17 2q-6 3 -6 12t7 12q170 6 255 6q137 0 216 -29q99 -36 151 -114.5t52 -179.5q0 -98 -45 -176t-130 -124q-89 -48 -224 -48q-36 0 -92.5 4t-70.5 4q-54 0 -125 -3q-5 2 -5.5 11t3.5 14l23 3
q43 6 51.5 25t8.5 100zM210 542v-181h184q7 -5 7 -17.5t-7 -17.5h-184v-153q0 -81 20 -109q29 -41 123 -41q141 0 211 84t70 229q0 36 -7 72.5t-28.5 78t-55 72.5t-91.5 52t-133 21q-80 0 -99 -14q-10 -8 -10 -76z" />
    <glyph glyph-name="Ntilde" unicode="&#xd1;" horiz-adv-x="783" 
d="M666 409v-239q0 -149 3 -175q-4 -11 -19 -11q-19 27 -128 151l-232 264q-6 7 -55 64.5t-61 70.5h-2q-5 -15 -5 -65v-218q0 -175 18 -207q9 -16 51 -19l31 -3q4 -6 3.5 -13.5t-5.5 -11.5q-67 3 -117 3q-52 0 -104 -3q-5 4 -6 12.5t4 12.5l27 3q37 5 44 20q13 33 13 206
v289q0 48 -22 72q-19 19 -62 24l-17 2q-5 4 -4.5 13t6.5 12q42 -3 113 -3q26 0 46 3q20 -50 171 -220l97 -109q132 -147 165 -181h2q4 5 4 42v214q0 175 -20 207q-9 13 -62 20l-17 2q-5 4 -4.5 13.5t6.5 11.5q69 -3 118 -3q52 0 103 3q6 -4 6.5 -12.5t-4.5 -12.5l-14 -2
q-49 -8 -56 -21q-15 -32 -15 -206zM374 798h63q34 0 49 7t34 33q13 9 18 -5q-13 -49 -41 -77q-17 -16 -53 -16h-58q-34 0 -52 -11.5t-35 -40.5q-4 -4 -11 -3t-10 7q4 17 16.5 45t24.5 38q20 23 55 23z" />
    <glyph glyph-name="Ograve" unicode="&#xd2;" horiz-adv-x="795" 
d="M402 -16q-161 0 -258.5 99t-97.5 240q0 151 101 252t255 101q164 0 255.5 -100.5t91.5 -242.5q0 -150 -100.5 -249.5t-246.5 -99.5zM415 15q98 0 166 74t68 213q0 65 -15 124t-45 109t-82.5 80t-121.5 30q-42 0 -81.5 -15t-76.5 -47t-59 -91t-22 -137q0 -46 9 -92
t29.5 -91.5t50.5 -79.5t76.5 -55.5t103.5 -21.5zM452 706l-167 72q-21 9 -25 16q-9 18 6 41q16 23 28 23q8 0 27 -13l141 -115q2 -8 -1 -15t-9 -9z" />
    <glyph glyph-name="Oacute" unicode="&#xd3;" horiz-adv-x="795" 
d="M402 -16q-161 0 -258.5 99t-97.5 240q0 151 101 252t255 101q164 0 255.5 -100.5t91.5 -242.5q0 -150 -100.5 -249.5t-246.5 -99.5zM415 15q98 0 166 74t68 213q0 65 -15 124t-45 109t-82.5 80t-121.5 30q-42 0 -81.5 -15t-76.5 -47t-59 -91t-22 -137q0 -46 9 -92
t29.5 -91.5t50.5 -79.5t76.5 -55.5t103.5 -21.5zM529 783l-167 -72q-6 2 -9 9t-1 15l141 115q19 13 27 13q16 0 28 -23q13 -25 7 -41q-7 -8 -26 -16z" />
    <glyph glyph-name="Ocircumflex" unicode="&#xd4;" horiz-adv-x="795" 
d="M402 -16q-161 0 -258.5 99t-97.5 240q0 151 101 252t255 101q164 0 255.5 -100.5t91.5 -242.5q0 -150 -100.5 -249.5t-246.5 -99.5zM415 15q98 0 166 74t68 213q0 65 -15 124t-45 109t-82.5 80t-121.5 30q-42 0 -81.5 -15t-76.5 -47t-59 -91t-22 -137q0 -46 9 -92
t29.5 -91.5t50.5 -79.5t76.5 -55.5t103.5 -21.5zM261 727l122 111q22 19 42 0l122 -111q0 -18 -12 -20l-116 58q-16 8 -32 0l-113 -58q-13 0 -13 20z" />
    <glyph glyph-name="Otilde" unicode="&#xd5;" horiz-adv-x="795" 
d="M402 -16q-161 0 -258.5 99t-97.5 240q0 151 101 252t255 101q164 0 255.5 -100.5t91.5 -242.5q0 -150 -100.5 -249.5t-246.5 -99.5zM415 15q98 0 166 74t68 213q0 65 -15 124t-45 109t-82.5 80t-121.5 30q-42 0 -81.5 -15t-76.5 -47t-59 -91t-22 -137q0 -46 9 -92
t29.5 -91.5t50.5 -79.5t76.5 -55.5t103.5 -21.5zM368 806h63q34 0 49 7t34 34q13 10 18 -4q-12 -50 -41 -81q-17 -17 -53 -17h-58q-35 0 -52.5 -12t-34.5 -43q-4 -3 -11 -2t-10 6q4 18 16.5 47.5t24.5 39.5q21 25 55 25z" />
    <glyph glyph-name="Odieresis" unicode="&#xd6;" horiz-adv-x="795" 
d="M402 -16q-161 0 -258.5 99t-97.5 240q0 151 101 252t255 101q164 0 255.5 -100.5t91.5 -242.5q0 -150 -100.5 -249.5t-246.5 -99.5zM415 15q98 0 166 74t68 213q0 65 -15 124t-45 109t-82.5 80t-121.5 30q-42 0 -81.5 -15t-76.5 -47t-59 -91t-22 -137q0 -46 9 -92
t29.5 -91.5t50.5 -79.5t76.5 -55.5t103.5 -21.5zM305 715q-49 0 -49 51q-2 22 12 39t37 17q22 0 36.5 -16.5t14.5 -37.5q0 -22 -14 -37.5t-37 -15.5zM496 715q-50 0 -52 51q0 23 14.5 39.5t37.5 16.5q22 0 35 -16.5t13 -37.5q0 -23 -13 -38t-35 -15z" />
    <glyph glyph-name="multiply" unicode="&#xd7;" horiz-adv-x="500" 
d="M436 349l-148 -150l148 -149l-37 -39l-149 150l-148 -150l-37 39l147 149l-147 147l37 39l148 -148l149 150z" />
    <glyph glyph-name="Oslash" unicode="&#xd8;" horiz-adv-x="795" 
d="M690 668l-55 -70q114 -98 114 -268q0 -148 -100.5 -247t-246.5 -99q-118 0 -207 59l-67 -83q-11 0 -19.5 7.5t-9.5 17.5l65 81q-57 46 -87.5 113.5t-30.5 143.5q0 151 101 252t255 101q116 0 201 -55l57 72q11 -1 20.5 -8.5t9.5 -16.5zM586 537l-351 -443q69 -79 180 -79
q98 0 166 74t68 213q0 142 -63 235zM211 125l351 444q-68 76 -177 76q-42 0 -81.5 -15t-76.5 -47t-59 -91t-22 -137q0 -135 65 -230z" />
    <glyph glyph-name="Ugrave" unicode="&#xd9;" horiz-adv-x="746" 
d="M605 294v115q0 173 -19 207q-10 18 -50 21l-25 2q-4 5 -3.5 13t5.5 11q57 -3 114 -3q51 0 105 3q6 -4 6 -12t-4 -12l-24 -2q-40 -3 -50 -24q-14 -33 -14 -204v-113q0 -164 -70 -239q-32 -35 -83 -54t-108 -19q-123 0 -187 55q-78 65 -78 236v236q0 81 -9 101.5t-51 24.5
l-25 2q-4 3 -3.5 12.5t5.5 11.5q75 -3 124 -3t123 3q5 -2 5.5 -11.5t-3.5 -12.5l-24 -2q-42 -4 -51 -24.5t-9 -101.5v-216q0 -129 47 -198t156 -69q103 0 151.5 72t48.5 194zM435 706l-167 72q-21 9 -25 16q-8 15 6 41q11 23 28 23q7 0 27 -13l141 -115q2 -8 -1 -15t-9 -9z
" />
    <glyph glyph-name="Uacute" unicode="&#xda;" horiz-adv-x="746" 
d="M605 294v115q0 173 -19 207q-10 18 -50 21l-25 2q-4 5 -3.5 13t5.5 11q57 -3 114 -3q51 0 105 3q6 -4 6 -12t-4 -12l-24 -2q-40 -3 -50 -24q-14 -33 -14 -204v-113q0 -164 -70 -239q-32 -35 -83 -54t-108 -19q-123 0 -187 55q-78 65 -78 236v236q0 81 -9 101.5t-51 24.5
l-25 2q-4 3 -3.5 12.5t5.5 11.5q75 -3 124 -3t123 3q5 -2 5.5 -11.5t-3.5 -12.5l-24 -2q-42 -4 -51 -24.5t-9 -101.5v-216q0 -129 47 -198t156 -69q103 0 151.5 72t48.5 194zM520 778l-167 -72q-6 2 -9 9t-1 15l141 115q19 13 27 13q17 0 28 -23q13 -25 7 -41q-7 -8 -26 -16
z" />
    <glyph glyph-name="Ucircumflex" unicode="&#xdb;" horiz-adv-x="746" 
d="M605 294v115q0 173 -19 207q-10 18 -50 21l-25 2q-4 5 -3.5 13t5.5 11q57 -3 114 -3q51 0 105 3q6 -4 6 -12t-4 -12l-24 -2q-40 -3 -50 -24q-14 -33 -14 -204v-113q0 -164 -70 -239q-32 -35 -83 -54t-108 -19q-123 0 -187 55q-78 65 -78 236v236q0 81 -9 101.5t-51 24.5
l-25 2q-4 3 -3.5 12.5t5.5 11.5q75 -3 124 -3t123 3q5 -2 5.5 -11.5t-3.5 -12.5l-24 -2q-42 -4 -51 -24.5t-9 -101.5v-216q0 -129 47 -198t156 -69q103 0 151.5 72t48.5 194zM261 727l122 111q22 19 42 0l122 -111q0 -18 -12 -20l-116 58q-16 8 -32 0l-113 -58q-13 0 -13 20
z" />
    <glyph glyph-name="Udieresis" unicode="&#xdc;" horiz-adv-x="746" 
d="M605 294v115q0 173 -19 207q-10 18 -50 21l-25 2q-4 5 -3.5 13t5.5 11q57 -3 114 -3q51 0 105 3q6 -4 6 -12t-4 -12l-24 -2q-40 -3 -50 -24q-14 -33 -14 -204v-113q0 -164 -70 -239q-32 -35 -83 -54t-108 -19q-123 0 -187 55q-78 65 -78 236v236q0 81 -9 101.5t-51 24.5
l-25 2q-4 3 -3.5 12.5t5.5 11.5q75 -3 124 -3t123 3q5 -2 5.5 -11.5t-3.5 -12.5l-24 -2q-42 -4 -51 -24.5t-9 -101.5v-216q0 -129 47 -198t156 -69q103 0 151.5 72t48.5 194zM300 705q-49 0 -49 51q-2 22 12 39t37 17q22 0 36.5 -16.5t14.5 -37.5q0 -22 -14 -37.5t-37 -15.5
zM496 705q-50 0 -52 51q0 23 14.5 39.5t37.5 16.5q22 0 35 -16.5t13 -37.5q0 -23 -13 -38t-35 -15z" />
    <glyph glyph-name="Yacute" unicode="&#xdd;" horiz-adv-x="574" 
d="M336 204v-52q0 -81 10 -102.5t50 -24.5l38 -3q4 -5 3.5 -14t-5.5 -11q-93 3 -136 3q-52 0 -131 -3q-5 2 -5.5 11t3.5 14l31 3q42 4 51 24t9 103v51q0 42 -5 62t-27 62l-118 230q-24 46 -39 59t-40 17l-28 5q-5 5 -4 13.5t6 11.5q48 -3 116 -3q70 0 107 3q6 -2 7 -11.5
t-4 -13.5l-13 -2q-42 -6 -42 -18q0 -15 31 -77q96 -191 113 -222q57 97 94 169q65 121 65 132t-42 16l-18 2q-5 5 -4.5 13.5t6.5 11.5q54 -3 96 -3t93 3q6 -4 6.5 -12.5t-4.5 -12.5l-28 -5q-10 -2 -19 -6.5t-16.5 -9.5t-16.5 -16t-14.5 -18t-15.5 -23t-15 -24.5t-17 -29.5
t-18 -31l-63 -109q-33 -57 -40 -81t-7 -81zM433 778l-167 -72q-6 2 -9 9t-1 15l141 115q19 13 27 13q16 0 28 -23q13 -25 7 -41q-7 -8 -26 -16z" />
    <glyph glyph-name="Thorn" unicode="&#xde;" horiz-adv-x="561" 
d="M128 150v360q0 81 -10.5 101.5t-52.5 24.5l-22 2q-4 3 -3.5 13t5.5 12q75 -3 126 -3q52 0 121 3q4 -4 4.5 -12.5t-2.5 -12.5l-16 -2q-46 -6 -57 -26t-11 -89h81q102 0 164.5 -43.5t62.5 -135.5q0 -54 -27 -91.5t-63 -55.5q-67 -33 -146 -29q-4 2 -4.5 10t3.5 10
q146 21 146 152q0 71 -41 111.5t-119 40.5q-39 0 -48 -5.5t-9 -29.5v-305q0 -81 9 -101t51 -24l37 -3q4 -3 3.5 -13t-5.5 -12q-90 3 -134 3q-54 0 -123 -3q-5 2 -5.5 11t3.5 14l22 3q43 6 51.5 25t8.5 100z" />
    <glyph glyph-name="germandbls" unicode="&#xdf;" horiz-adv-x="523" 
d="M169 411v-299q0 -55 4.5 -70t23.5 -17l24 -3q5 -4 4 -13.5t-6 -11.5q-49 3 -87 3q-51 0 -96 -3q-5 2 -6 11.5t4 13.5l23 3q27 4 32.5 17.5t5.5 69.5v211q0 21 -2.5 25t-17.5 4h-35q-11 7 -3 19l43 21q15 8 15 20q0 98 35 171q27 57 75.5 94.5t119.5 37.5q76 0 113 -39.5
t37 -93.5q0 -17 -3 -30t-12.5 -26.5t-14 -19t-21 -20.5t-19.5 -18l-24 -23q-46 -43 -46 -79q0 -28 18 -50.5t57 -53.5q26 -20 41.5 -36t30 -44.5t14.5 -60.5q0 -60 -45.5 -97.5t-103.5 -37.5q-57 0 -78 19q-10 10 -12.5 26.5t6.5 30.5q3 5 9.5 5.5t11.5 -3.5q52 -48 73 -48
q28 0 49.5 21t21.5 60q0 57 -77 115q-81 60 -81 127q0 28 16.5 51.5t54.5 60.5q64 60 64 117q0 47 -29.5 79.5t-78.5 32.5q-61 0 -94.5 -74.5t-33.5 -194.5z" />
    <glyph glyph-name="agrave" unicode="&#xe0;" horiz-adv-x="404" 
d="M118 164l119 43q17 6 17 29l1 46q2 87 -73 87q-24 0 -43.5 -11.5t-20.5 -33.5q-2 -28 -10 -34q-24 -19 -57 -19q-14 0 -14 14q0 38 65 80.5t121 42.5q54 0 80 -30t24 -87l-6 -174q-4 -87 46 -87q13 0 25 6q12 7 13 7q7 0 7 -13q0 -3 -10 -13.5t-31 -20.5t-43 -10
q-41 0 -65 31q-9 14 -16 14q-3 0 -39 -20q-46 -25 -72 -25q-44 0 -70 23q-31 28 -31 70q0 30 18 49t65 36zM112 91q0 -19 15 -39.5t48 -20.5q14 0 33.5 8.5t27.5 16.5q11 11 13 47l2 59q0 13 -10 13q-11 0 -41 -10q-48 -16 -68 -31.5t-20 -42.5zM155 639l82 -170
q0 -6 -8 -9.5t-14 -2.5l-122 133q-18 20 -18 31t20 26q19 16 35 16q14 0 25 -24z" />
    <glyph glyph-name="aacute" unicode="&#xe1;" horiz-adv-x="404" 
d="M118 164l119 43q17 6 17 29l1 46q2 87 -73 87q-24 0 -43.5 -11.5t-20.5 -33.5q-2 -28 -10 -34q-24 -19 -57 -19q-14 0 -14 14q0 38 65 80.5t121 42.5q54 0 80 -30t24 -87l-6 -174q-4 -87 46 -87q13 0 25 6q12 7 13 7q7 0 7 -13q0 -3 -10 -13.5t-31 -20.5t-43 -10
q-41 0 -65 31q-9 14 -16 14q-3 0 -39 -20q-46 -25 -72 -25q-44 0 -70 23q-31 28 -31 70q0 30 18 49t65 36zM112 91q0 -19 15 -39.5t48 -20.5q14 0 33.5 8.5t27.5 16.5q11 11 13 47l2 59q0 13 -10 13q-11 0 -41 -10q-48 -16 -68 -31.5t-20 -42.5zM317 591l-125 -130
q-15 -2 -17 11l86 163q13 24 24 24q13 0 31 -15q17 -14 17 -26q0 -11 -16 -27z" />
    <glyph glyph-name="acircumflex" unicode="&#xe2;" horiz-adv-x="404" 
d="M118 164l119 43q17 6 17 29l1 46q2 87 -73 87q-24 0 -43.5 -11.5t-20.5 -33.5q-2 -28 -10 -34q-24 -19 -57 -19q-14 0 -14 14q0 38 65 80.5t121 42.5q54 0 80 -30t24 -87l-6 -174q-4 -87 46 -87q13 0 25 6q12 7 13 7q7 0 7 -13q0 -3 -10 -13.5t-31 -20.5t-43 -10
q-41 0 -65 31q-9 14 -16 14q-3 0 -39 -20q-46 -25 -72 -25q-44 0 -70 23q-31 28 -31 70q0 30 18 49t65 36zM112 91q0 -19 15 -39.5t48 -20.5q14 0 33.5 8.5t27.5 16.5q11 11 13 47l2 59q0 13 -10 13q-11 0 -41 -10q-48 -16 -68 -31.5t-20 -42.5zM282 455l-73 93
q-9 11 -13.5 11t-13.5 -11l-74 -93q-5 -2 -12 1.5t-8 7.5l90 172q18 32 35 0l91 -172q-1 -4 -9.5 -7.5t-12.5 -1.5z" />
    <glyph glyph-name="atilde" unicode="&#xe3;" horiz-adv-x="404" 
d="M118 164l119 43q17 6 17 29l1 46q2 87 -73 87q-24 0 -43.5 -11.5t-20.5 -33.5q-2 -28 -10 -34q-24 -19 -57 -19q-14 0 -14 14q0 38 65 80.5t121 42.5q54 0 80 -30t24 -87l-6 -174q-4 -87 46 -87q13 0 25 6q12 7 13 7q7 0 7 -13q0 -3 -10 -13.5t-31 -20.5t-43 -10
q-41 0 -65 31q-9 14 -16 14q-3 0 -39 -20q-46 -25 -72 -25q-44 0 -70 23q-31 28 -31 70q0 30 18 49t65 36zM112 91q0 -19 15 -39.5t48 -20.5q14 0 33.5 8.5t27.5 16.5q11 11 13 47l2 59q0 13 -10 13q-11 0 -41 -10q-48 -16 -68 -31.5t-20 -42.5zM177 567h53q31 0 44.5 6.5
t30.5 31.5q12 6 17 -6q-10 -42 -37 -71q-18 -16 -49 -16h-52q-32 0 -49 -11.5t-32 -39.5q-4 -3 -9.5 -1.5t-7.5 5.5q3 15 14.5 42t22.5 37q20 23 54 23z" />
    <glyph glyph-name="adieresis" unicode="&#xe4;" horiz-adv-x="404" 
d="M118 164l119 43q17 6 17 29l1 46q2 87 -73 87q-24 0 -43.5 -11.5t-20.5 -33.5q-2 -28 -10 -34q-24 -19 -57 -19q-14 0 -14 14q0 38 65 80.5t121 42.5q54 0 80 -30t24 -87l-6 -174q-4 -87 46 -87q13 0 25 6q12 7 13 7q7 0 7 -13q0 -3 -10 -13.5t-31 -20.5t-43 -10
q-41 0 -65 31q-9 14 -16 14q-3 0 -39 -20q-46 -25 -72 -25q-44 0 -70 23q-31 28 -31 70q0 30 18 49t65 36zM112 91q0 -19 15 -39.5t48 -20.5q14 0 33.5 8.5t27.5 16.5q11 11 13 47l2 59q0 13 -10 13q-11 0 -41 -10q-48 -16 -68 -31.5t-20 -42.5zM108 502q-21 0 -34.5 13
t-14.5 36q-1 22 13 37t36 15q21 0 35.5 -14.5t14.5 -33.5q0 -23 -14 -38t-36 -15zM283 502q-21 0 -35.5 13.5t-15.5 36.5q0 21 14.5 36t36.5 15q21 0 34.5 -14.5t13.5 -32.5q0 -24 -13.5 -39t-34.5 -15z" />
    <glyph glyph-name="aring" unicode="&#xe5;" horiz-adv-x="404" 
d="M118 164l119 43q17 6 17 29l1 46q2 87 -73 87q-24 0 -43.5 -11.5t-20.5 -33.5q-2 -28 -10 -34q-24 -19 -57 -19q-14 0 -14 14q0 38 65 80.5t121 42.5q54 0 80 -30t24 -87l-6 -174q-4 -87 46 -87q13 0 25 6q12 7 13 7q7 0 7 -13q0 -3 -10 -13.5t-31 -20.5t-43 -10
q-41 0 -65 31q-9 14 -16 14q-3 0 -39 -20q-46 -25 -72 -25q-44 0 -70 23q-31 28 -31 70q0 30 18 49t65 36zM112 91q0 -19 15 -39.5t48 -20.5q14 0 33.5 8.5t27.5 16.5q11 11 13 47l2 59q0 13 -10 13q-11 0 -41 -10q-48 -16 -68 -31.5t-20 -42.5zM202 638q36 0 60.5 -24
t24.5 -57t-24 -57t-61 -24t-61 24t-24 57t24.5 57t60.5 24zM157 557q0 -23 13 -38t32 -15q20 0 32.5 15t12.5 38t-13 37.5t-32 14.5t-32 -15t-13 -37z" />
    <glyph glyph-name="ae" unicode="&#xe6;" horiz-adv-x="585" 
d="M243 110v53q0 12 -5 14t-17 -2l-44 -15q-66 -23 -66 -74q0 -24 15.5 -39.5t38.5 -15.5q33 0 61 28q17 18 17 51zM243 231v41q0 32 -2.5 50t-18.5 35t-47 17q-28 0 -42.5 -15t-16.5 -33q-2 -24 -11 -31q-26 -19 -56 -19q-12 0 -12 14q0 16 15 36.5t38 36.5q62 45 124 45
q66 0 87 -56q58 56 137 56q51 0 90.5 -29t39.5 -73q0 -20 -18 -26l-221 -71q-11 -4 -14.5 -8t-3.5 -15v-24q0 -59 34 -91t90 -32q34 0 59.5 13t56.5 50q6 3 12 -1.5t5 -10.5q-57 -104 -170 -104q-88 0 -134 65l-41 -28q-54 -37 -102 -37q-36 0 -61 25t-25 63q0 63 79 92
l106 40q15 5 19 9t4 16zM329 241l113 37q26 8 35 15t9 22q0 27 -21.5 45t-51.5 18q-45 0 -73.5 -38t-28.5 -86q0 -12 3 -14t15 1z" />
    <glyph glyph-name="ccedilla" unicode="&#xe7;" horiz-adv-x="401" 
d="M184 -97l52 84q-1 -1 -5 -1q-85 0 -137 51q-58 56 -58 148q0 90 63 156.5t179 66.5q51 0 89 -17q15 -13 15 -40q0 -14 -6.5 -25.5t-15.5 -11.5q-8 0 -14 7q-43 53 -100 53q-56 0 -97 -43t-41 -118q0 -65 43 -118t118 -53q70 0 111 60q6 2 11.5 -2.5t6.5 -11.5
q-37 -81 -128 -96l-29 -47q-7 -12 8 -21q41 -27 41 -63q0 -33 -28 -55.5t-64 -22.5q-51 0 -51 31q0 8 6 15.5t16 7.5q9 0 25 -13t21 -13q24 0 24 28q0 17 -15.5 33.5t-39.5 25.5v5z" />
    <glyph glyph-name="egrave" unicode="&#xe8;" horiz-adv-x="396" 
d="M315 256h-185q-19 0 -23 -4t-4 -23q0 -79 44.5 -133t121.5 -54q53 0 92 49q16 5 18 -12q-23 -47 -67.5 -70t-89.5 -23q-95 0 -145 66q-42 55 -42 130q0 94 56.5 160t144.5 66q62 0 102 -36t40 -83q0 -18 -4 -26q-4 -7 -59 -7zM121 286h71q91 0 104 10q6 4 6 19
q0 25 -18.5 44t-58.5 19q-41 0 -75.5 -30t-35.5 -57q0 -5 7 -5zM189 635l79 -161q0 -6 -7.5 -9.5t-13.5 -2.5l-117 127q-17 18 -17 30q0 9 19 25q21 14 34 14q12 0 23 -23z" />
    <glyph glyph-name="eacute" unicode="&#xe9;" horiz-adv-x="396" 
d="M315 256h-185q-19 0 -23 -4t-4 -23q0 -79 44.5 -133t121.5 -54q53 0 92 49q16 5 18 -12q-23 -47 -67.5 -70t-89.5 -23q-95 0 -145 66q-42 55 -42 130q0 94 56.5 160t144.5 66q62 0 102 -36t40 -83q0 -18 -4 -26q-4 -7 -59 -7zM121 286h71q91 0 104 10q6 4 6 19
q0 25 -18.5 44t-58.5 19q-41 0 -75.5 -30t-35.5 -57q0 -5 7 -5zM320 584l-125 -130q-15 -2 -17 11l86 163q13 24 24 24q13 0 31 -15q17 -14 17 -26q0 -11 -16 -27z" />
    <glyph glyph-name="ecircumflex" unicode="&#xea;" horiz-adv-x="396" 
d="M315 256h-185q-19 0 -23 -4t-4 -23q0 -79 44.5 -133t121.5 -54q53 0 92 49q16 5 18 -12q-23 -47 -67.5 -70t-89.5 -23q-95 0 -145 66q-42 55 -42 130q0 94 56.5 160t144.5 66q62 0 102 -36t40 -83q0 -18 -4 -26q-4 -7 -59 -7zM121 286h71q91 0 104 10q6 4 6 19
q0 25 -18.5 44t-58.5 19q-41 0 -75.5 -30t-35.5 -57q0 -5 7 -5zM316 456l-73 92q-9 11 -13.5 11t-13.5 -11l-74 -92q-5 -2 -12 1.5t-8 7.5l90 177q17 33 35 0l91 -177q-1 -4 -9.5 -7.5t-12.5 -1.5z" />
    <glyph glyph-name="edieresis" unicode="&#xeb;" horiz-adv-x="396" 
d="M315 256h-185q-19 0 -23 -4t-4 -23q0 -79 44.5 -133t121.5 -54q53 0 92 49q16 5 18 -12q-23 -47 -67.5 -70t-89.5 -23q-95 0 -145 66q-42 55 -42 130q0 94 56.5 160t144.5 66q62 0 102 -36t40 -83q0 -18 -4 -26q-4 -7 -59 -7zM121 286h71q91 0 104 10q6 4 6 19
q0 25 -18.5 44t-58.5 19q-41 0 -75.5 -30t-35.5 -57q0 -5 7 -5zM145 502q-21 0 -33.5 12.5t-13.5 34.5q-1 20 12.5 34.5t34.5 14.5q20 0 34 -14t14 -32q0 -22 -13.5 -36t-34.5 -14zM310 502q-21 0 -34.5 13t-14.5 35q0 20 14 34t35 14q20 0 33 -14t13 -31q0 -22 -12.5 -36.5
t-33.5 -14.5z" />
    <glyph glyph-name="igrave" unicode="&#xec;" horiz-adv-x="257" 
d="M98 112v175q0 31 -3.5 40t-23.5 22l-9 6q-3 3 -3 9.5t4 8.5q60 21 103 49q8 0 10 -6q-4 -70 -4 -124v-180q0 -55 6 -69t32 -18l21 -3q5 -4 4 -13.5t-6 -11.5q-45 3 -94 3q-52 0 -94 -3q-5 2 -6 11.5t4 13.5l21 3q27 4 32.5 17.5t5.5 69.5zM86 635l79 -161q0 -6 -7.5 -9.5
t-13.5 -2.5l-117 127q-17 18 -17 30q0 9 19 25q21 14 34 14q12 0 23 -23z" />
    <glyph glyph-name="iacute" unicode="&#xed;" horiz-adv-x="257" 
d="M98 112v175q0 31 -3.5 40t-23.5 22l-9 6q-3 3 -3 9.5t4 8.5q60 21 103 49q8 0 10 -6q-4 -70 -4 -124v-180q0 -55 6 -69t32 -18l21 -3q5 -4 4 -13.5t-6 -11.5q-45 3 -94 3q-52 0 -94 -3q-5 2 -6 11.5t4 13.5l21 3q27 4 32.5 17.5t5.5 69.5zM240 598l-125 -130
q-15 -2 -17 11l86 163q13 24 24 24q13 0 31 -15q17 -14 17 -26q0 -11 -16 -27z" />
    <glyph glyph-name="icircumflex" unicode="&#xee;" horiz-adv-x="257" 
d="M98 112v175q0 31 -3.5 40t-23.5 22l-9 6q-3 3 -3 9.5t4 8.5q60 21 103 49q8 0 10 -6q-4 -70 -4 -124v-180q0 -55 6 -69t32 -18l21 -3q5 -4 4 -13.5t-6 -11.5q-45 3 -94 3q-52 0 -94 -3q-5 2 -6 11.5t4 13.5l21 3q27 4 32.5 17.5t5.5 69.5zM218 455l-73 92q-9 11 -13.5 11
t-13.5 -11l-74 -92q-5 -2 -12 1.5t-8 7.5l90 177q18 33 35 0l91 -177q-1 -4 -9.5 -7.5t-12.5 -1.5z" />
    <glyph glyph-name="idieresis" unicode="&#xef;" horiz-adv-x="257" 
d="M98 112v175q0 31 -3.5 40t-23.5 22l-9 6q-3 3 -3 9.5t4 8.5q60 21 103 49q8 0 10 -6q-4 -70 -4 -124v-180q0 -55 6 -69t32 -18l21 -3q5 -4 4 -13.5t-6 -11.5q-45 3 -94 3q-52 0 -94 -3q-5 2 -6 11.5t4 13.5l21 3q27 4 32.5 17.5t5.5 69.5zM43 502q-21 0 -34.5 13
t-14.5 36q-1 22 13 37t36 15q21 0 35.5 -14.5t14.5 -33.5q0 -23 -14 -38t-36 -15zM218 502q-21 0 -35.5 13.5t-15.5 36.5q0 21 14.5 36t36.5 15q21 0 34.5 -14.5t13.5 -32.5q0 -24 -13.5 -39t-34.5 -15z" />
    <glyph glyph-name="eth" unicode="&#xf0;" horiz-adv-x="484" 
d="M121 204q0 -73 32.5 -130.5t92.5 -57.5q43 0 72 29.5t40 70t11 90.5q0 87 -23 130q-22 42 -96 42q-56 0 -92.5 -48.5t-36.5 -125.5zM436 632l-104 -54q59 -63 88 -149t29 -174q0 -126 -56 -197.5t-159 -71.5q-87 0 -143 55t-56 149q0 90 65 154t154 64q59 0 97 -21
q-18 92 -74 162l-131 -68q-21 9 -14 33l124 65q-92 104 -189 113q-10 14 3 23q63 -3 126.5 -33t111.5 -76l112 58q10 -2 15 -11.5t1 -20.5z" />
    <glyph glyph-name="ntilde" unicode="&#xf1;" horiz-adv-x="525" 
d="M98 112v175q0 31 -3.5 40t-23.5 22l-9 6q-3 3 -3 9.5t4 8.5q20 7 53 23t47 26q8 0 11 -7q-2 -23 -2 -47q0 -11 11 -11q82 51 140 51q59 0 88 -35t29 -89v-172q0 -55 6 -69t32 -18l22 -3q5 -4 4 -13.5t-6 -11.5q-45 3 -94 3q-52 0 -93 -3q-5 2 -6 11.5t4 13.5l19 3
q27 4 32.5 17.5t5.5 69.5v149q0 99 -94 99q-59 0 -85 -35q-15 -20 -15 -60v-153q0 -55 5.5 -69t32.5 -18l18 -3q5 -4 4 -13.5t-6 -11.5q-40 3 -91 3q-52 0 -94 -3q-5 2 -6 11.5t4 13.5l21 3q27 4 32.5 17.5t5.5 69.5zM243 578h54q32 0 45.5 6.5t31.5 32.5q12 6 17 -6
q-10 -43 -38 -73q-18 -16 -49 -16h-53q-33 0 -50.5 -12t-32.5 -40q-4 -3 -9.5 -1.5t-7.5 5.5q3 15 14.5 42.5t22.5 38.5q22 23 55 23z" />
    <glyph glyph-name="ograve" unicode="&#xf2;" horiz-adv-x="486" 
d="M248 408q86 0 144.5 -58t58.5 -149q0 -94 -59 -154.5t-152 -60.5q-88 0 -146.5 57t-58.5 149q0 93 61.5 154.5t151.5 61.5zM365 185q0 75 -32 134t-97 59q-51 0 -83 -46t-32 -127q0 -75 33.5 -132t95.5 -57q60 0 87.5 50.5t27.5 118.5zM199 632l79 -161q0 -6 -7.5 -9.5
t-13.5 -2.5l-117 127q-17 18 -17 30q0 9 19 25q21 14 34 14q12 0 23 -23z" />
    <glyph glyph-name="oacute" unicode="&#xf3;" horiz-adv-x="486" 
d="M248 408q86 0 144.5 -58t58.5 -149q0 -94 -59 -154.5t-152 -60.5q-88 0 -146.5 57t-58.5 149q0 93 61.5 154.5t151.5 61.5zM365 185q0 75 -32 134t-97 59q-51 0 -83 -46t-32 -127q0 -75 33.5 -132t95.5 -57q60 0 87.5 50.5t27.5 118.5zM344 588l-125 -130q-15 -2 -17 11
l86 163q13 24 24 24q13 0 31 -15q17 -14 17 -26q0 -11 -16 -27z" />
    <glyph glyph-name="ocircumflex" unicode="&#xf4;" horiz-adv-x="486" 
d="M248 408q86 0 144.5 -58t58.5 -149q0 -94 -59 -154.5t-152 -60.5q-88 0 -146.5 57t-58.5 149q0 93 61.5 154.5t151.5 61.5zM365 185q0 75 -32 134t-97 59q-51 0 -83 -46t-32 -127q0 -75 33.5 -132t95.5 -57q60 0 87.5 50.5t27.5 118.5zM326 455l-73 92q-9 11 -13.5 11
t-13.5 -11l-74 -92q-5 -2 -12 1.5t-8 7.5l90 177q18 33 35 0l91 -177q-1 -4 -9.5 -7.5t-12.5 -1.5z" />
    <glyph glyph-name="otilde" unicode="&#xf5;" horiz-adv-x="486" 
d="M248 408q86 0 144.5 -58t58.5 -149q0 -94 -59 -154.5t-152 -60.5q-88 0 -146.5 57t-58.5 149q0 93 61.5 154.5t151.5 61.5zM365 185q0 75 -32 134t-97 59q-51 0 -83 -46t-32 -127q0 -75 33.5 -132t95.5 -57q60 0 87.5 50.5t27.5 118.5zM218 570h53q31 0 44.5 6.5
t30.5 31.5q12 6 17 -6q-10 -42 -37 -71q-18 -16 -49 -16h-52q-32 0 -49 -11.5t-32 -39.5q-4 -3 -9.5 -1.5t-7.5 5.5q3 15 14.5 42t22.5 37q20 23 54 23z" />
    <glyph glyph-name="odieresis" unicode="&#xf6;" horiz-adv-x="486" 
d="M248 408q86 0 144.5 -58t58.5 -149q0 -94 -59 -154.5t-152 -60.5q-88 0 -146.5 57t-58.5 149q0 93 61.5 154.5t151.5 61.5zM365 185q0 75 -32 134t-97 59q-51 0 -83 -46t-32 -127q0 -75 33.5 -132t95.5 -57q60 0 87.5 50.5t27.5 118.5zM150 502q-21 0 -34.5 13t-14.5 36
q-1 22 13 37t36 15q21 0 35.5 -14.5t14.5 -33.5q0 -23 -14 -38t-36 -15zM325 502q-21 0 -35.5 13.5t-15.5 36.5q0 21 14.5 36t36.5 15q21 0 34.5 -14.5t13.5 -32.5q0 -24 -13.5 -39t-34.5 -15z" />
    <glyph glyph-name="divide" unicode="&#xf7;" horiz-adv-x="500" 
d="M248 128q17 0 30.5 -13t13.5 -31t-13 -31.5t-31 -13.5q-19 0 -32 13t-13 32q0 18 13 31t32 13zM248 283q-19 0 -32 13t-13 32q0 18 13 31t32 13q17 0 30.5 -13t13.5 -31t-13 -31.5t-31 -13.5zM443 230v-49h-385v49h385z" />
    <glyph glyph-name="oslash" unicode="&#xf8;" horiz-adv-x="486" 
d="M144 88l175 253q-34 37 -83 37q-53 0 -85.5 -46t-32.5 -127q0 -69 26 -117zM340 312l-177 -254q36 -42 87 -42q62 0 90 50t28 119q0 74 -28 127zM410 413l-34 -49q75 -59 75 -163q0 -94 -59 -154.5t-152 -60.5q-61 0 -107 28l-37 -55q-10 -1 -17 5.5t-9 16.5l36 52
q-71 56 -71 159q0 93 61.5 154.5t151.5 61.5q55 0 100 -25l34 49q9 1 18 -5t10 -14z" />
    <glyph glyph-name="ugrave" unicode="&#xf9;" horiz-adv-x="512" 
d="M159 314v-167q0 -57 20 -86t73 -29q46 0 81 30q20 18 20 58v164q0 33 -3.5 47.5t-9.5 19.5t-24 12l-13 5q-5 3 -5 11t6 11q82 2 117 18q8 -2 9 -7q-3 -28 -3 -87v-168q0 -64 5.5 -86.5t25.5 -22.5q16 0 39 5q5 -4 5 -15t-6 -14q-102 -21 -131 -37q-9 0 -12 7v41
q0 14 -9 14q-82 -52 -138 -52q-64 0 -92.5 31t-28.5 94v167q0 50 -4 63t-26 22l-12 5q-5 4 -4 12t6 10q61 1 107 18q9 -1 10 -7q-3 -26 -3 -87zM197 635l79 -161q0 -6 -7.5 -9.5t-13.5 -2.5l-117 127q-17 18 -17 30q0 9 19 25q21 14 34 14q12 0 23 -23z" />
    <glyph glyph-name="uacute" unicode="&#xfa;" horiz-adv-x="512" 
d="M159 314v-167q0 -57 20 -86t73 -29q46 0 81 30q20 18 20 58v164q0 33 -3.5 47.5t-9.5 19.5t-24 12l-13 5q-5 3 -5 11t6 11q82 2 117 18q8 -2 9 -7q-3 -28 -3 -87v-168q0 -64 5.5 -86.5t25.5 -22.5q16 0 39 5q5 -4 5 -15t-6 -14q-102 -21 -131 -37q-9 0 -12 7v41
q0 14 -9 14q-82 -52 -138 -52q-64 0 -92.5 31t-28.5 94v167q0 50 -4 63t-26 22l-12 5q-5 4 -4 12t6 10q61 1 107 18q9 -1 10 -7q-3 -26 -3 -87zM355 596l-125 -130q-15 -2 -17 11l86 163q13 24 24 24q13 0 31 -15q17 -14 17 -26q0 -11 -16 -27z" />
    <glyph glyph-name="ucircumflex" unicode="&#xfb;" horiz-adv-x="512" 
d="M159 314v-167q0 -57 20 -86t73 -29q46 0 81 30q20 18 20 58v164q0 33 -3.5 47.5t-9.5 19.5t-24 12l-13 5q-5 3 -5 11t6 11q82 2 117 18q8 -2 9 -7q-3 -28 -3 -87v-168q0 -64 5.5 -86.5t25.5 -22.5q16 0 39 5q5 -4 5 -15t-6 -14q-102 -21 -131 -37q-9 0 -12 7v41
q0 14 -9 14q-82 -52 -138 -52q-64 0 -92.5 31t-28.5 94v167q0 50 -4 63t-26 22l-12 5q-5 4 -4 12t6 10q61 1 107 18q9 -1 10 -7q-3 -26 -3 -87zM334 465l-73 92q-9 11 -13.5 11t-13.5 -11l-74 -92q-5 -2 -12 1.5t-8 7.5l90 177q18 33 35 0l91 -177q-1 -4 -9.5 -7.5
t-12.5 -1.5z" />
    <glyph glyph-name="udieresis" unicode="&#xfc;" horiz-adv-x="512" 
d="M159 314v-167q0 -57 20 -86t73 -29q46 0 81 30q20 18 20 58v164q0 33 -3.5 47.5t-9.5 19.5t-24 12l-13 5q-5 3 -5 11t6 11q82 2 117 18q8 -2 9 -7q-3 -28 -3 -87v-168q0 -64 5.5 -86.5t25.5 -22.5q16 0 39 5q5 -4 5 -15t-6 -14q-102 -21 -131 -37q-9 0 -12 7v41
q0 14 -9 14q-82 -52 -138 -52q-64 0 -92.5 31t-28.5 94v167q0 50 -4 63t-26 22l-12 5q-5 4 -4 12t6 10q61 1 107 18q9 -1 10 -7q-3 -26 -3 -87zM161 502q-21 0 -34.5 13t-14.5 36q-1 22 13 37t36 15q21 0 35.5 -14.5t14.5 -33.5q0 -23 -14 -38t-36 -15zM336 502
q-21 0 -35.5 13.5t-15.5 36.5q0 21 14.5 36t36.5 15q21 0 34.5 -14.5t13.5 -32.5q0 -24 -13.5 -39t-34.5 -15z" />
    <glyph glyph-name="yacute" unicode="&#xfd;" horiz-adv-x="438" 
d="M68 -249q-21 0 -32.5 12t-11.5 31t11.5 29.5t28.5 10.5h19q22 0 33 18q39 61 58 111q10 27 10 43q0 21 -17 69l-78 214q-11 31 -15.5 41.5t-15.5 22t-28 14.5l-25 5q-5 4 -4 13.5t7 11.5q48 -3 95 -3q39 0 87 3q6 -2 6.5 -11.5t-4.5 -13.5l-25 -5q-22 -5 -22 -13
q0 -12 29 -94l32 -92q26 -70 29 -71q6 4 37 74l34 79q35 83 35 100q0 13 -24 17l-31 5q-5 4 -4.5 13.5t6.5 11.5q48 -3 88 -3q34 0 76 3q6 -3 6.5 -12t-4.5 -13l-17 -3q-24 -4 -41 -26.5t-44 -79.5l-56 -115q-76 -155 -164 -350q-21 -47 -64 -47zM354 588l-125 -130
q-15 -2 -17 11l86 163q13 24 24 24q13 0 31 -15q17 -14 17 -26q0 -11 -16 -27z" />
    <glyph glyph-name="thorn" unicode="&#xfe;" horiz-adv-x="499" 
d="M151 -38v-105q0 -55 5.5 -68t32.5 -17l39 -5q5 -4 4 -13.5t-6 -11.5q-72 3 -112 3q-52 0 -94 -3q-5 2 -6 11.5t4 13.5l21 3q27 4 32.5 17.5t5.5 69.5v687q0 45 -4.5 57.5t-26.5 25.5l-10 6q-4 2 -4 10t4 10q7 3 28.5 10t42.5 15t38 17q7 0 10 -6q-4 -70 -4 -124v-191
q0 -13 7 -13q2 1 13 7t24 12t29.5 13t36 11t37.5 4q74 0 120 -52t46 -128q0 -106 -68 -174t-173 -68q-40 0 -58 4q-14 -3 -14 -28zM151 273v-172q0 -21 7 -33t24 -25q30 -24 75 -24q57 0 91.5 49t34.5 124q0 70 -35.5 119t-99.5 49q-59 0 -85 -28q-12 -15 -12 -59z" />
    <glyph glyph-name="ydieresis" unicode="&#xff;" horiz-adv-x="438" 
d="M68 -249q-21 0 -32.5 12t-11.5 31t11.5 29.5t28.5 10.5h19q22 0 33 18q39 61 58 111q10 27 10 43q0 21 -17 69l-78 214q-11 31 -15.5 41.5t-15.5 22t-28 14.5l-25 5q-5 4 -4 13.5t7 11.5q48 -3 95 -3q39 0 87 3q6 -2 6.5 -11.5t-4.5 -13.5l-25 -5q-22 -5 -22 -13
q0 -12 29 -94l32 -92q26 -70 29 -71q6 4 37 74l34 79q35 83 35 100q0 13 -24 17l-31 5q-5 4 -4.5 13.5t6.5 11.5q48 -3 88 -3q34 0 76 3q6 -3 6.5 -12t-4.5 -13l-17 -3q-24 -4 -41 -26.5t-44 -79.5l-56 -115q-76 -155 -164 -350q-21 -47 -64 -47zM153 502q-21 0 -34.5 13
t-14.5 36q-1 22 13 37t36 15q21 0 35.5 -14.5t14.5 -33.5q0 -23 -14 -38t-36 -15zM328 502q-21 0 -35.5 13.5t-15.5 36.5q0 21 14.5 36t36.5 15q21 0 34.5 -14.5t13.5 -32.5q0 -24 -13.5 -39t-34.5 -15z" />
    <glyph glyph-name="Amacron" unicode="&#x100;" horiz-adv-x="623" 
d="M451 96l-44 136q-5 17 -12 21t-29 4h-151q-19 0 -26 -4t-12 -20l-35 -105q-22 -66 -22 -83q0 -18 29 -20l33 -3q5 -4 5 -13t-7 -12q-14 1 -104 3q-15 0 -96 -3q-5 3 -5.5 12t3.5 13l33 3q42 4 60 49q5 14 20 49.5t32 79.5t36 94l102 270q20 53 17 71q26 8 52 38
q12 0 15 -9q11 -37 44 -134l137 -402q22 -64 37.5 -83t47.5 -23l27 -3q5 -4 4.5 -13t-4.5 -12q-62 3 -121 3q-28 0 -115 -3q-6 3 -6.5 12t4.5 13l29 3q35 3 35 18q0 14 -13 53zM272 495l-63 -174q-6 -17 -3 -20.5t24 -3.5h123q22 0 25.5 5.5t-3.5 25.5l-54 163
q-17 51 -23 63h-2q-6 -10 -24 -59zM425 722h-220q-8 10 -8 28.5t8 28.5h220q9 -10 9 -28.5t-9 -28.5z" />
    <glyph glyph-name="amacron" unicode="&#x101;" horiz-adv-x="404" 
d="M118 164l119 43q17 6 17 29l1 46q2 87 -73 87q-24 0 -43.5 -11.5t-20.5 -33.5q-2 -28 -10 -34q-24 -19 -57 -19q-14 0 -14 14q0 38 65 80.5t121 42.5q54 0 80 -30t24 -87l-6 -174q-4 -87 46 -87q13 0 25 6q12 7 13 7q7 0 7 -13q0 -3 -10 -13.5t-31 -20.5t-43 -10
q-41 0 -65 31q-9 14 -16 14q-3 0 -39 -20q-46 -25 -72 -25q-44 0 -70 23q-31 28 -31 70q0 30 18 49t65 36zM112 91q0 -19 15 -39.5t48 -20.5q14 0 33.5 8.5t27.5 16.5q11 11 13 47l2 59q0 13 -10 13q-11 0 -41 -10q-48 -16 -68 -31.5t-20 -42.5zM301 519h-204q-8 11 -8 29
t8 28h204q7 -10 7 -28t-7 -29z" />
    <glyph glyph-name="Abreve" unicode="&#x102;" horiz-adv-x="623" 
d="M451 96l-44 136q-5 17 -12 21t-29 4h-151q-19 0 -26 -4t-12 -20l-35 -105q-22 -66 -22 -83q0 -18 29 -20l33 -3q5 -4 5 -13t-7 -12q-14 1 -104 3q-15 0 -96 -3q-5 3 -5.5 12t3.5 13l33 3q42 4 60 49q5 14 20 49.5t32 79.5t36 94l102 270q20 53 17 71q26 8 52 38
q12 0 15 -9q11 -37 44 -134l137 -402q22 -64 37.5 -83t47.5 -23l27 -3q5 -4 4.5 -13t-4.5 -12q-62 3 -121 3q-28 0 -115 -3q-6 3 -6.5 12t4.5 13l29 3q35 3 35 18q0 14 -13 53zM272 495l-63 -174q-6 -17 -3 -20.5t24 -3.5h123q22 0 25.5 5.5t-3.5 25.5l-54 163
q-17 51 -23 63h-2q-6 -10 -24 -59zM322 715q-122 0 -119 128q4 4 14 4t14 -4q17 -66 91 -66t92 66q4 4 13.5 4t13.5 -4q3 -128 -119 -128z" />
    <glyph glyph-name="abreve" unicode="&#x103;" horiz-adv-x="404" 
d="M118 164l119 43q17 6 17 29l1 46q2 87 -73 87q-24 0 -43.5 -11.5t-20.5 -33.5q-2 -28 -10 -34q-24 -19 -57 -19q-14 0 -14 14q0 38 65 80.5t121 42.5q54 0 80 -30t24 -87l-6 -174q-4 -87 46 -87q13 0 25 6q12 7 13 7q7 0 7 -13q0 -3 -10 -13.5t-31 -20.5t-43 -10
q-41 0 -65 31q-9 14 -16 14q-3 0 -39 -20q-46 -25 -72 -25q-44 0 -70 23q-31 28 -31 70q0 30 18 49t65 36zM112 91q0 -19 15 -39.5t48 -20.5q14 0 33.5 8.5t27.5 16.5q11 11 13 47l2 59q0 13 -10 13q-11 0 -41 -10q-48 -16 -68 -31.5t-20 -42.5zM200 496q-53 0 -80.5 33
t-23.5 98q4 3 11 3t11 -3q8 -37 31.5 -55.5t50.5 -18.5t50.5 18.5t32.5 55.5q3 3 10 3t12 -3q3 -65 -24.5 -98t-80.5 -33z" />
    <glyph glyph-name="Aogonek" unicode="&#x104;" horiz-adv-x="623" 
d="M230 297h123q22 0 25.5 5.5t-3.5 25.5l-54 163q-17 51 -23 63h-2q-6 -10 -24 -59l-63 -174q-6 -17 -3 -20.5t24 -3.5zM366 257h-151q-19 0 -26 -4t-12 -20l-35 -105q-22 -66 -22 -83q0 -18 29 -20l33 -3q5 -4 5 -13t-7 -12q-14 1 -104 3q-15 0 -96 -3q-5 3 -5.5 12
t3.5 13l33 3q42 4 60 49q5 14 20 49.5t32 79.5t36 94l102 270q20 53 17 71q26 8 52 38q12 0 15 -9q11 -37 44 -134l137 -402q22 -64 37.5 -83t47.5 -23l27 -3q5 -4 4.5 -13t-4.5 -12q-62 3 -121 3h-11q-16 -41 -16 -84q0 -35 20.5 -54.5t49.5 -19.5q27 0 42 8q8 -5 8 -17
q-34 -42 -99 -42q-39 0 -62.5 23.5t-23.5 61.5q0 50 56 123q-39 0 -79 -2q-6 3 -6.5 12t4.5 13l29 3q35 3 35 18q0 14 -13 53l-44 136q-5 17 -12 21t-29 4z" />
    <glyph glyph-name="aogonek" unicode="&#x105;" horiz-adv-x="404" 
d="M112 91q0 -19 15 -39.5t48 -20.5q14 0 33.5 8.5t27.5 16.5q11 11 13 47l2 59q0 13 -10 13q-11 0 -41 -10q-48 -16 -68 -31.5t-20 -42.5zM118 164l119 43q17 6 17 29l1 46q2 87 -73 87q-24 0 -43.5 -11.5t-20.5 -33.5q-2 -28 -10 -34q-24 -19 -57 -19q-14 0 -14 14
q0 38 65 80.5t121 42.5q54 0 80 -30t24 -87l-6 -174q-4 -87 46 -87q13 0 25 6q12 7 13 7q7 0 7 -13q0 -4 -27 -29q-59 -51 -59 -118q0 -21 12 -33t31 -12q30 0 49 14q9 -3 9 -15q-35 -46 -91 -46q-36 0 -55 21.5t-19 47.5q0 60 77 127q-6 -1 -11 -1q-41 0 -65 31
q-9 14 -16 14q-3 0 -39 -20q-46 -25 -72 -25q-44 0 -70 23q-31 28 -31 70q0 30 18 49t65 36z" />
    <glyph glyph-name="Cacute" unicode="&#x106;" horiz-adv-x="696" 
d="M44 326q0 81 34 150.5t92 114.5q109 85 270 85q90 0 177 -24q20 -5 28 -4q3 -60 14 -147q-4 -5 -13 -6t-14 4q-32 146 -205 146q-122 0 -202.5 -78t-80.5 -226q0 -152 84.5 -239t212.5 -87q86 0 136.5 43t72.5 100q5 4 14 2.5t12 -6.5q-5 -37 -20.5 -79.5t-27.5 -57.5
q-14 -2 -35 -10q-20 -7 -67.5 -15t-90.5 -8q-149 0 -249 67q-142 98 -142 275zM539 778l-167 -72q-6 2 -9 9t-1 15l141 114q19 14 27 14q16 0 28 -23q13 -25 7 -41q-7 -8 -26 -16z" />
    <glyph glyph-name="cacute" unicode="&#x107;" horiz-adv-x="400" 
d="M278 408q51 0 89 -17q15 -13 15 -40q0 -14 -6.5 -25.5t-15.5 -11.5q-8 0 -14 7q-43 53 -100 53q-56 0 -97 -43t-41 -118q0 -65 43 -118t118 -53q70 0 111 60q6 2 11.5 -2.5t6.5 -11.5q-24 -51 -71 -76.5t-96 -25.5q-85 0 -137 51q-58 56 -58 148q0 90 63 156.5t179 66.5z
M325 581l-125 -130q-15 -2 -17 11l86 163q13 24 24 24q13 0 31 -15q17 -14 17 -26q0 -11 -16 -27z" />
    <glyph glyph-name="Ccaron" unicode="&#x10c;" horiz-adv-x="696" 
d="M44 326q0 81 34 150.5t92 114.5q109 85 270 85q90 0 177 -24q20 -5 28 -4q3 -60 14 -147q-4 -5 -13 -6t-14 4q-32 146 -205 146q-122 0 -202.5 -78t-80.5 -226q0 -152 84.5 -239t212.5 -87q86 0 136.5 43t72.5 100q5 4 14 2.5t12 -6.5q-5 -37 -20.5 -79.5t-27.5 -57.5
q-14 -2 -35 -10q-20 -7 -67.5 -15t-90.5 -8q-149 0 -249 67q-142 98 -142 275zM398 713l-124 108q0 6 4.5 12.5t10.5 6.5l114 -55q10 -6 15 -5.5t17 5.5l115 55q11 -2 11 -19l-122 -108q-21 -18 -41 0z" />
    <glyph glyph-name="ccaron" unicode="&#x10d;" horiz-adv-x="400" 
d="M278 408q51 0 89 -17q15 -13 15 -40q0 -14 -6.5 -25.5t-15.5 -11.5q-8 0 -14 7q-43 53 -100 53q-56 0 -97 -43t-41 -118q0 -65 43 -118t118 -53q70 0 111 60q6 2 11.5 -2.5t6.5 -11.5q-24 -51 -71 -76.5t-96 -25.5q-85 0 -137 51q-58 56 -58 148q0 90 63 156.5t179 66.5z
M153 665l75 -93q13 -17 27 0l75 93q5 1 11 -2.5t7 -10.5l-90 -177q-16 -32 -33 0l-92 177q1 13 20 13z" />
    <glyph glyph-name="Dcaron" unicode="&#x10e;" horiz-adv-x="780" 
d="M128 150v380q0 55 -8.5 74t-38.5 23l-22 3q-6 4 -6 13t7 12q136 8 251 8q139 0 220 -30q99 -36 151 -114.5t52 -180.5q0 -96 -45 -174t-130 -124q-89 -48 -224 -48q-36 0 -92.5 4t-70.5 4q-54 0 -125 -3q-5 2 -5.5 11t3.5 14l23 3q43 6 51.5 25t8.5 100zM210 542v-369
q0 -81 20 -109q29 -41 123 -41q141 0 211 84t70 229q0 37 -7 73.5t-28.5 78t-55 72.5t-91.5 51.5t-133 20.5q-80 0 -99 -14q-10 -8 -10 -76zM325 713l-124 108q0 6 4.5 12.5t10.5 6.5l114 -55q10 -6 15 -5.5t17 5.5l115 55q11 -2 11 -19l-122 -108q-20 -18 -41 0z" />
    <glyph glyph-name="dcaron" unicode="&#x10f;" horiz-adv-x="509" 
d="M424 585v-439q0 -67 5 -91.5t24 -24.5q13 0 43 10q6 -2 6 -15t-7 -17q-79 -11 -132 -32q-11 0 -11 8v17q0 27 -2 31h-4q-67 -46 -126 -46q-82 0 -133.5 55.5t-51.5 136.5q0 103 69 166.5t173 63.5q42 0 67 -9q6 0 6 14v151q0 45 -4.5 57.5t-26.5 25.5l-10 6q-4 2 -4 10
t4 10q72 23 108 42q7 0 10 -6q-3 -90 -3 -124zM350 99v197q0 23 -11 39q-30 42 -84 42q-65 0 -101.5 -48.5t-36.5 -117.5q0 -73 39.5 -125t109.5 -52q49 0 77 28q7 7 7 37zM508 715q28 0 44.5 -24t16.5 -58q0 -42 -26.5 -72t-62.5 -45q-9 3 -11.5 11t3.5 12q53 37 53 70
q0 36 -34 43q-23 6 -23 28q0 13 9.5 24t30.5 11z" />
    <glyph glyph-name="Dcroat" unicode="&#x110;" horiz-adv-x="786" 
d="M128 150v176h-90q-7 5 -7 17.5t7 17.5h90v144q0 73 -8.5 97.5t-43.5 28.5l-17 2q-6 3 -6 12t7 12q170 6 255 6q137 0 216 -29q99 -36 151 -114.5t52 -179.5q0 -98 -45 -176t-130 -124q-89 -48 -224 -48q-36 0 -92.5 4t-70.5 4q-54 0 -125 -3q-5 2 -5.5 11t3.5 14l23 3
q43 6 51.5 25t8.5 100zM210 542v-181h144q7 -5 7 -17.5t-7 -17.5h-144v-153q0 -81 20 -109q29 -41 123 -41q141 0 211 84t70 229q0 36 -7 72.5t-28.5 78t-55 72.5t-91.5 52t-133 21q-80 0 -99 -14q-10 -8 -10 -76z" />
    <glyph glyph-name="dcroat" unicode="&#x111;" horiz-adv-x="509" 
d="M350 99v197q0 23 -11 39q-30 42 -84 42q-65 0 -101.5 -48.5t-36.5 -117.5q0 -73 39.5 -125t109.5 -52q49 0 77 28q7 7 7 37zM495 564v-39h-71v-379q0 -67 5 -91.5t24 -24.5q13 0 43 10q6 -2 6 -15t-7 -17q-79 -11 -132 -32q-11 0 -11 8v17q0 27 -2 31h-4
q-67 -46 -126 -46q-82 0 -133.5 55.5t-51.5 136.5q0 103 69 166.5t173 63.5q42 0 67 -9q6 0 6 14v112h-115v39h115q0 45 -5 57.5t-26 25.5l-10 6q-4 2 -4 10t4 10q72 23 108 42q7 0 10 -6q-3 -90 -3 -124v-21h71z" />
    <glyph glyph-name="Emacron" unicode="&#x112;" horiz-adv-x="584" 
d="M128 150v360q0 81 -9 101t-52 25l-16 2q-4 3 -3.5 13t5.5 12q65 -3 118 -3h188q123 0 135 3q5 -15 16 -133q-3 -5 -12 -5.5t-13 3.5q-7 21 -9 27.5t-9 21.5t-13.5 21t-18 13.5t-26.5 11.5q-25 6 -97 6h-72q-22 0 -26 -5.5t-4 -34.5v-200q0 -20 5 -24t28 -4h58q67 0 85 6
t24 35l8 41q4 5 13.5 4.5t12.5 -5.5q0 -10 -2 -45t-2 -56q0 -20 2 -53.5t2 -42.5q-3 -5 -12.5 -5.5t-13.5 4.5l-9 39q-7 32 -31 38q-18 5 -77 5h-58q-23 0 -28 -4t-5 -23v-141q0 -84 19 -104q23 -23 121 -23t128 15q31 17 71 97q5 4 13.5 2t11.5 -9q-16 -78 -45 -139
q-135 3 -268 3h-90q-47 0 -136 -3q-5 2 -5.5 11t3.5 14l33 3q42 4 52 24.5t10 100.5zM410 722h-220q-8 10 -8 28.5t8 28.5h220q9 -10 9 -28.5t-9 -28.5z" />
    <glyph glyph-name="emacron" unicode="&#x113;" horiz-adv-x="396" 
d="M315 256h-185q-19 0 -23 -4t-4 -23q0 -79 44.5 -133t121.5 -54q53 0 92 49q16 5 18 -12q-23 -47 -67.5 -70t-89.5 -23q-95 0 -145 66q-42 55 -42 130q0 94 56.5 160t144.5 66q62 0 102 -36t40 -83q0 -18 -4 -26q-4 -7 -59 -7zM121 286h71q91 0 104 10q6 4 6 19
q0 25 -18.5 44t-58.5 19q-41 0 -75.5 -30t-35.5 -57q0 -5 7 -5zM323 509h-195q-8 9 -8 27t8 27h195q7 -9 7 -27t-7 -27z" />
    <glyph glyph-name="Edotaccent" unicode="&#x116;" horiz-adv-x="584" 
d="M128 150v360q0 81 -9 101t-52 25l-16 2q-4 3 -3.5 13t5.5 12q65 -3 118 -3h188q123 0 135 3q5 -15 16 -133q-3 -5 -12 -5.5t-13 3.5q-7 21 -9 27.5t-9 21.5t-13.5 21t-18 13.5t-26.5 11.5q-25 6 -97 6h-72q-22 0 -26 -5.5t-4 -34.5v-200q0 -20 5 -24t28 -4h58q67 0 85 6
t24 35l8 41q4 5 13.5 4.5t12.5 -5.5q0 -10 -2 -45t-2 -56q0 -20 2 -53.5t2 -42.5q-3 -5 -12.5 -5.5t-13.5 4.5l-9 39q-7 32 -31 38q-18 5 -77 5h-58q-23 0 -28 -4t-5 -23v-141q0 -84 19 -104q23 -23 121 -23t128 15q31 17 71 97q5 4 13.5 2t11.5 -9q-16 -78 -45 -139
q-135 3 -268 3h-90q-47 0 -136 -3q-5 2 -5.5 11t3.5 14l33 3q42 4 52 24.5t10 100.5zM308 707q-24 0 -38.5 14t-15.5 39q-1 23 14.5 38.5t39.5 15.5q22 0 37.5 -15.5t15.5 -35.5q0 -25 -15 -40.5t-38 -15.5z" />
    <glyph glyph-name="edotaccent" unicode="&#x117;" horiz-adv-x="396" 
d="M315 256h-185q-19 0 -23 -4t-4 -23q0 -79 44.5 -133t121.5 -54q53 0 92 49q16 5 18 -12q-23 -47 -67.5 -70t-89.5 -23q-95 0 -145 66q-42 55 -42 130q0 94 56.5 160t144.5 66q62 0 102 -36t40 -83q0 -18 -4 -26q-4 -7 -59 -7zM121 286h71q91 0 104 10q6 4 6 19
q0 25 -18.5 44t-58.5 19q-41 0 -75.5 -30t-35.5 -57q0 -5 7 -5zM232 604q22 0 35 -15t13 -37q0 -25 -14.5 -37.5t-36.5 -12.5q-23 0 -36.5 14t-13.5 35q0 24 15 38.5t38 14.5z" />
    <glyph glyph-name="Eogonek" unicode="&#x118;" horiz-adv-x="584" 
d="M128 150v360q0 81 -9 101t-52 25l-16 2q-4 3 -3.5 13t5.5 12q65 -3 118 -3h188q123 0 135 3q5 -15 16 -133q-3 -5 -12 -5.5t-13 3.5q-7 21 -9 27.5t-9 21.5t-13.5 21t-18 13.5t-26.5 11.5q-25 6 -97 6h-72q-22 0 -26 -5.5t-4 -34.5v-200q0 -20 5 -24t28 -4h58q67 0 85 6
t24 35l8 41q4 5 13.5 4.5t12.5 -5.5q0 -10 -2 -45t-2 -56q0 -20 2 -53.5t2 -42.5q-3 -5 -12.5 -5.5t-13.5 4.5l-9 39q-7 32 -31 38q-18 5 -77 5h-58q-23 0 -28 -4t-5 -23v-141q0 -84 19 -104q23 -23 121 -23t128 15q31 17 71 97q5 4 13.5 2t11.5 -9q-16 -78 -45 -139
q-27 0 -40 1q-24 -45 -24 -87q0 -32 20.5 -50.5t49.5 -18.5q27 0 42 8q8 -5 8 -17q-34 -42 -103 -42q-36 0 -59 23.5t-23 57.5q0 60 64 126q-136 2 -203 2h-90q-47 0 -136 -3q-5 2 -5.5 11t3.5 14l33 3q42 4 52 24.5t10 100.5z" />
    <glyph glyph-name="eogonek" unicode="&#x119;" horiz-adv-x="396" 
d="M121 286h71q91 0 104 10q6 4 6 19q0 25 -18.5 44t-58.5 19q-41 0 -75.5 -30t-35.5 -57q0 -5 7 -5zM236 408q62 0 102 -36t40 -83q0 -18 -4 -26q-4 -7 -59 -7h-185q-19 0 -23 -4t-4 -23q0 -79 44.5 -133t121.5 -54q51 0 92 49q16 5 18 -12q-11 -19 -57 -65
q-77 -74 -77 -133q0 -19 12 -31t30 -12q30 0 49 14q9 -3 9 -15q-35 -46 -93 -46q-29 0 -48 18.5t-19 45.5q0 55 90 139q-12 -5 -25 -6q-16 -2 -25 -2q-98 0 -148 66q-42 55 -42 130q0 94 56.5 160t144.5 66z" />
    <glyph glyph-name="Ecaron" unicode="&#x11a;" horiz-adv-x="584" 
d="M128 150v360q0 81 -9 101t-52 25l-16 2q-4 3 -3.5 13t5.5 12q65 -3 118 -3h188q123 0 135 3q5 -15 16 -133q-3 -5 -12 -5.5t-13 3.5q-7 21 -9 27.5t-9 21.5t-13.5 21t-18 13.5t-26.5 11.5q-25 6 -97 6h-72q-22 0 -26 -5.5t-4 -34.5v-200q0 -20 5 -24t28 -4h58q67 0 85 6
t24 35l8 41q4 5 13.5 4.5t12.5 -5.5q0 -10 -2 -45t-2 -56q0 -20 2 -53.5t2 -42.5q-3 -5 -12.5 -5.5t-13.5 4.5l-9 39q-7 32 -31 38q-18 5 -77 5h-58q-23 0 -28 -4t-5 -23v-141q0 -84 19 -104q23 -23 121 -23t128 15q31 17 71 97q5 4 13.5 2t11.5 -9q-16 -78 -45 -139
q-135 3 -268 3h-90q-47 0 -136 -3q-5 2 -5.5 11t3.5 14l33 3q42 4 52 24.5t10 100.5zM284 713l-123 113q0 7 4 13.5t10 6.5l114 -57q10 -6 15 -5.5t17 5.5l116 57q11 -2 11 -20l-122 -113q-20 -19 -42 0z" />
    <glyph glyph-name="ecaron" unicode="&#x11b;" horiz-adv-x="396" 
d="M315 256h-185q-19 0 -23 -4t-4 -23q0 -79 44.5 -133t121.5 -54q53 0 92 49q16 5 18 -12q-23 -47 -67.5 -70t-89.5 -23q-95 0 -145 66q-42 55 -42 130q0 94 56.5 160t144.5 66q62 0 102 -36t40 -83q0 -18 -4 -26q-4 -7 -59 -7zM121 286h71q91 0 104 10q6 4 6 19
q0 25 -18.5 44t-58.5 19q-41 0 -75.5 -30t-35.5 -57q0 -5 7 -5zM138 663l75 -93q13 -17 27 0l75 93q5 1 11 -2.5t7 -10.5l-90 -177q-16 -32 -33 0l-92 177q1 13 20 13z" />
    <glyph glyph-name="Gbreve" unicode="&#x11e;" horiz-adv-x="747" 
d="M648 158v-56q0 -62 24 -71q6 -6 -1 -12q-15 0 -49 -9q-98 -26 -179 -26q-195 0 -305 111q-92 92 -92 227q0 141 90 237q112 117 317 117q63 0 127 -15q51 -11 62 -9q0 -45 15 -145q-2 -6 -12.5 -7t-14.5 4q-20 77 -71.5 109.5t-133.5 32.5q-137 0 -208 -83t-71 -205
q0 -151 77.5 -247t222.5 -96q91 0 110 30q10 14 10 57v40q0 63 -9.5 77.5t-55.5 19.5l-44 5q-6 3 -5.5 13t5.5 12q44 -3 143 -3q56 0 106 3q5 -3 5.5 -11.5t-4.5 -13.5l-16 -2q-29 -3 -36 -21t-7 -63zM404 725q-122 0 -119 128q4 4 14 4t14 -4q17 -65 91 -65q75 0 92 65
q4 4 13.5 4t13.5 -4q3 -128 -119 -128z" />
    <glyph glyph-name="gbreve" unicode="&#x11f;" horiz-adv-x="446" 
d="M365 372h81q9 -4 7 -22t-13 -19h-72q2 -17 2 -51q0 -28 -9 -54.5t-27 -50.5t-52.5 -39t-79.5 -15q-8 0 -44 3q-44 -26 -44 -55q0 -18 18 -30t52 -12q16 0 56 1.5t63 1.5q140 0 140 -110q0 -80 -74.5 -134.5t-174.5 -54.5q-84 0 -125 35.5t-41 80.5q0 24 11 37
q10 10 35 34.5t33 32.5q18 18 8 24q-30 8 -51.5 30.5t-21.5 48.5q0 6 15 17q25 16 53 46q10 12 10 19q-75 40 -75 121q0 64 48 107.5t115 43.5q50 0 96 -20q37 -16 61 -16zM271 -32h-34q-69 0 -86 -11q-48 -30 -48 -84q0 -43 34.5 -71t99.5 -28t106.5 31.5t41.5 75.5
q0 87 -114 87zM217 150q39 0 60.5 28.5t21.5 75.5q0 54 -22.5 89.5t-66.5 35.5q-37 0 -60.5 -31t-23.5 -81q0 -52 27 -84.5t64 -32.5zM220 482q-53 0 -80.5 33t-23.5 98q4 3 11 3t11 -3q8 -37 31.5 -55.5t50.5 -18.5t50.5 18.5t32.5 55.5q3 3 10 3t12 -3q3 -65 -24.5 -98
t-80.5 -33z" />
    <glyph glyph-name="Gcommaaccent" unicode="&#x122;" horiz-adv-x="747" 
d="M648 158v-56q0 -62 24 -71q6 -6 -1 -12q-15 0 -49 -9q-98 -26 -179 -26q-195 0 -305 111q-92 92 -92 227q0 141 90 237q112 117 317 117q63 0 127 -15q51 -11 62 -9q0 -45 15 -145q-2 -6 -12.5 -7t-14.5 4q-20 77 -71.5 109.5t-133.5 32.5q-137 0 -208 -83t-71 -205
q0 -151 77.5 -247t222.5 -96q91 0 110 30q10 14 10 57v40q0 63 -9.5 77.5t-55.5 19.5l-44 5q-6 3 -5.5 13t5.5 12q44 -3 143 -3q56 0 106 3q5 -3 5.5 -11.5t-4.5 -13.5l-16 -2q-29 -3 -36 -21t-7 -63zM410 -58q25 0 46 -22t21 -61q0 -94 -110 -128q-6 3 -7 15.5t2 15.5
q23 8 43 26t20 44q0 9 -3.5 16.5t-9.5 12.5t-11 8.5t-11 6.5l-7 3q-15 8 -15 25q0 15 11.5 26.5t30.5 11.5z" />
    <glyph glyph-name="gcommaaccent" unicode="&#x123;" horiz-adv-x="446" 
d="M365 372h81q9 -4 7 -22t-13 -19h-72q2 -17 2 -51q0 -28 -9 -54.5t-27 -50.5t-52.5 -39t-79.5 -15q-8 0 -44 3q-44 -26 -44 -55q0 -18 18 -30t52 -12q16 0 56 1.5t63 1.5q140 0 140 -110q0 -80 -74.5 -134.5t-174.5 -54.5q-84 0 -125 35.5t-41 80.5q0 24 11 37
q10 10 35 34.5t33 32.5q18 18 8 24q-30 8 -51.5 30.5t-21.5 48.5q0 6 15 17q25 16 53 46q10 12 10 19q-75 40 -75 121q0 64 48 107.5t115 43.5q50 0 96 -20q37 -16 61 -16zM271 -32h-34q-69 0 -86 -11q-48 -30 -48 -84q0 -43 34.5 -71t99.5 -28t106.5 31.5t41.5 75.5
q0 87 -114 87zM217 150q39 0 60.5 28.5t21.5 75.5q0 54 -22.5 89.5t-66.5 35.5q-37 0 -60.5 -31t-23.5 -81q0 -52 27 -84.5t64 -32.5zM228 496q-28 0 -47.5 18.5t-19.5 49.5q0 89 110 119q6 -2 7.5 -11.5t-2.5 -12.5q-21 -6 -40 -22.5t-19 -37.5q0 -7 2.5 -13t5.5 -10
t8.5 -8t8.5 -5.5t8 -4.5l6 -2q14 -9 14 -23q0 -16 -11 -26.5t-31 -10.5z" />
    <glyph glyph-name="Imacron" unicode="&#x12a;" horiz-adv-x="338" 
d="M128 152v356q0 83 -9 103.5t-52 24.5l-25 2q-4 3 -3.5 13t5.5 12q75 -3 126 -3q49 0 124 3q5 -2 5.5 -12t-3.5 -13l-25 -2q-43 -4 -52 -24.5t-9 -103.5v-356q0 -82 9 -102t52 -25l25 -3q4 -3 3.5 -13t-5.5 -12q-75 3 -124 3q-51 0 -126 -3q-5 2 -5.5 11t3.5 14l25 3
q43 5 52 25t9 102zM277 722h-210q-7 10 -7 28.5t7 28.5h210q8 -10 8 -28.5t-8 -28.5z" />
    <glyph glyph-name="imacron" unicode="&#x12b;" horiz-adv-x="257" 
d="M98 112v175q0 31 -3.5 40t-23.5 22l-9 6q-3 3 -3 9.5t4 8.5q60 21 103 49q8 0 10 -6q-4 -70 -4 -124v-180q0 -55 6 -69t32 -18l21 -3q5 -4 4 -13.5t-6 -11.5q-45 3 -94 3q-52 0 -94 -3q-5 2 -6 11.5t4 13.5l21 3q27 4 32.5 17.5t5.5 69.5zM233 514h-204q-8 10 -8 30t8 31
h204q7 -11 7 -31t-7 -30z" />
    <glyph glyph-name="Iogonek" unicode="&#x12e;" horiz-adv-x="338" 
d="M128 152v356q0 83 -9 103.5t-52 24.5l-25 2q-4 3 -3.5 13t5.5 12q75 -3 126 -3q49 0 124 3q5 -2 5.5 -12t-3.5 -13l-25 -2q-43 -4 -52 -24.5t-9 -103.5v-356q0 -82 9 -102t52 -25l25 -3q4 -3 3.5 -13t-5.5 -12q-75 3 -124 3h-3q-17 -40 -17 -84q0 -35 20.5 -54.5
t49.5 -19.5q27 0 42 8q8 -5 8 -17q-34 -42 -99 -42q-39 0 -62.5 23.5t-23.5 61.5q0 50 56 123q-59 0 -97 -2q-5 2 -5.5 11t3.5 14l25 3q43 5 52 25t9 102z" />
    <glyph glyph-name="iogonek" unicode="&#x12f;" horiz-adv-x="257" 
d="M131 624q22 0 36 -15t14 -37q0 -26 -15 -39t-38 -13t-37 14.5t-14 35.5q0 24 15.5 39t38.5 15zM98 112v175q0 31 -3.5 40t-23.5 22l-9 6q-3 3 -3 9.5t4 8.5q60 21 103 49q8 0 10 -6q-4 -70 -4 -124v-180q0 -55 6 -69t32 -18l21 -3q5 -4 4 -13.5t-6 -11.5q-45 3 -94 3
q-17 -40 -17 -84q0 -35 20.5 -54.5t49.5 -19.5q27 0 42 8q8 -5 8 -17q-34 -42 -99 -42q-39 0 -62.5 23.5t-23.5 61.5q0 50 56 123q-28 0 -68 -2q-5 2 -6 11.5t4 13.5l21 3q27 4 32.5 17.5t5.5 69.5z" />
    <glyph glyph-name="Idotaccent" unicode="&#x130;" horiz-adv-x="338" 
d="M128 152v356q0 83 -9 103.5t-52 24.5l-25 2q-4 3 -3.5 13t5.5 12q75 -3 126 -3q49 0 124 3q5 -2 5.5 -12t-3.5 -13l-25 -2q-43 -4 -52 -24.5t-9 -103.5v-356q0 -82 9 -102t52 -25l25 -3q4 -3 3.5 -13t-5.5 -12q-75 3 -124 3q-51 0 -126 -3q-5 2 -5.5 11t3.5 14l25 3
q43 5 52 25t9 102zM170 707q-24 0 -38.5 14t-15.5 39q-1 23 14.5 38.5t39.5 15.5q22 0 37.5 -15.5t15.5 -35.5q0 -25 -15 -40.5t-38 -15.5z" />
    <glyph glyph-name="dotlessi" unicode="&#x131;" horiz-adv-x="257" 
d="M98 112v175q0 31 -3.5 40t-23.5 22l-9 6q-3 3 -3 9.5t4 8.5q60 21 103 49q8 0 10 -6q-4 -70 -4 -124v-180q0 -55 6 -69t32 -18l21 -3q5 -4 4 -13.5t-6 -11.5q-45 3 -94 3q-52 0 -94 -3q-5 2 -6 11.5t4 13.5l21 3q27 4 32.5 17.5t5.5 69.5z" />
    <glyph glyph-name="Kcommaaccent" unicode="&#x136;" horiz-adv-x="675" 
d="M128 150v360q0 82 -9 102t-51 24l-25 2q-4 3 -3.5 13t5.5 12q74 -3 126 -3t116 3q5 -2 5.5 -12t-3.5 -13l-19 -2q-42 -4 -51 -24.5t-9 -101.5v-115q0 -38 13 -38t28 11q8 7 28 26t23 22l108 107q58 55 78 83q7 10 7 16t-17 10l-27 6q-5 5 -4.5 13t6.5 12q52 -3 110 -3
q54 0 99 3q5 -4 6 -12.5t-4 -12.5q-51 -4 -93 -28q-44 -25 -140 -116l-90 -85q-23 -23 -23 -31t19 -31q189 -217 250 -281q36 -36 80 -41l27 -3q5 -4 4 -13.5t-6 -11.5q-39 3 -112 3q-53 0 -122 -3q-5 2 -6.5 11t2.5 14l23 4q24 3 24 10q0 5 -14 23q-1 1 -83 94l-80 90
q-60 67 -74 77q-11 7 -23 7q-11 0 -14 -10t-3 -38v-129q0 -81 8.5 -101t49.5 -24l27 -3q4 -3 3.5 -13t-5.5 -12q-74 3 -122 3q-54 0 -116 -3q-5 2 -5.5 11t3.5 14l20 3q39 6 47 25t8 100zM343 -58q27 0 50 -22t23 -61q0 -96 -117 -128q-6 3 -9.5 15.5t0.5 15.5q24 7 44 25.5
t20 44.5q0 6 -1.5 12t-5 10.5t-7 8t-8.5 6.5l-7.5 4.5t-6.5 3.5l-5 2q-17 9 -17 25q0 15 13 26.5t34 11.5z" />
    <glyph glyph-name="kcommaaccent" unicode="&#x137;" horiz-adv-x="482" 
d="M88 112v452q0 45 -4.5 57.5t-26.5 25.5l-10 6q-4 2 -4 10t4 10q72 23 108 42q7 0 10 -6q-3 -90 -3 -124v-343q0 -10 3 -12.5t15 -2.5q30 0 68 39l41 44q35 38 35 46q0 7 -22 10l-24 3q-7 2 -7 12.5t7 12.5h23q84 0 159 8q5 -2 6 -11.5t-4 -13.5l-32 -6q-26 -5 -63 -35
q-13 -10 -91 -84q-15 -14 -7 -24q22 -29 67 -80q71 -80 94 -102q18 -16 52 -22l14 -2q5 -4 4.5 -13.5t-6.5 -11.5q-44 3 -95 3q-61 0 -104 -3q-6 3 -6.5 12.5t4.5 12.5l18 3q25 3 25 10q0 8 -17 28l-107 124q-13 14 -31 14q-13 0 -16 -5t-3 -29v-55q0 -55 6 -69t32 -18
l24 -3q5 -4 4 -13.5t-6 -11.5q-50 3 -97 3q-51 0 -96 -3q-5 2 -6 11.5t5 13.5l22 3q27 4 32.5 17.5t5.5 69.5zM228 -58q28 0 52 -22t24 -61q0 -95 -123 -128q-6 3 -8 15.5t2 15.5q25 7 45 25.5t20 44.5q0 6 -2 12t-5.5 10.5t-6.5 8t-8 6.5t-8 4.5t-8 3.5l-4 2q-16 8 -16 25
q0 15 12.5 26.5t33.5 11.5z" />
    <glyph glyph-name="Lacute" unicode="&#x139;" horiz-adv-x="553" 
d="M128 150v360q0 82 -9.5 102t-55.5 24l-25 2q-4 3 -3.5 13t5.5 12q84 -3 130 -3q48 0 123 3q5 -2 5.5 -12t-3.5 -13l-24 -2q-43 -4 -52 -24t-9 -102v-348q0 -50 4 -72t17 -36q23 -23 109 -23q99 0 122 13q36 21 66 99q4 4 14.5 1.5t10.5 -7.5q0 -10 -16 -65.5t-26 -74.5
q-77 3 -249 3h-92q-46 0 -130 -3q-5 2 -5.5 11t3.5 14l30 3q42 4 51 24t9 101zM319 778l-167 -72q-6 2 -9 9t-1 15l141 115q19 13 27 13q16 0 28 -23q13 -25 7 -41q-7 -8 -26 -16z" />
    <glyph glyph-name="lacute" unicode="&#x13a;" horiz-adv-x="247" 
d="M162 585v-473q0 -55 6 -69t32 -18l24 -3q5 -4 4 -13.5t-6 -11.5q-50 3 -97 3q-51 0 -96 -3q-5 2 -6 11.5t4 13.5l23 3q27 4 32.5 17.5t5.5 69.5v452q0 45 -4.5 57.5t-26.5 25.5l-10 6q-4 2 -4 10t4 10q72 23 108 42q7 0 10 -6q-3 -90 -3 -124zM235 794l-158 -68
q-14 5 -9 23l133 108q16 13 26 13q14 0 26 -22q12 -24 6 -39q-4 -6 -24 -15z" />
    <glyph glyph-name="Lcommaaccent" unicode="&#x13b;" horiz-adv-x="553" 
d="M128 150v360q0 82 -9.5 102t-55.5 24l-25 2q-4 3 -3.5 13t5.5 12q84 -3 130 -3q48 0 123 3q5 -2 5.5 -12t-3.5 -13l-24 -2q-43 -4 -52 -24t-9 -102v-348q0 -50 4 -72t17 -36q23 -23 109 -23q99 0 122 13q36 21 66 99q4 4 14.5 1.5t10.5 -7.5q0 -10 -16 -65.5t-26 -74.5
q-77 3 -249 3h-92q-46 0 -130 -3q-5 2 -5.5 11t3.5 14l30 3q42 4 51 24t9 101zM294 -58q27 0 50 -22t23 -61q0 -94 -121 -128q-6 3 -7.5 15.5t2.5 15.5q26 8 47.5 26t21.5 44q0 7 -3 14t-7 11t-10 8.5t-10.5 6.5t-9.5 4.5t-6 2.5q-17 9 -17 25q0 15 13 26.5t34 11.5z" />
    <glyph glyph-name="lcommaaccent" unicode="&#x13c;" horiz-adv-x="247" 
d="M162 585v-473q0 -55 6 -69t32 -18l24 -3q5 -4 4 -13.5t-6 -11.5q-50 3 -97 3q-51 0 -96 -3q-5 2 -6 11.5t4 13.5l23 3q27 4 32.5 17.5t5.5 69.5v452q0 45 -4.5 57.5t-26.5 25.5l-10 6q-4 2 -4 10t4 10q72 23 108 42q7 0 10 -6q-3 -90 -3 -124zM111 -53q28 0 53 -22
t25 -61q0 -93 -125 -128q-6 3 -8 15.5t2 15.5q25 7 45 25.5t20 44.5q0 6 -2 12t-5.5 10.5t-6.5 8t-8 6.5t-8 4.5l-7 3.5l-5 2q-16 8 -16 25q0 15 12.5 26.5t33.5 11.5z" />
    <glyph glyph-name="Lcaron" unicode="&#x13d;" horiz-adv-x="553" 
d="M128 150v360q0 82 -9.5 102t-55.5 24l-25 2q-4 3 -3.5 13t5.5 12q84 -3 130 -3q48 0 123 3q5 -2 5.5 -12t-3.5 -13l-24 -2q-43 -4 -52 -24t-9 -102v-348q0 -50 4 -72t17 -36q23 -23 109 -23q95 0 123 15q34 18 65 97q4 4 14.5 1.5t10.5 -7.5q0 -10 -16 -65.5t-26 -74.5
q-77 3 -249 3h-92q-46 0 -130 -3q-5 2 -5.5 11t3.5 14l30 3q42 4 51 24t9 101zM399 680q32 0 53.5 -24t21.5 -57q0 -94 -112 -122q-13 10 -6 26q24 12 41.5 31.5t17.5 39.5t-12 32t-23 13q-25 2 -25 25q0 14 10 25t34 11z" />
    <glyph glyph-name="lcaron" unicode="&#x13e;" horiz-adv-x="247" 
d="M162 585v-473q0 -55 6 -69t32 -18l24 -3q5 -4 4 -13.5t-6 -11.5q-50 3 -97 3q-51 0 -96 -3q-5 2 -6 11.5t4 13.5l23 3q27 4 32.5 17.5t5.5 69.5v452q0 45 -4.5 57.5t-26.5 25.5l-10 6q-4 2 -4 10t4 10q72 23 108 42q7 0 10 -6q-3 -90 -3 -124zM236 715q25 0 41 -24
t16 -58q0 -42 -25 -72t-60 -45q-9 3 -11.5 11t3.5 12q53 37 53 70q0 36 -34 43q-23 6 -23 28q0 13 9.5 24t30.5 11z" />
    <glyph glyph-name="Lslash" unicode="&#x141;" horiz-adv-x="559" 
d="M134 150v134l-106 -72q-20 5 -16 32l122 83v183q0 82 -9.5 102t-55.5 24l-25 2q-4 3 -3.5 13t5.5 12q84 -3 130 -3q48 0 123 3q5 -2 5.5 -12t-3.5 -13l-24 -2q-43 -4 -52 -24t-9 -102v-126l137 91q9 -4 13.5 -13t1.5 -19l-152 -102v-179q0 -50 4 -72t17 -36
q23 -23 109 -23q99 0 122 13q36 21 66 99q4 4 14.5 1.5t10.5 -7.5q0 -10 -16 -65.5t-26 -74.5q-77 3 -249 3h-92q-46 0 -130 -3q-5 2 -5.5 11t3.5 14l30 3q42 4 51 24t9 101z" />
    <glyph glyph-name="lslash" unicode="&#x142;" horiz-adv-x="261" 
d="M285 413l-115 -101v-200q0 -55 6 -69t32 -18l24 -3q5 -4 4 -13.5t-6 -11.5q-50 3 -97 3q-51 0 -96 -3q-5 2 -6 11.5t4 13.5l23 3q27 4 32.5 17.5t5.5 69.5v135l-83 -71q-9 2 -13.5 10.5t-2.5 18.5l99 86v273q0 45 -4.5 57.5t-26.5 25.5l-10 6q-4 2 -4 10t4 10
q72 23 108 42q7 0 10 -6q-3 -90 -3 -124v-229l97 85q23 -6 18 -28z" />
    <glyph glyph-name="Nacute" unicode="&#x143;" horiz-adv-x="783" 
d="M666 409v-239q0 -149 3 -175q-4 -11 -19 -11q-19 27 -128 151l-232 264q-6 7 -55 64.5t-61 70.5h-2q-5 -15 -5 -65v-218q0 -175 18 -207q9 -16 51 -19l31 -3q4 -6 3.5 -13.5t-5.5 -11.5q-67 3 -117 3q-52 0 -104 -3q-5 4 -6 12.5t4 12.5l27 3q37 5 44 20q13 33 13 206
v289q0 48 -22 72q-19 19 -62 24l-17 2q-5 4 -4.5 13t6.5 12q42 -3 113 -3q26 0 46 3q20 -50 171 -220l97 -109q132 -147 165 -181h2q4 5 4 42v214q0 175 -20 207q-9 13 -62 20l-17 2q-5 4 -4.5 13.5t6.5 11.5q69 -3 118 -3q52 0 103 3q6 -4 6.5 -12.5t-4.5 -12.5l-14 -2
q-49 -8 -56 -21q-15 -32 -15 -206zM518 778l-167 -72q-6 2 -9 9t-1 15l141 115q19 13 27 13q17 0 28 -23q14 -26 6 -41q-5 -8 -25 -16z" />
    <glyph glyph-name="nacute" unicode="&#x144;" horiz-adv-x="525" 
d="M98 112v175q0 31 -3.5 40t-23.5 22l-9 6q-3 3 -3 9.5t4 8.5q20 7 53 23t47 26q8 0 11 -7q-2 -23 -2 -47q0 -11 11 -11q82 51 140 51q59 0 88 -35t29 -89v-172q0 -55 6 -69t32 -18l22 -3q5 -4 4 -13.5t-6 -11.5q-45 3 -94 3q-52 0 -93 -3q-5 2 -6 11.5t4 13.5l19 3
q27 4 32.5 17.5t5.5 69.5v149q0 99 -94 99q-59 0 -85 -35q-15 -20 -15 -60v-153q0 -55 5.5 -69t32.5 -18l18 -3q5 -4 4 -13.5t-6 -11.5q-40 3 -91 3q-52 0 -94 -3q-5 2 -6 11.5t4 13.5l21 3q27 4 32.5 17.5t5.5 69.5zM383 591l-125 -130q-15 -2 -17 11l86 163q13 24 24 24
q13 0 31 -15q17 -14 17 -26q0 -11 -16 -27z" />
    <glyph glyph-name="Ncommaaccent" unicode="&#x145;" horiz-adv-x="783" 
d="M666 409v-239q0 -149 3 -175q-4 -11 -19 -11q-19 27 -128 151l-232 264q-6 7 -55 64.5t-61 70.5h-2q-5 -15 -5 -65v-218q0 -175 18 -207q9 -16 51 -19l31 -3q4 -6 3.5 -13.5t-5.5 -11.5q-67 3 -117 3q-52 0 -104 -3q-5 4 -6 12.5t4 12.5l27 3q37 5 44 20q13 33 13 206
v289q0 48 -22 72q-19 19 -62 24l-17 2q-5 4 -4.5 13t6.5 12q42 -3 113 -3q26 0 46 3q20 -50 171 -220l97 -109q132 -147 165 -181h2q4 5 4 42v214q0 175 -20 207q-9 13 -62 20l-17 2q-5 4 -4.5 13.5t6.5 11.5q69 -3 118 -3q52 0 103 3q6 -4 6.5 -12.5t-4.5 -12.5l-14 -2
q-49 -8 -56 -21q-15 -32 -15 -206zM385 -58q27 0 51 -22.5t24 -62.5q0 -94 -119 -126q-6 3 -9.5 15.5t0.5 15.5q26 8 47.5 26t21.5 44q0 7 -3 14t-7 11t-10 8.5t-10.5 6.5t-9.5 4.5t-6 2.5q-17 9 -17 25q0 15 13 26.5t34 11.5z" />
    <glyph glyph-name="ncommaaccent" unicode="&#x146;" horiz-adv-x="525" 
d="M98 112v175q0 31 -3.5 40t-23.5 22l-9 6q-3 3 -3 9.5t4 8.5q20 7 53 23t47 26q8 0 11 -7q-2 -23 -2 -47q0 -11 11 -11q82 51 140 51q59 0 88 -35t29 -89v-172q0 -55 6 -69t32 -18l22 -3q5 -4 4 -13.5t-6 -11.5q-45 3 -94 3q-52 0 -93 -3q-5 2 -6 11.5t4 13.5l19 3
q27 4 32.5 17.5t5.5 69.5v149q0 99 -94 99q-59 0 -85 -35q-15 -20 -15 -60v-153q0 -55 5.5 -69t32.5 -18l18 -3q5 -4 4 -13.5t-6 -11.5q-40 3 -91 3q-52 0 -94 -3q-5 2 -6 11.5t4 13.5l21 3q27 4 32.5 17.5t5.5 69.5zM251 -58q25 0 46 -22t21 -61q0 -94 -110 -128
q-6 3 -7 15.5t2 15.5q23 8 43 26t20 44q0 9 -3.5 16.5t-9.5 12.5t-11 8.5t-12 6.5l-6 3q-15 8 -15 25q0 15 11.5 26.5t30.5 11.5z" />
    <glyph glyph-name="Ncaron" unicode="&#x147;" horiz-adv-x="783" 
d="M666 409v-239q0 -149 3 -175q-4 -11 -19 -11q-19 27 -128 151l-232 264q-6 7 -55 64.5t-61 70.5h-2q-5 -15 -5 -65v-218q0 -175 18 -207q9 -16 51 -19l31 -3q4 -6 3.5 -13.5t-5.5 -11.5q-67 3 -117 3q-52 0 -104 -3q-5 4 -6 12.5t4 12.5l27 3q37 5 44 20q13 33 13 206
v289q0 48 -22 72q-19 19 -62 24l-17 2q-5 4 -4.5 13t6.5 12q42 -3 113 -3q26 0 46 3q20 -50 171 -220l97 -109q132 -147 165 -181h2q4 5 4 42v214q0 175 -20 207q-9 13 -62 20l-17 2q-5 4 -4.5 13.5t6.5 11.5q69 -3 118 -3q52 0 103 3q6 -4 6.5 -12.5t-4.5 -12.5l-14 -2
q-49 -8 -56 -21q-15 -32 -15 -206zM372 713l-124 113q0 7 4.5 13.5t10.5 6.5l116 -59q13 -7 28 0l117 59q11 -2 11 -20l-122 -113q-20 -18 -41 0z" />
    <glyph glyph-name="ncaron" unicode="&#x148;" horiz-adv-x="525" 
d="M98 112v175q0 31 -3.5 40t-23.5 22l-9 6q-3 3 -3 9.5t4 8.5q20 7 53 23t47 26q8 0 11 -7q-2 -23 -2 -47q0 -11 11 -11q82 51 140 51q59 0 88 -35t29 -89v-172q0 -55 6 -69t32 -18l22 -3q5 -4 4 -13.5t-6 -11.5q-45 3 -94 3q-52 0 -93 -3q-5 2 -6 11.5t4 13.5l19 3
q27 4 32.5 17.5t5.5 69.5v149q0 99 -94 99q-59 0 -85 -35q-15 -20 -15 -60v-153q0 -55 5.5 -69t32.5 -18l18 -3q5 -4 4 -13.5t-6 -11.5q-40 3 -91 3q-52 0 -94 -3q-5 2 -6 11.5t4 13.5l21 3q27 4 32.5 17.5t5.5 69.5zM178 657l75 -93q9 -11 12.5 -11t14.5 11l75 93
q5 1 11 -2.5t7 -10.5l-90 -169q-8 -14 -16.5 -14t-16.5 14l-92 169q1 13 20 13z" />
    <glyph glyph-name="Omacron" unicode="&#x14c;" horiz-adv-x="795" 
d="M402 -16q-161 0 -258.5 99t-97.5 240q0 151 101 252t255 101q164 0 255.5 -100.5t91.5 -242.5q0 -150 -100.5 -249.5t-246.5 -99.5zM415 15q98 0 166 74t68 213q0 65 -15 124t-45 109t-82.5 80t-121.5 30q-42 0 -81.5 -15t-76.5 -47t-59 -91t-22 -137q0 -46 9 -92
t29.5 -91.5t50.5 -79.5t76.5 -55.5t103.5 -21.5zM518 737h-231q-8 10 -8 28.5t8 28.5h231q9 -10 9 -28.5t-9 -28.5z" />
    <glyph glyph-name="omacron" unicode="&#x14d;" horiz-adv-x="486" 
d="M248 408q86 0 144.5 -58t58.5 -149q0 -94 -59 -154.5t-152 -60.5q-88 0 -146.5 57t-58.5 149q0 93 61.5 154.5t151.5 61.5zM365 185q0 75 -32 134t-97 59q-51 0 -83 -46t-32 -127q0 -75 33.5 -132t95.5 -57q60 0 87.5 50.5t27.5 118.5zM353 504h-214q-8 10 -8 30t8 31
h214q7 -10 7 -30.5t-7 -30.5z" />
    <glyph glyph-name="Ohungarumlaut" unicode="&#x150;" horiz-adv-x="795" 
d="M402 -16q-161 0 -258.5 99t-97.5 240q0 151 101 252t255 101q164 0 255.5 -100.5t91.5 -242.5q0 -150 -100.5 -249.5t-246.5 -99.5zM415 15q98 0 166 74t68 213q0 65 -15 124t-45 109t-82.5 80t-121.5 30q-42 0 -81.5 -15t-76.5 -47t-59 -91t-22 -137q0 -46 9 -92
t29.5 -91.5t50.5 -79.5t76.5 -55.5t103.5 -21.5zM532 861q10 0 29 -14q13 -9 17 -19.5t-2 -15.5q-2 -3 -5.5 -6.5t-9 -8.5t-8.5 -8l-87 -83q-23 5 -19 19l56 114q12 22 29 22zM374 861q11 0 30 -15q20 -17 13 -32q-5 -10 -22 -25l-87 -83q-23 5 -19 19l56 114q12 22 29 22z
" />
    <glyph glyph-name="ohungarumlaut" unicode="&#x151;" horiz-adv-x="486" 
d="M248 408q86 0 144.5 -58t58.5 -149q0 -94 -59 -154.5t-152 -60.5q-88 0 -146.5 57t-58.5 149q0 93 61.5 154.5t151.5 61.5zM365 185q0 75 -32 134t-97 59q-51 0 -83 -46t-32 -127q0 -75 33.5 -132t95.5 -57q60 0 87.5 50.5t27.5 118.5zM258 594l-92 -134q-6 -1 -11.5 2
t-5.5 9l55 163q10 21 17 22q8 2 32 -11q15 -10 16 -20q2 -13 -11 -31zM390 594l-92 -134q-6 -1 -12 2t-5 9l55 163q9 20 17 23q8 1 32 -12q14 -6 16 -19q2 -12 -11 -32z" />
    <glyph glyph-name="OE" unicode="&#x152;" horiz-adv-x="1012" 
d="M619 660h169q122 0 135 3q4 -14 15 -132q-3 -5 -11.5 -6t-13.5 3q-18 57 -33 73q-16 17 -43 23q-21 5 -97 5h-72q-21 0 -25 -5.5t-4 -34.5v-201q0 -20 4.5 -23.5t27.5 -3.5h58q65 0 85 5q17 6 24 36l9 40q4 5 13 4.5t12 -5.5q0 -10 -2 -45t-2 -55t2 -53.5t2 -43.5
q-3 -5 -12 -5.5t-13 4.5l-10 40q-7 31 -31 38q-16 5 -77 5h-58q-22 0 -27 -4t-5 -23v-141q0 -84 19 -104q21 -23 121 -23q99 0 127 15q31 16 71 97q5 4 13.5 2t11.5 -9q-15 -76 -45 -139q-135 3 -268 3h-61q-36 0 -100.5 -3t-96.5 -3q-174 0 -279.5 91t-105.5 240
q0 148 108.5 243t285.5 95q30 0 90 -1.5t89 -1.5zM557 123v425q0 62 -26 72q-36 12 -96 12q-78 0 -135.5 -24t-90 -67t-48 -95.5t-15.5 -116.5q0 -35 6.5 -71.5t26 -79.5t50.5 -76t86 -55t125 -22q54 0 87 15q18 10 24 28t6 55z" />
    <glyph glyph-name="oe" unicode="&#x153;" horiz-adv-x="729" 
d="M121 204q0 -72 34 -130t93 -58q61 0 89 50.5t28 118.5q0 46 -11.5 87.5t-42.5 73.5t-76 32q-50 0 -82 -48.5t-32 -125.5zM627 256h-165q-17 0 -22 -7.5t-5 -30.5q0 -72 44 -125t120 -53q35 0 54.5 10.5t40.5 38.5q6 2 12 -1.5t6 -8.5q-40 -93 -156 -93q-48 0 -90 22
t-65 60q-26 -40 -69.5 -61t-92.5 -21q-89 0 -146.5 56.5t-57.5 149.5q0 94 61 155t152 61q49 0 90.5 -22t66.5 -64q26 40 69 63t89 23q67 0 107.5 -35.5t40.5 -83.5q0 -17 -3 -23q-5 -10 -81 -10zM477 286h63q80 0 89 9q6 6 6 20q0 23 -19 43t-58 20q-41 0 -75 -27t-34 -57
q0 -8 28 -8z" />
    <glyph glyph-name="Racute" unicode="&#x154;" horiz-adv-x="645" 
d="M128 150v359q0 73 -7 93t-37 24l-32 4q-5 4 -5 13t6 12q90 8 223 8q112 0 167 -30q83 -43 83 -140q0 -64 -38.5 -106t-86.5 -61q-6 -7 5 -24q68 -109 111 -167.5t90 -98.5q28 -25 69 -28q4 -2 4.5 -6.5t-3.5 -7.5q-15 -5 -44 -5q-66 0 -110.5 26t-96.5 100q-13 19 -48 74
t-50 77q-12 17 -27 24.5t-44 7.5q-34 0 -40.5 -3t-6.5 -19v-126q0 -81 8.5 -100t51.5 -25l21 -3q4 -4 3.5 -13.5t-5.5 -11.5q-67 3 -119 3q-55 0 -125 -3q-5 2 -5.5 11t3.5 14l25 3q42 5 51 24.5t9 100.5zM210 600v-234q0 -29 3 -33q5 -5 69 -5q69 0 103 26q50 39 50 124
q0 65 -41 109.5t-119 44.5q-45 0 -55 -5t-10 -27zM432 778l-167 -72q-6 2 -9 9t-1 15l141 115q20 13 27 13q17 0 28 -23q13 -25 7 -41q-7 -8 -26 -16z" />
    <glyph glyph-name="racute" unicode="&#x155;" horiz-adv-x="332" 
d="M98 112v175q0 31 -3.5 40t-23.5 22l-9 6q-3 3 -3 9.5t4 8.5q46 16 101 49q8 -2 8 -7v-58q0 -7 3 -9q72 60 110 60q19 0 32 -11t13 -29q0 -22 -14 -34t-29 -12q-10 0 -22 7q-24 16 -44 16q-21 0 -36 -20q-13 -18 -13 -77v-136q0 -56 6 -70.5t34 -16.5l36 -3q5 -4 4 -13.5
t-6 -11.5q-70 3 -111 3q-53 0 -92 -3q-5 2 -6 11.5t4 13.5l19 3q27 4 32.5 17.5t5.5 69.5zM285 596l-125 -130q-15 -2 -17 11l86 163q13 24 24 24q13 0 31 -15q17 -14 17 -26q0 -11 -16 -27z" />
    <glyph glyph-name="Rcommaaccent" unicode="&#x156;" horiz-adv-x="645" 
d="M128 150v359q0 73 -7 93t-37 24l-32 4q-5 4 -5 13t6 12q90 8 223 8q112 0 167 -30q83 -43 83 -140q0 -64 -38.5 -106t-86.5 -61q-6 -7 5 -24q68 -109 111 -167.5t90 -98.5q28 -25 69 -28q4 -2 4.5 -6.5t-3.5 -7.5q-15 -5 -44 -5q-66 0 -110.5 26t-96.5 100q-13 19 -48 74
t-50 77q-12 17 -27 24.5t-44 7.5q-34 0 -40.5 -3t-6.5 -19v-126q0 -81 8.5 -100t51.5 -25l21 -3q4 -4 3.5 -13.5t-5.5 -11.5q-67 3 -119 3q-55 0 -125 -3q-5 2 -5.5 11t3.5 14l25 3q42 5 51 24.5t9 100.5zM210 600v-234q0 -29 3 -33q5 -5 69 -5q69 0 103 26q50 39 50 124
q0 65 -41 109.5t-119 44.5q-45 0 -55 -5t-10 -27zM336 -38q27 0 50.5 -22t23.5 -61q0 -94 -121 -128q-6 3 -8 15.5t2 15.5q26 8 48 26t22 44q0 7 -3 14t-7 11t-10.5 8.5t-10.5 6.5t-9.5 4.5t-6.5 2.5q-16 8 -16 25q0 15 12.5 26.5t33.5 11.5z" />
    <glyph glyph-name="rcommaaccent" unicode="&#x157;" horiz-adv-x="332" 
d="M98 112v175q0 31 -3.5 40t-23.5 22l-9 6q-3 3 -3 9.5t4 8.5q46 16 101 49q8 -2 8 -7v-58q0 -7 3 -9q72 60 110 60q19 0 32 -11t13 -29q0 -22 -14 -34t-29 -12q-10 0 -22 7q-24 16 -44 16q-21 0 -36 -20q-13 -18 -13 -77v-136q0 -56 6 -70.5t34 -16.5l36 -3q5 -4 4 -13.5
t-6 -11.5q-70 3 -111 3q-53 0 -92 -3q-5 2 -6 11.5t4 13.5l19 3q27 4 32.5 17.5t5.5 69.5zM129 -58q25 0 48 -22t23 -61q0 -95 -114 -128q-6 3 -7 15.5t2 15.5q22 7 40.5 25.5t18.5 44.5q0 7 -2.5 14t-5.5 11t-8.5 8.5t-8.5 6.5t-8 4l-5 3q-15 8 -15 25q0 15 11.5 26.5
t30.5 11.5z" />
    <glyph glyph-name="Rcaron" unicode="&#x158;" horiz-adv-x="645" 
d="M128 150v359q0 73 -7 93t-37 24l-32 4q-5 4 -5 13t6 12q90 8 223 8q112 0 167 -30q83 -43 83 -140q0 -64 -38.5 -106t-86.5 -61q-6 -7 5 -24q68 -109 111 -167.5t90 -98.5q28 -25 69 -28q4 -2 4.5 -6.5t-3.5 -7.5q-15 -5 -44 -5q-66 0 -110.5 26t-96.5 100q-13 19 -48 74
t-50 77q-12 17 -27 24.5t-44 7.5q-34 0 -40.5 -3t-6.5 -19v-126q0 -81 8.5 -100t51.5 -25l21 -3q4 -4 3.5 -13.5t-5.5 -11.5q-67 3 -119 3q-55 0 -125 -3q-5 2 -5.5 11t3.5 14l25 3q42 5 51 24.5t9 100.5zM210 600v-234q0 -29 3 -33q5 -5 69 -5q69 0 103 26q50 39 50 124
q0 65 -41 109.5t-119 44.5q-45 0 -55 -5t-10 -27zM268 713l-124 113q0 7 4.5 13.5t10.5 6.5l114 -57q10 -6 15.5 -6t16.5 6l115 57q11 -2 11 -20l-122 -113q-20 -18 -41 0z" />
    <glyph glyph-name="rcaron" unicode="&#x159;" horiz-adv-x="332" 
d="M98 112v175q0 31 -3.5 40t-23.5 22l-9 6q-3 3 -3 9.5t4 8.5q46 16 101 49q8 -2 8 -7v-58q0 -7 3 -9q72 60 110 60q19 0 32 -11t13 -29q0 -22 -14 -34t-29 -12q-10 0 -22 7q-24 16 -44 16q-21 0 -36 -20q-13 -18 -13 -77v-136q0 -56 6 -70.5t34 -16.5l36 -3q5 -4 4 -13.5
t-6 -11.5q-70 3 -111 3q-53 0 -92 -3q-5 2 -6 11.5t4 13.5l19 3q27 4 32.5 17.5t5.5 69.5zM93 672l75 -93q13 -17 27 0l75 93q5 1 11 -2.5t7 -10.5l-90 -177q-16 -32 -33 0l-92 177q1 13 20 13z" />
    <glyph glyph-name="Sacute" unicode="&#x15a;" horiz-adv-x="489" 
d="M437 169q0 -83 -58 -134t-155 -51q-92 0 -156 37q-9 16 -17 60t-10 80q4 5 12.5 6t11.5 -3q44 -149 172 -149q60 0 92.5 33.5t32.5 81.5q0 41 -16.5 74.5t-65.5 65.5l-95 62q-108 71 -108 172q0 74 54.5 123t149.5 49q45 0 93 -13q20 -6 35 -6q18 -48 18 -122
q-3 -5 -12 -6t-13 3q-6 22 -14 38.5t-22.5 35t-40 29t-59.5 10.5q-66 0 -92.5 -33.5t-26.5 -77.5q0 -70 85 -123l80 -50q125 -77 125 -192zM387 778l-167 -72q-6 2 -9 9t-1 15l141 115q19 13 27 13q16 0 28 -23q13 -25 7 -41q-7 -8 -26 -16z" />
    <glyph glyph-name="sacute" unicode="&#x15b;" horiz-adv-x="323" 
d="M186 408q68 0 88 -18q16 -39 16 -81q-3 -5 -11.5 -6t-12.5 3q-28 73 -88 73q-29 0 -46.5 -17t-17.5 -44q0 -15 6 -27t20.5 -23.5t22.5 -16t28 -16.5q49 -28 75.5 -57.5t26.5 -77.5q0 -54 -42 -84t-102 -30q-69 0 -107 30q-16 38 -12 101q4 5 11.5 5t11.5 -4
q32 -103 106 -103q29 0 48 16.5t19 47.5q0 21 -13 40t-26.5 29t-37.5 23q-49 28 -74 56.5t-25 66.5q0 53 38.5 83.5t97.5 30.5zM284 589l-125 -130q-15 -2 -17 11l86 163q13 24 24 24q13 0 31 -15q17 -14 17 -26q0 -11 -16 -27z" />
    <glyph glyph-name="Scedilla" unicode="&#x15e;" horiz-adv-x="489" 
d="M177 -102l53 87q-2 -1 -6 -1q-92 0 -156 37q-9 16 -17 60t-10 80q4 5 12.5 6t11.5 -3q44 -149 172 -149q60 0 92.5 33.5t32.5 81.5q0 41 -16.5 74.5t-65.5 65.5l-95 62q-108 71 -108 172q0 74 54.5 123t149.5 49q45 0 93 -13q20 -6 35 -6q18 -48 18 -122q-3 -5 -12 -6
t-13 3q-6 22 -14 38.5t-22.5 35t-40 29t-59.5 10.5q-66 0 -92.5 -33.5t-26.5 -77.5q0 -70 85 -123l80 -50q125 -77 125 -192q0 -73 -46 -122t-125 -59l-29 -46q-7 -12 5 -19q46 -33 46 -69q0 -34 -29.5 -58t-66.5 -24q-26 0 -40 9t-14 24q0 8 6.5 16t16.5 8t26.5 -13.5
t22.5 -13.5q25 0 25 29q0 18 -16.5 35t-41.5 27v5z" />
    <glyph glyph-name="Scedilla" unicode="&#xf6c1;" horiz-adv-x="489" 
d="M177 -102l53 87q-2 -1 -6 -1q-92 0 -156 37q-9 16 -17 60t-10 80q4 5 12.5 6t11.5 -3q44 -149 172 -149q60 0 92.5 33.5t32.5 81.5q0 41 -16.5 74.5t-65.5 65.5l-95 62q-108 71 -108 172q0 74 54.5 123t149.5 49q45 0 93 -13q20 -6 35 -6q18 -48 18 -122q-3 -5 -12 -6
t-13 3q-6 22 -14 38.5t-22.5 35t-40 29t-59.5 10.5q-66 0 -92.5 -33.5t-26.5 -77.5q0 -70 85 -123l80 -50q125 -77 125 -192q0 -73 -46 -122t-125 -59l-29 -46q-7 -12 5 -19q46 -33 46 -69q0 -34 -29.5 -58t-66.5 -24q-26 0 -40 9t-14 24q0 8 6.5 16t16.5 8t26.5 -13.5
t22.5 -13.5q25 0 25 29q0 18 -16.5 35t-41.5 27v5z" />
    <glyph glyph-name="scedilla" unicode="&#x15f;" horiz-adv-x="323" 
d="M106 -87l46 73h-3q-69 0 -107 30q-16 38 -12 101q4 5 11.5 5t11.5 -4q32 -103 106 -103q29 0 48 16.5t19 47.5q0 21 -13 40t-26.5 29t-37.5 23q-49 28 -74 56.5t-25 66.5q0 53 38.5 83.5t97.5 30.5q68 0 88 -18q16 -39 16 -81q-3 -5 -11.5 -6t-12.5 3q-28 73 -88 73
q-29 0 -46.5 -17t-17.5 -44q0 -15 6 -27t20.5 -23.5t22.5 -16t28 -16.5q49 -28 75.5 -57.5t26.5 -77.5q0 -45 -30.5 -73.5t-77.5 -36.5l-22 -35q-7 -12 8 -21q41 -27 41 -63q0 -33 -28 -55.5t-64 -22.5q-51 0 -51 31q0 8 6 15.5t16 7.5q9 0 25 -13t21 -13q24 0 24 28
q0 17 -15.5 33.5t-39.5 25.5v5z" />
    <glyph glyph-name="scedilla" unicode="&#xf6c2;" horiz-adv-x="323" 
d="M106 -87l46 73h-3q-69 0 -107 30q-16 38 -12 101q4 5 11.5 5t11.5 -4q32 -103 106 -103q29 0 48 16.5t19 47.5q0 21 -13 40t-26.5 29t-37.5 23q-49 28 -74 56.5t-25 66.5q0 53 38.5 83.5t97.5 30.5q68 0 88 -18q16 -39 16 -81q-3 -5 -11.5 -6t-12.5 3q-28 73 -88 73
q-29 0 -46.5 -17t-17.5 -44q0 -15 6 -27t20.5 -23.5t22.5 -16t28 -16.5q49 -28 75.5 -57.5t26.5 -77.5q0 -45 -30.5 -73.5t-77.5 -36.5l-22 -35q-7 -12 8 -21q41 -27 41 -63q0 -33 -28 -55.5t-64 -22.5q-51 0 -51 31q0 8 6 15.5t16 7.5q9 0 25 -13t21 -13q24 0 24 28
q0 17 -15.5 33.5t-39.5 25.5v5z" />
    <glyph glyph-name="Scaron" unicode="&#x160;" horiz-adv-x="489" 
d="M437 169q0 -83 -58 -134t-155 -51q-92 0 -156 37q-9 16 -17 60t-10 80q4 5 12.5 6t11.5 -3q44 -149 172 -149q60 0 92.5 33.5t32.5 81.5q0 41 -16.5 74.5t-65.5 65.5l-95 62q-108 71 -108 172q0 74 54.5 123t149.5 49q45 0 93 -13q20 -6 35 -6q18 -48 18 -122
q-3 -5 -12 -6t-13 3q-6 22 -14 38.5t-22.5 35t-40 29t-59.5 10.5q-66 0 -92.5 -33.5t-26.5 -77.5q0 -70 85 -123l80 -50q125 -77 125 -192zM238 721l-123 113q0 7 4 13.5t10 6.5l114 -58q11 -5 15.5 -5.5t16.5 5.5l116 58q11 -2 11 -20l-122 -113q-20 -19 -42 0z" />
    <glyph glyph-name="scaron" unicode="&#x161;" horiz-adv-x="323" 
d="M186 408q68 0 88 -18q16 -39 16 -81q-3 -5 -11.5 -6t-12.5 3q-28 73 -88 73q-29 0 -46.5 -17t-17.5 -44q0 -15 6 -27t20.5 -23.5t22.5 -16t28 -16.5q49 -28 75.5 -57.5t26.5 -77.5q0 -54 -42 -84t-102 -30q-69 0 -107 30q-16 38 -12 101q4 5 11.5 5t11.5 -4
q32 -103 106 -103q29 0 48 16.5t19 47.5q0 21 -13 40t-26.5 29t-37.5 23q-49 28 -74 56.5t-25 66.5q0 53 38.5 83.5t97.5 30.5zM88 668l75 -93q13 -17 27 0l75 93q5 1 11 -2.5t7 -10.5l-90 -177q-16 -32 -33 0l-92 177q1 13 20 13z" />
    <glyph glyph-name="Tcommaaccent" unicode="&#x162;" horiz-adv-x="660" 
d="M368 595v-445q0 -81 9 -101t51 -24l32 -3q4 -3 3.5 -13t-5.5 -12q-86 3 -131 3q-43 0 -139 -3q-5 2 -5.5 11.5t5.5 13.5l36 3q42 4 52 24.5t10 100.5v447q0 23 -4 27.5t-26 4.5h-55q-96 0 -123 -25q-25 -22 -45 -69q-6 -4 -14.5 -1.5t-11.5 8.5q23 66 38 149q2 2 9.5 2
t9.5 -2q2 -12 8 -18.5t20.5 -9t23.5 -3t33 -0.5h405q41 0 54 4.5t24 23.5q4 2 10.5 1t7.5 -4q-8 -30 -12.5 -79.5t-2.5 -72.5q-3 -6 -12.5 -6.5t-13.5 4.5q-7 60 -25 73q-34 25 -116 25h-71q-22 0 -25.5 -4.5t-3.5 -29.5zM317 -58q27 0 50 -22t23 -61q0 -94 -121 -128
q-6 3 -7.5 15.5t2.5 15.5q26 8 47.5 26t21.5 44q0 7 -3 14t-7 11t-10 8.5t-10.5 6.5t-9.5 4.5t-6 2.5q-17 9 -17 25q0 15 13 26.5t34 11.5z" />
    <glyph glyph-name="Tcommaaccent" unicode="&#x21a;" horiz-adv-x="660" 
d="M368 595v-445q0 -81 9 -101t51 -24l32 -3q4 -3 3.5 -13t-5.5 -12q-86 3 -131 3q-43 0 -139 -3q-5 2 -5.5 11.5t5.5 13.5l36 3q42 4 52 24.5t10 100.5v447q0 23 -4 27.5t-26 4.5h-55q-96 0 -123 -25q-25 -22 -45 -69q-6 -4 -14.5 -1.5t-11.5 8.5q23 66 38 149q2 2 9.5 2
t9.5 -2q2 -12 8 -18.5t20.5 -9t23.5 -3t33 -0.5h405q41 0 54 4.5t24 23.5q4 2 10.5 1t7.5 -4q-8 -30 -12.5 -79.5t-2.5 -72.5q-3 -6 -12.5 -6.5t-13.5 4.5q-7 60 -25 73q-34 25 -116 25h-71q-22 0 -25.5 -4.5t-3.5 -29.5zM317 -58q27 0 50 -22t23 -61q0 -94 -121 -128
q-6 3 -7.5 15.5t2.5 15.5q26 8 47.5 26t21.5 44q0 7 -3 14t-7 11t-10 8.5t-10.5 6.5t-9.5 4.5t-6 2.5q-17 9 -17 25q0 15 13 26.5t34 11.5z" />
    <glyph glyph-name="tcommaaccent" unicode="&#x163;" horiz-adv-x="307" 
d="M293 352h-113q-12 0 -15 -4t-3 -20v-187q0 -53 14 -82t59 -29q14 0 27 5q5 2 14.5 8t10.5 6q6 0 9 -6t1 -11q-39 -46 -105 -46q-60 0 -82 28.5t-22 79.5v229q0 20 -3 24.5t-18 4.5h-28q-4 3 -5 10t2 11q45 14 64 31q23 21 42 59q3 2 10.5 1t10.5 -6v-45q0 -13 2.5 -16
t15.5 -3h111q9 -7 8.5 -22t-7.5 -20zM162 -58q26 0 48.5 -23t22.5 -65q0 -46 -32.5 -77t-81.5 -46q-6 3 -7 15.5t2 15.5q22 7 40.5 25.5t18.5 44.5q0 7 -2.5 14t-5.5 11t-8.5 8.5t-8.5 6.5t-8 4l-5 3q-15 8 -15 25q0 15 11.5 26.5t30.5 11.5z" />
    <glyph glyph-name="tcommaaccent" unicode="&#x21b;" horiz-adv-x="307" 
d="M293 352h-113q-12 0 -15 -4t-3 -20v-187q0 -53 14 -82t59 -29q14 0 27 5q5 2 14.5 8t10.5 6q6 0 9 -6t1 -11q-39 -46 -105 -46q-60 0 -82 28.5t-22 79.5v229q0 20 -3 24.5t-18 4.5h-28q-4 3 -5 10t2 11q45 14 64 31q23 21 42 59q3 2 10.5 1t10.5 -6v-45q0 -13 2.5 -16
t15.5 -3h111q9 -7 8.5 -22t-7.5 -20zM162 -58q26 0 48.5 -23t22.5 -65q0 -46 -32.5 -77t-81.5 -46q-6 3 -7 15.5t2 15.5q22 7 40.5 25.5t18.5 44.5q0 7 -2.5 14t-5.5 11t-8.5 8.5t-8.5 6.5t-8 4l-5 3q-15 8 -15 25q0 15 11.5 26.5t30.5 11.5z" />
    <glyph glyph-name="Tcaron" unicode="&#x164;" horiz-adv-x="660" 
d="M368 595v-445q0 -81 9 -101t51 -24l32 -3q4 -3 3.5 -13t-5.5 -12q-86 3 -131 3q-43 0 -139 -3q-5 2 -5.5 11.5t5.5 13.5l36 3q42 4 52 24.5t10 100.5v447q0 23 -4 27.5t-26 4.5h-55q-96 0 -123 -25q-25 -22 -45 -69q-6 -4 -14.5 -1.5t-11.5 8.5q23 66 38 149q2 2 9.5 2
t9.5 -2q2 -12 8 -18.5t20.5 -9t23.5 -3t33 -0.5h405q41 0 54 4.5t24 23.5q4 2 10.5 1t7.5 -4q-8 -30 -12.5 -79.5t-2.5 -72.5q-3 -6 -12.5 -6.5t-13.5 4.5q-7 60 -25 73q-34 25 -116 25h-71q-22 0 -25.5 -4.5t-3.5 -29.5zM311 713l-123 113q0 7 4 13.5t10 6.5l113 -58
q11 -5 16 -4.5t17 5.5l116 57q11 -2 11 -20l-122 -113q-20 -19 -42 0z" />
    <glyph glyph-name="tcaron" unicode="&#x165;" horiz-adv-x="307" 
d="M293 352h-113q-12 0 -15 -4t-3 -20v-187q0 -53 14 -82t59 -29q14 0 27 5q5 2 14.5 8t10.5 6q6 0 9 -6t1 -11q-39 -46 -105 -46q-60 0 -82 28.5t-22 79.5v229q0 20 -3 24.5t-18 4.5h-28q-4 3 -5 10t2 11q45 14 64 31q23 21 42 59q3 2 10.5 1t10.5 -6v-45q0 -13 2.5 -16
t15.5 -3h111q9 -7 8.5 -22t-7.5 -20zM246 700q25 0 41 -24t16 -58q0 -42 -25 -72t-60 -45q-9 3 -11.5 11t3.5 12q53 37 53 70q0 36 -34 43q-23 6 -23 28q0 13 9.5 24t30.5 11z" />
    <glyph glyph-name="Umacron" unicode="&#x16a;" horiz-adv-x="746" 
d="M605 294v115q0 173 -19 207q-10 18 -50 21l-25 2q-4 5 -3.5 13t5.5 11q57 -3 114 -3q51 0 105 3q6 -4 6 -12t-4 -12l-24 -2q-40 -3 -50 -24q-14 -33 -14 -204v-113q0 -164 -70 -239q-32 -35 -83 -54t-108 -19q-123 0 -187 55q-78 65 -78 236v236q0 81 -9 101.5t-51 24.5
l-25 2q-4 3 -3.5 12.5t5.5 11.5q75 -3 124 -3t123 3q5 -2 5.5 -11.5t-3.5 -12.5l-24 -2q-42 -4 -51 -24.5t-9 -101.5v-216q0 -129 47 -198t156 -69q103 0 151.5 72t48.5 194zM501 722h-210q-7 10 -7 28.5t7 28.5h210q8 -10 8 -28.5t-8 -28.5z" />
    <glyph glyph-name="umacron" unicode="&#x16b;" horiz-adv-x="512" 
d="M159 314v-167q0 -57 20 -86t73 -29q46 0 81 30q20 18 20 58v164q0 33 -3.5 47.5t-9.5 19.5t-24 12l-13 5q-5 3 -5 11t6 11q82 2 117 18q8 -2 9 -7q-3 -28 -3 -87v-168q0 -64 5.5 -86.5t25.5 -22.5q16 0 39 5q5 -4 5 -15t-6 -14q-102 -21 -131 -37q-9 0 -12 7v41
q0 14 -9 14q-82 -52 -138 -52q-64 0 -92.5 31t-28.5 94v167q0 50 -4 63t-26 22l-12 5q-5 4 -4 12t6 10q61 1 107 18q9 -1 10 -7q-3 -26 -3 -87zM352 514h-214q-8 10 -8 28t8 29h214q7 -10 7 -28.5t-7 -28.5z" />
    <glyph glyph-name="Uring" unicode="&#x16e;" horiz-adv-x="746" 
d="M605 294v115q0 173 -19 207q-10 18 -50 21l-25 2q-4 5 -3.5 13t5.5 11q57 -3 114 -3q51 0 105 3q6 -4 6 -12t-4 -12l-24 -2q-40 -3 -50 -24q-14 -33 -14 -204v-113q0 -164 -70 -239q-32 -35 -83 -54t-108 -19q-123 0 -187 55q-78 65 -78 236v236q0 81 -9 101.5t-51 24.5
l-25 2q-4 3 -3.5 12.5t5.5 11.5q75 -3 124 -3t123 3q5 -2 5.5 -11.5t-3.5 -12.5l-24 -2q-42 -4 -51 -24.5t-9 -101.5v-216q0 -129 47 -198t156 -69q103 0 151.5 72t48.5 194zM403 868q37 0 61 -24t24 -57t-24 -57t-61 -24t-61 24t-24 57t24 57t61 24zM358 787q0 -23 13 -38
t32 -15q20 0 32.5 15t12.5 38t-13 37.5t-32 14.5t-32 -15t-13 -37z" />
    <glyph glyph-name="uring" unicode="&#x16f;" horiz-adv-x="512" 
d="M159 314v-167q0 -57 20 -86t73 -29q46 0 81 30q20 18 20 58v164q0 33 -3.5 47.5t-9.5 19.5t-24 12l-13 5q-5 3 -5 11t6 11q82 2 117 18q8 -2 9 -7q-3 -28 -3 -87v-168q0 -64 5.5 -86.5t25.5 -22.5q16 0 39 5q5 -4 5 -15t-6 -14q-102 -21 -131 -37q-9 0 -12 7v41
q0 14 -9 14q-82 -52 -138 -52q-64 0 -92.5 31t-28.5 94v167q0 50 -4 63t-26 22l-12 5q-5 4 -4 12t6 10q61 1 107 18q9 -1 10 -7q-3 -26 -3 -87zM253 635q37 0 61 -24.5t24 -56.5q0 -33 -24 -57t-61 -24t-61 24t-24 57q0 32 24 56.5t61 24.5zM208 554q0 -23 13 -38t32 -15
q20 0 32.5 15t12.5 38t-13 37.5t-32 14.5t-32 -15t-13 -37z" />
    <glyph glyph-name="Uhungarumlaut" unicode="&#x170;" horiz-adv-x="746" 
d="M605 294v115q0 173 -19 207q-10 18 -50 21l-25 2q-4 5 -3.5 13t5.5 11q57 -3 114 -3q51 0 105 3q6 -4 6 -12t-4 -12l-24 -2q-40 -3 -50 -24q-14 -33 -14 -204v-113q0 -164 -70 -239q-32 -35 -83 -54t-108 -19q-123 0 -187 55q-78 65 -78 236v236q0 81 -9 101.5t-51 24.5
l-25 2q-4 3 -3.5 12.5t5.5 11.5q75 -3 124 -3t123 3q5 -2 5.5 -11.5t-3.5 -12.5l-24 -2q-42 -4 -51 -24.5t-9 -101.5v-216q0 -129 47 -198t156 -69q103 0 151.5 72t48.5 194zM519 861q10 0 29 -14q13 -9 17 -19.5t-2 -15.5q-2 -3 -5.5 -6.5t-9 -8.5t-8.5 -8l-87 -83
q-23 5 -19 19l56 114q12 22 29 22zM366 861q11 0 30 -15q20 -17 13 -32q-5 -10 -22 -25l-87 -83q-23 5 -19 19l56 114q12 22 29 22z" />
    <glyph glyph-name="uhungarumlaut" unicode="&#x171;" horiz-adv-x="512" 
d="M159 314v-167q0 -57 20 -86t73 -29q46 0 81 30q20 18 20 58v164q0 33 -3.5 47.5t-9.5 19.5t-24 12l-13 5q-5 3 -5 11t6 11q82 2 117 18q8 -2 9 -7q-3 -28 -3 -87v-168q0 -64 5.5 -86.5t25.5 -22.5q16 0 39 5q5 -4 5 -15t-6 -14q-102 -21 -131 -37q-9 0 -12 7v41
q0 14 -9 14q-82 -52 -138 -52q-64 0 -92.5 31t-28.5 94v167q0 50 -4 63t-26 22l-12 5q-5 4 -4 12t6 10q61 1 107 18q9 -1 10 -7q-3 -26 -3 -87zM274 599l-92 -134q-6 -1 -11.5 2t-5.5 9l55 163q10 21 17 22q8 2 32 -11q15 -10 16 -20q2 -13 -11 -31zM406 599l-92 -134
q-6 -1 -12 2t-5 9l55 163q9 20 17 23q8 1 32 -12q14 -6 16 -19q2 -12 -11 -32z" />
    <glyph glyph-name="Uogonek" unicode="&#x172;" horiz-adv-x="746" 
d="M202 511v-216q0 -129 47 -198t156 -69q103 0 151.5 72t48.5 194v115q0 173 -19 207q-10 18 -50 21l-25 2q-4 5 -3.5 13t5.5 11q57 -3 114 -3q51 0 105 3q6 -4 6 -12t-4 -12l-24 -2q-40 -3 -50 -24q-14 -33 -14 -204v-113q0 -164 -70 -239q-49 -53 -138 -68
q-29 -21 -46 -50t-17 -54q0 -21 11 -34t31 -13q35 0 54 14q9 -3 9 -15q-17 -22 -44 -34t-52 -12q-36 0 -55 21.5t-19 47.5q0 66 81 125q-2 -1 -6 -1q-123 0 -187 55q-78 65 -78 236v236q0 81 -9 101.5t-51 24.5l-25 2q-4 3 -3.5 12.5t5.5 11.5q75 -3 124 -3t123 3
q5 -2 5.5 -11.5t-3.5 -12.5l-24 -2q-42 -4 -51 -24.5t-9 -101.5z" />
    <glyph glyph-name="uogonek" unicode="&#x173;" horiz-adv-x="512" 
d="M85 111v167q0 50 -4 63t-26 22l-12 5q-5 4 -4 12t6 10q61 1 107 18q9 -1 10 -7q-3 -26 -3 -87v-167q0 -57 20 -86t73 -29q46 0 81 30q20 18 20 58v164q0 33 -3.5 47.5t-9.5 19.5t-24 12l-13 5q-5 3 -5 11t6 11q82 2 117 18q8 -2 9 -7q-3 -28 -3 -87v-168q0 -64 5.5 -86.5
t25.5 -22.5q16 0 39 5q5 -4 5 -15t-6 -14q-2 0 -3 -1q-66 -66 -66 -129q0 -45 40 -45q33 0 52 14q9 -3 9 -15q-34 -46 -91 -46q-37 0 -55.5 20t-18.5 49q0 56 92 145q-63 -14 -90 -29q-9 0 -12 7v41q0 14 -9 14q-82 -52 -138 -52q-64 0 -92.5 31t-28.5 94z" />
    <glyph glyph-name="Ydieresis" unicode="&#x178;" horiz-adv-x="574" 
d="M336 204v-52q0 -81 10 -102.5t50 -24.5l38 -3q4 -5 3.5 -14t-5.5 -11q-93 3 -136 3q-52 0 -131 -3q-5 2 -5.5 11t3.5 14l31 3q42 4 51 24t9 103v51q0 42 -5 62t-27 62l-118 230q-24 46 -39 59t-40 17l-28 5q-5 5 -4 13.5t6 11.5q48 -3 116 -3q70 0 107 3q6 -2 7 -11.5
t-4 -13.5l-13 -2q-42 -6 -42 -18q0 -15 31 -77q96 -191 113 -222q57 97 94 169q65 121 65 132t-42 16l-18 2q-5 5 -4.5 13.5t6.5 11.5q54 -3 96 -3t93 3q6 -4 6.5 -12.5t-4.5 -12.5l-28 -5q-10 -2 -19 -6.5t-16.5 -9.5t-16.5 -16t-14.5 -18t-15.5 -23t-15 -24.5t-17 -29.5
t-18 -31l-63 -109q-33 -57 -40 -81t-7 -81zM219 710q-49 0 -49 51q-2 22 12 39t37 17q22 0 36.5 -16.5t14.5 -37.5q0 -22 -14 -37.5t-37 -15.5zM405 710q-23 0 -37 13t-15 38q0 23 14.5 39.5t37.5 16.5q22 0 35 -16.5t13 -37.5q0 -23 -13 -38t-35 -15z" />
    <glyph glyph-name="Zacute" unicode="&#x179;" horiz-adv-x="641" 
d="M136 145l216 307q88 126 97 142q12 21 12 27q0 8 -36 8h-149q-119 0 -149 -33q-25 -27 -44 -68q-7 -3 -14.5 -1t-10.5 8q23 66 41 150q8 6 17 0q2 -17 19 -21t80 -4h264q99 0 115 3q6 -1 6 -9q-38 -33 -164 -214l-165 -238q-99 -144 -99 -155t28 -14q26 -2 148 -2
q143 0 185 23q39 22 70 92q20 7 25 -7q-20 -103 -45 -142q-83 3 -182 3h-257q-43 0 -112 -3q-5 3 -5 12q16 15 51 58.5t58 77.5zM468 778l-172 -72q-6 2 -9 9t-1 15l141 115q19 13 27 13q15 0 30 -22q16 -25 10 -42q-7 -8 -26 -16z" />
    <glyph glyph-name="zacute" unicode="&#x17a;" horiz-adv-x="377" 
d="M226 0h-90q-87 0 -105 -3q-6 3 -6 10q36 44 96 147l106 180q11 21 8.5 25.5t-17.5 4.5h-69q-50 0 -69 -15q-18 -14 -36 -58q-4 -5 -12.5 -3.5t-10.5 7.5q2 21 12.5 60.5t20.5 56.5q6 4 12 0q2 -12 14.5 -15t56.5 -3h142q46 0 61 3q6 -3 5 -10q-31 -43 -74 -114l-121 -203
q-16 -27 -13 -33.5t32 -6.5h34q90 0 118 30q12 14 32 58q5 3 12.5 1.5t9.5 -7.5q-15 -83 -37 -115q-50 3 -112 3zM300 586l-125 -130q-15 -2 -17 11l86 163q13 24 24 24q13 0 31 -15q17 -14 17 -26q0 -11 -16 -27z" />
    <glyph glyph-name="Zdotaccent" unicode="&#x17b;" horiz-adv-x="641" 
d="M136 145l216 307q88 126 97 142q12 21 12 27q0 8 -36 8h-149q-119 0 -149 -33q-25 -27 -44 -68q-7 -3 -14.5 -1t-10.5 8q23 66 41 150q8 6 17 0q2 -17 19 -21t80 -4h264q99 0 115 3q6 -1 6 -9q-38 -33 -164 -214l-165 -238q-99 -144 -99 -155t28 -14q26 -2 148 -2
q143 0 185 23q39 22 70 92q20 7 25 -7q-20 -103 -45 -142q-83 3 -182 3h-257q-43 0 -112 -3q-5 3 -5 12q16 15 51 58.5t58 77.5zM332 707q-24 0 -38.5 14t-15.5 39q-1 23 14.5 38.5t39.5 15.5q22 0 37.5 -15.5t15.5 -35.5q0 -25 -15 -40.5t-38 -15.5z" />
    <glyph glyph-name="zdotaccent" unicode="&#x17c;" horiz-adv-x="377" 
d="M226 0h-90q-87 0 -105 -3q-6 3 -6 10q36 44 96 147l106 180q11 21 8.5 25.5t-17.5 4.5h-69q-50 0 -69 -15q-18 -14 -36 -58q-4 -5 -12.5 -3.5t-10.5 7.5q2 21 12.5 60.5t20.5 56.5q6 4 12 0q2 -12 14.5 -15t56.5 -3h142q46 0 61 3q6 -3 5 -10q-31 -43 -74 -114l-121 -203
q-16 -27 -13 -33.5t32 -6.5h34q90 0 118 30q12 14 32 58q5 3 12.5 1.5t9.5 -7.5q-15 -83 -37 -115q-50 3 -112 3zM199 604q22 0 35 -15t13 -37q0 -25 -14.5 -37.5t-36.5 -12.5q-23 0 -36.5 14t-13.5 35q0 24 15 38.5t38 14.5z" />
    <glyph glyph-name="Zcaron" unicode="&#x17d;" horiz-adv-x="641" 
d="M136 145l216 307q88 126 97 142q12 21 12 27q0 8 -36 8h-149q-119 0 -149 -33q-25 -27 -44 -68q-7 -3 -14.5 -1t-10.5 8q23 66 41 150q8 6 17 0q2 -17 19 -21t80 -4h264q99 0 115 3q6 -1 6 -9q-38 -33 -164 -214l-165 -238q-99 -144 -99 -155t28 -14q26 -2 148 -2
q143 0 185 23q39 22 70 92q20 7 25 -7q-20 -103 -45 -142q-83 3 -182 3h-257q-43 0 -112 -3q-5 3 -5 12q16 15 51 58.5t58 77.5zM321 713l-124 113q0 7 4.5 13.5t10.5 6.5l114 -62q16 -9 32 0l115 62q11 -2 11 -20l-122 -113q-20 -18 -41 0z" />
    <glyph glyph-name="zcaron" unicode="&#x17e;" horiz-adv-x="377" 
d="M226 0h-90q-87 0 -105 -3q-6 3 -6 10q36 44 96 147l106 180q11 21 8.5 25.5t-17.5 4.5h-69q-50 0 -69 -15q-18 -14 -36 -58q-4 -5 -12.5 -3.5t-10.5 7.5q2 21 12.5 60.5t20.5 56.5q6 4 12 0q2 -12 14.5 -15t56.5 -3h142q46 0 61 3q6 -3 5 -10q-31 -43 -74 -114l-121 -203
q-16 -27 -13 -33.5t32 -6.5h34q90 0 118 30q12 14 32 58q5 3 12.5 1.5t9.5 -7.5q-15 -83 -37 -115q-50 3 -112 3zM108 660l75 -93q13 -17 27 0l75 93q5 1 11 -2.5t7 -10.5l-90 -177q-16 -32 -33 0l-92 177q1 13 20 13z" />
    <glyph glyph-name="florin" unicode="&#x192;" horiz-adv-x="500" 
d="M117 427h92q18 89 41 138q24 50 68.5 91t97.5 41q34 0 52.5 -16t18.5 -35t-13.5 -32.5t-22.5 -13.5q-12 0 -24 18q-23 37 -51 37q-52 0 -89 -228h113q6 -5 6.5 -16.5t-6.5 -16.5h-121q-13 -71 -28 -157q-24 -147 -51 -217.5t-61 -101.5q-44 -40 -95 -40q-31 0 -48 18.5
t-17 45.5q0 14 6 23t11 9q12 0 25 -15q39 -35 65 -35q38 0 61 143q5 30 24.5 143t30.5 184h-85q-5 4 -5 16t5 17z" />
    <glyph glyph-name="Scommaaccent" unicode="&#x218;" horiz-adv-x="489" 
d="M437 169q0 -83 -58 -134t-155 -51q-92 0 -156 37q-9 16 -17 60t-10 80q4 5 12.5 6t11.5 -3q44 -149 172 -149q60 0 92.5 33.5t32.5 81.5q0 41 -16.5 74.5t-65.5 65.5l-95 62q-108 71 -108 172q0 74 54.5 123t149.5 49q45 0 93 -13q20 -6 35 -6q18 -48 18 -122
q-3 -5 -12 -6t-13 3q-6 22 -14 38.5t-22.5 35t-40 29t-59.5 10.5q-66 0 -92.5 -33.5t-26.5 -77.5q0 -70 85 -123l80 -50q125 -77 125 -192zM232 -58q27 0 50 -22t23 -61q0 -93 -116 -128q-7 3 -10.5 15.5t0.5 15.5q26 8 47.5 26t21.5 44q0 7 -3 14t-7 11t-10 8.5t-10.5 6.5
t-9.5 4.5t-6 2.5q-17 9 -17 25q0 15 13 26.5t34 11.5z" />
    <glyph glyph-name="scommaaccent" unicode="&#x219;" horiz-adv-x="323" 
d="M186 408q68 0 88 -18q16 -39 16 -81q-3 -5 -11.5 -6t-12.5 3q-28 73 -88 73q-29 0 -46.5 -17t-17.5 -44q0 -15 6 -27t20.5 -23.5t22.5 -16t28 -16.5q49 -28 75.5 -57.5t26.5 -77.5q0 -54 -42 -84t-102 -30q-69 0 -107 30q-16 38 -12 101q4 5 11.5 5t11.5 -4
q32 -103 106 -103q29 0 48 16.5t19 47.5q0 21 -13 40t-26.5 29t-37.5 23q-49 28 -74 56.5t-25 66.5q0 53 38.5 83.5t97.5 30.5zM151 -58q26 0 48.5 -23t22.5 -65q0 -46 -32.5 -77t-81.5 -46q-6 3 -7 15.5t2 15.5q22 7 40.5 25.5t18.5 44.5q0 7 -2.5 14t-5.5 11t-8.5 8.5
t-8.5 6.5t-8 4l-5 3q-15 8 -15 25q0 15 11.5 26.5t30.5 11.5z" />
    <glyph glyph-name="circumflex" unicode="&#x2c6;" 
d="M266 465l-73 92q-9 11 -13.5 11t-13.5 -11l-74 -92q-5 -2 -12 1.5t-8 7.5l90 177q18 33 35 0l91 -177q-1 -4 -9.5 -7.5t-12.5 -1.5z" />
    <glyph glyph-name="caron" unicode="&#x2c7;" 
d="M93 670l75 -93q13 -17 27 0l75 93q5 1 11 -2.5t7 -10.5l-90 -177q-16 -32 -33 0l-92 177q1 13 20 13z" />
    <glyph glyph-name="breve" unicode="&#x2d8;" 
d="M180 501q-53 0 -80.5 33t-23.5 98q4 3 11 3t11 -3q8 -37 31.5 -55.5t50.5 -18.5t50.5 18.5t32.5 55.5q3 3 10 3t12 -3q3 -65 -24.5 -98t-80.5 -33z" />
    <glyph glyph-name="dotaccent" unicode="&#x2d9;" 
d="M184 612q22 0 35 -15t13 -37q0 -25 -14.5 -37.5t-36.5 -12.5q-23 0 -36.5 14t-13.5 35q0 24 15 38.5t38 14.5z" />
    <glyph glyph-name="ring" unicode="&#x2da;" 
d="M180 641q36 0 60.5 -24.5t24.5 -56.5q0 -33 -24 -57t-61 -24t-61 24t-24 57q0 32 24.5 56.5t60.5 24.5zM135 560q0 -23 13 -38t32 -15q20 0 32.5 15t12.5 38t-13 37.5t-32 14.5t-32 -15t-13 -37z" />
    <glyph glyph-name="ogonek" unicode="&#x2db;" 
d="M170 5h23q-18 -44 -18 -89q0 -35 20.5 -54.5t49.5 -19.5q27 0 42 8q8 -5 8 -17q-34 -42 -99 -42q-40 0 -63 23.5t-23 61.5q0 51 60 129z" />
    <glyph glyph-name="tilde" unicode="&#x2dc;" 
d="M152 583h54q32 0 45.5 6.5t31.5 32.5q12 6 17 -6q-10 -43 -38 -73q-18 -16 -49 -16h-53q-32 0 -50 -12t-33 -40q-4 -3 -9.5 -1.5t-7.5 5.5q3 15 14.5 42.5t22.5 38.5q22 23 55 23z" />
    <glyph glyph-name="hungarumlaut" unicode="&#x2dd;" 
d="M204 604l-92 -134q-6 -1 -11.5 2t-5.5 9l55 163q10 21 17 22q8 2 32 -11q15 -10 16 -20q2 -13 -11 -31zM336 604l-92 -134q-6 -1 -12 2t-5 9l55 163q9 20 17 23q8 1 32 -12q14 -6 16 -19q2 -12 -11 -32z" />
    <glyph glyph-name="Delta" unicode="&#x394;" horiz-adv-x="636" 
d="M599 0h-560q-6 0 -8 6t-0.5 14t3.5 15.5t4 12.5q17 40 54 122t56 126l121 271q23 51 19 71q24 8 52 38q9 0 12 -9q8 -20 23.5 -65.5t25.5 -69.5l199 -486q6 -16 6 -31t-7 -15zM136 47h339q23 0 29.5 4.5t1.5 16.5l-167 423q-19 52 -25 63h-7q-2 -3 -26 -59l-178 -422
q-7 -17 -1 -21.5t34 -4.5z" />
    <glyph glyph-name="Delta" unicode="&#x2206;" horiz-adv-x="636" 
d="M599 0h-560q-6 0 -8 6t-0.5 14t3.5 15.5t4 12.5q17 40 54 122t56 126l121 271q23 51 19 71q24 8 52 38q9 0 12 -9q8 -20 23.5 -65.5t25.5 -69.5l199 -486q6 -16 6 -31t-7 -15zM136 47h339q23 0 29.5 4.5t1.5 16.5l-167 423q-19 52 -25 63h-7q-2 -3 -26 -59l-178 -422
q-7 -17 -1 -21.5t34 -4.5z" />
    <glyph glyph-name="Omega" unicode="&#x3a9;" horiz-adv-x="770" 
d="M385 676q88 0 161 -33.5t119 -103t44 -162.5q-1 -28 -6.5 -54.5t-11 -45.5t-21.5 -43t-23 -35.5t-31 -35.5l-30.5 -30.5t-36 -32.5t-34.5 -30h96q50 0 73 17t44 63q4 8 11.5 8t9.5 -8q-6 -18 -34 -157q-7 1 -22 3t-29 3t-29 1h-195v20q86 103 117 154q61 103 61 208
q0 116 -61 189.5t-170 73.5t-171.5 -79t-63.5 -198q0 -51 14 -100t43.5 -94.5t55 -77.5t65.5 -76v-20h-195q-15 0 -29 -1t-29 -3t-22 -3q-28 139 -34 157q2 8 9.5 8t11.5 -8q21 -46 44 -63t73 -17h96q-23 18 -31.5 24.5t-34 29t-38.5 37.5t-33.5 41.5t-30.5 49.5t-18 54
t-8 62q1 141 95.5 224.5t228.5 83.5z" />
    <glyph glyph-name="Omega" unicode="&#x2126;" horiz-adv-x="770" 
d="M385 676q88 0 161 -33.5t119 -103t44 -162.5q-1 -28 -6.5 -54.5t-11 -45.5t-21.5 -43t-23 -35.5t-31 -35.5l-30.5 -30.5t-36 -32.5t-34.5 -30h96q50 0 73 17t44 63q4 8 11.5 8t9.5 -8q-6 -18 -34 -157q-7 1 -22 3t-29 3t-29 1h-195v20q86 103 117 154q61 103 61 208
q0 116 -61 189.5t-170 73.5t-171.5 -79t-63.5 -198q0 -51 14 -100t43.5 -94.5t55 -77.5t65.5 -76v-20h-195q-15 0 -29 -1t-29 -3t-22 -3q-28 139 -34 157q2 8 9.5 8t11.5 -8q21 -46 44 -63t73 -17h96q-23 18 -31.5 24.5t-34 29t-38.5 37.5t-33.5 41.5t-30.5 49.5t-18 54
t-8 62q1 141 95.5 224.5t228.5 83.5z" />
    <glyph glyph-name="pi" unicode="&#x3c0;" horiz-adv-x="500" 
d="M328 339h-126q-17 -138 -46 -262q-23 -91 -66 -91q-16 0 -26 9t-9 24q0 5 3.5 11t12 16t11.5 14q57 69 80 279q-48 0 -76.5 -16t-49.5 -60q-2 -6 -5 -8t-6 1t-3 11q0 63 42 98q36 29 98 29h202q89 0 106 10q5 2 6.5 -0.5t-0.5 -9.5q-8 -26 -20 -43q-11 -15 -94 -14
q-24 -76 -24 -194q0 -95 52 -95q40 0 79 52q4 6 9 0q1 -5 0 -10q-19 -52 -53 -78t-72 -26q-33 0 -51.5 23t-22.5 47.5t-3 51.5q2 63 52 231z" />
    <glyph glyph-name="figuredash" unicode="&#x2012;" horiz-adv-x="500" 
d="M32 340h436v-49h-436v49z" />
    <glyph glyph-name="endash" unicode="&#x2013;" horiz-adv-x="500" 
d="M0 230h500v-49h-500v49z" />
    <glyph glyph-name="emdash" unicode="&#x2014;" horiz-adv-x="1000" 
d="M0 230h1000v-49h-1000v49z" />
    <glyph glyph-name="quoteleft" unicode="&#x2018;" horiz-adv-x="235" 
d="M132 473q-31 0 -54 28.5t-23 67.5q0 49 33 85t84 51q16 -8 7 -21q-76 -35 -76 -86q0 -26 16.5 -40.5t33.5 -15.5q27 -2 27 -28q0 -15 -11 -28t-37 -13z" />
    <glyph glyph-name="quoteright" unicode="&#x2019;" horiz-adv-x="235" 
d="M103 700q31 0 54 -28.5t23 -67.5q0 -49 -33 -85t-84 -51q-16 8 -7 21q76 35 76 86q0 26 -16.5 40.5t-33.5 15.5q-27 2 -27 28q0 15 11 28t37 13z" />
    <glyph glyph-name="quotesinglbase" unicode="&#x201a;" horiz-adv-x="215" 
d="M93 100q31 0 54 -28.5t23 -67.5q-1 -49 -34 -85t-83 -51q-16 8 -7 21q76 35 76 86q0 26 -16.5 40.5t-33.5 15.5q-27 2 -27 28q0 15 11 28t37 13z" />
    <glyph glyph-name="quotedblleft" unicode="&#x201c;" horiz-adv-x="404" 
d="M301 473q-31 0 -54 28.5t-23 67.5q0 49 33 85t84 51q16 -8 7 -21q-76 -35 -76 -86q0 -26 16.5 -40.5t33.5 -15.5q27 -2 27 -28q0 -15 -11 -28t-37 -13zM132 473q-31 0 -54 28.5t-23 67.5q0 49 33 85t84 51q16 -8 7 -21q-76 -35 -76 -86q0 -26 16.5 -40.5t33.5 -15.5
q27 -2 27 -28q0 -15 -11 -28t-37 -13z" />
    <glyph glyph-name="quotedblright" unicode="&#x201d;" horiz-adv-x="404" 
d="M272 700q31 0 54 -28.5t23 -67.5q0 -49 -33 -85t-84 -51q-16 8 -7 21q76 35 76 86q0 26 -16.5 40.5t-33.5 15.5q-27 2 -27 28q0 15 11 28t37 13zM103 700q31 0 54 -28.5t23 -67.5q0 -49 -33 -85t-84 -51q-16 8 -7 21q76 35 76 86q0 26 -16.5 40.5t-33.5 15.5
q-27 2 -27 28q0 15 11 28t37 13z" />
    <glyph glyph-name="quotedblbase" unicode="&#x201e;" horiz-adv-x="384" 
d="M262 100q31 0 54 -28.5t23 -67.5q-1 -49 -34 -85t-83 -51q-16 8 -7 21q76 35 76 86q0 26 -16.5 40.5t-33.5 15.5q-27 2 -27 28q0 15 11 28t37 13zM93 100q31 0 54 -28.5t23 -67.5q-1 -49 -34 -85t-83 -51q-16 8 -7 21q76 35 76 86q0 26 -16.5 40.5t-33.5 15.5
q-27 2 -27 28q0 15 11 28t37 13z" />
    <glyph glyph-name="dagger" unicode="&#x2020;" horiz-adv-x="480" 
d="M256 -127h-32v137q0 135 -35 252q22 27 29 64.5t7 110.5q-35 0 -76 -15.5t-52 -15.5q-23 0 -35 12t-12 32q0 19 12 31t35 12q11 0 52 -15t76 -15q0 66 -15.5 113t-15.5 52q0 18 11.5 33t34.5 15t34.5 -15t11.5 -33q0 -5 -15.5 -52t-15.5 -113q35 0 76 15t53 15
q22 0 34 -12t12 -31q0 -20 -12 -32t-34 -12q-12 0 -53 15.5t-76 15.5q0 -73 7 -110.5t29 -64.5q-35 -117 -35 -252v-137z" />
    <glyph glyph-name="daggerdbl" unicode="&#x2021;" horiz-adv-x="480" 
d="M240 676q22 0 33.5 -14.5t11.5 -31.5q0 -5 -15 -51.5t-15 -111.5q32 0 76 14q46 16 54 16q44 0 44 -43q0 -42 -44 -42q-13 0 -54 14.5t-76 14.5q0 -64 7 -98t29 -56q-22 -20 -29 -55.5t-7 -109.5q32 0 76 14q46 16 54 16q44 0 44 -43q0 -42 -44 -42q-13 0 -54 14.5
t-76 14.5q0 -64 15 -116t15 -57q0 -17 -11.5 -32t-33.5 -15t-33.5 15t-11.5 32q0 5 15 57t15 116q-34 0 -75.5 -14.5t-54.5 -14.5q-44 0 -44 42q0 43 44 43q8 0 54 -16q44 -14 76 -14q0 74 -7 109.5t-29 55.5q22 22 29 56t7 98q-34 0 -75.5 -14.5t-54.5 -14.5q-44 0 -44 42
q0 43 44 43q8 0 54 -16q44 -14 76 -14q0 65 -15 111.5t-15 51.5q0 17 11.5 31.5t33.5 14.5z" />
    <glyph glyph-name="bullet" unicode="&#x2022;" horiz-adv-x="388" 
d="M194 475q58 0 98.5 -40.5t40.5 -98.5t-40.5 -98t-98.5 -40t-98.5 40t-40.5 98t40.5 98.5t98.5 40.5z" />
    <glyph glyph-name="onedotenleader" unicode="&#x2024;" horiz-adv-x="500" 
d="M250 100q25 0 40.5 -17t15.5 -42q0 -24 -15.5 -39.5t-40.5 -15.5q-23 0 -39.5 15t-16.5 40t16 42t40 17z" />
    <glyph glyph-name="twodotenleader" unicode="&#x2025;" horiz-adv-x="500" 
d="M125 100q25 0 40.5 -17t15.5 -42q0 -24 -15.5 -39.5t-40.5 -15.5q-23 0 -39.5 15t-16.5 40t16 42t40 17zM375 100q25 0 40.5 -17t15.5 -42q0 -24 -15.5 -39.5t-40.5 -15.5q-23 0 -39.5 15t-16.5 40t16 42t40 17z" />
    <glyph glyph-name="ellipsis" unicode="&#x2026;" horiz-adv-x="1000" 
d="M500 -14q-23 0 -39.5 15t-16.5 40t16 42t40 17q25 0 40.5 -17t15.5 -42q0 -24 -15.5 -39.5t-40.5 -15.5zM833 -14q-23 0 -39.5 15t-16.5 40t16 42t40 17q25 0 40.5 -17t15.5 -42q0 -24 -15.5 -39.5t-40.5 -15.5zM167 -14q-23 0 -39.5 15t-16.5 40t16 42t40 17
q25 0 40.5 -17t15.5 -42q0 -24 -15.5 -39.5t-40.5 -15.5z" />
    <glyph glyph-name="perthousand" unicode="&#x2030;" horiz-adv-x="1144" 
d="M759 170q0 -41 -14.5 -81.5t-49 -71.5t-82.5 -31t-82.5 31t-49 71.5t-14.5 81.5q0 68 38 126.5t108 58.5t108 -58.5t38 -126.5zM690 170q0 24 -2.5 46.5t-9.5 50t-23.5 44t-40.5 16.5t-40.5 -16.5t-24 -43.5t-10.5 -50t-3 -47t3 -47t10.5 -49.5t24 -43t40.5 -16.5
t40.5 16.5t23.5 44t9.5 50t2.5 45.5zM337 455q0 -41 -14.5 -81.5t-49 -71.5t-82.5 -31t-82.5 31t-49 71.5t-14.5 81.5q0 68 38 126.5t108 58.5t108 -58.5t38 -126.5zM268 455q0 24 -2.5 46.5t-9.5 50t-23.5 44t-40.5 16.5t-40.5 -16.5t-24 -43.5t-10.5 -50t-3 -47t3 -47
t10.5 -49.5t24 -43t40.5 -16.5t40.5 16.5t23.5 44t9.5 50t2.5 45.5zM1099 170q0 -41 -14.5 -81.5t-49 -71.5t-82.5 -31t-82.5 31t-49 71.5t-14.5 81.5q0 68 38 126.5t108 58.5t108 -58.5t38 -126.5zM1030 170q0 24 -2.5 46.5t-9.5 50t-23.5 44t-40.5 16.5t-40.5 -16.5
t-24 -43.5t-10.5 -50t-3 -47t3 -47t10.5 -49.5t24 -43t40.5 -16.5t40.5 16.5t23.5 44t9.5 50t2.5 45.5zM616 635l-407 -675q-12 0 -21 6t-9 16l404 670q19 2 33 -17z" />
    <glyph glyph-name="guilsinglleft" unicode="&#x2039;" horiz-adv-x="233" 
d="M188 358l-70 -140q-5 -12 0 -24l70 -142q-4 -10 -17 -13q-102 131 -119 151q-13 16 0 31q28 33 119 150q13 -2 17 -13z" />
    <glyph glyph-name="guilsinglright" unicode="&#x203a;" horiz-adv-x="233" 
d="M115 218l-70 140q4 11 17 13q91 -117 119 -150q13 -15 0 -31q-17 -20 -119 -151q-13 3 -17 13l70 142q5 12 0 24z" />
    <glyph glyph-name="fraction" unicode="&#x2044;" horiz-adv-x="100" 
d="M-183 -14q281 426 436 668q21 0 31 -23q-210 -316 -440 -671q-25 0 -27 26z" />
    <glyph glyph-name="fraction" unicode="&#x2215;" horiz-adv-x="100" 
d="M-183 -14q281 426 436 668q21 0 31 -23q-210 -316 -440 -671q-25 0 -27 26z" />
    <glyph glyph-name="zerosuperior" unicode="&#x2070;" 
d="M181 708q49 0 83.5 -31.5t49.5 -75.5t15 -93q0 -81 -38 -140.5t-110 -59.5q-73 0 -111 59.5t-38 140.5q0 79 38.5 139.5t110.5 60.5zM181 682q-74 0 -74 -176q0 -172 74 -172q73 0 73 172q0 24 -2.5 49.5t-9.5 56.5t-23 50.5t-38 19.5z" />
    <glyph glyph-name="foursuperior" unicode="&#x2074;" 
d="M191 431h-155q-9 0 -9 10q0 8 9 20l213 274q9 12 21 12q22 0 22 -5q0 -2 -2 -6l-206 -264q-5 -9 -1.5 -10.5t19.5 -1.5h90q12 0 15 2.5t3 13.5v109q0 8 6 12q20 11 47 11q11 0 11 -19v-115q0 -9 2.5 -11.5t12.5 -2.5h37q6 -4 6 -14t-6 -15h-33q-13 0 -16 -2.5t-3 -13.5
v-14q0 -44 5 -53t34 -12l18 -2q3 -4 2.5 -11.5t-4.5 -9.5q-42 2 -87 2q-63 0 -89 -2q-4 2 -5 9.5t3 11.5l18 2q30 4 35.5 13.5t5.5 51.5v12q0 12 -3 15t-16 3z" />
    <glyph glyph-name="fivesuperior" unicode="&#x2075;" 
d="M269 657l-130 -16q-16 -2 -20.5 -4.5t-7.5 -10.5l-9 -21q-6 -14 14 -15l10 -1q181 -19 181 -134q0 -77 -77 -126t-169 -51q-7 3 -8.5 13.5t5.5 16.5q81 1 136 37.5t55 91.5t-53 79.5t-126 24.5q-16 0 -6 27l37 106q3 9 5.5 12t10.5 4l171 21q7 -2 7 -5q-10 -29 -26 -49z
" />
    <glyph glyph-name="sixsuperior" unicode="&#x2076;" 
d="M189 334q31 0 50.5 21.5t19.5 63.5t-21.5 70.5t-55.5 28.5q-16 0 -32 -4q-4 2 -5.5 6.5t1.5 9.5q39 23 73 23q48 0 79 -33.5t31 -80.5q0 -57 -42.5 -94t-106.5 -37q-70 0 -109.5 43.5t-39.5 106.5q0 111 93 189q44 37 100 58t98 26q6 -1 7.5 -8.5t-3.5 -10.5
q-89 -28 -139 -71q-82 -70 -82 -181q0 -54 23.5 -90t60.5 -36z" />
    <glyph glyph-name="sevensuperior" unicode="&#x2077;" 
d="M238 650h-123q-33 0 -45.5 -5t-24.5 -27q-15 -7 -19 7q19 50 25 78q42 -2 72 -2h115q83 0 93 2q4 -1 4 -7q-29 -36 -64 -100l-172 -311q-9 -2 -18.5 2t-9.5 12l168 303q2 3 4.5 7.5t4 7.5t4 7t3 7t1.5 6t0 5.5t-3 4t-6 2.5t-9 1z" />
    <glyph glyph-name="eightsuperior" unicode="&#x2078;" 
d="M179 308q-58 0 -97 24.5t-39 75.5q0 36 25.5 62.5t63.5 38.5v2q-32 13 -52.5 37t-20.5 55q0 47 36.5 76t90.5 29q53 0 87 -25t34 -71q0 -50 -74 -86q85 -43 85 -114q0 -49 -38.5 -76.5t-100.5 -27.5zM160 497q-57 -22 -57 -86q0 -30 23 -53.5t57 -23.5t55 19t21 49
q0 64 -99 95zM206 539q45 24 45 75q0 27 -19.5 47.5t-48.5 20.5q-30 0 -48.5 -18.5t-18.5 -46.5q0 -49 90 -78z" />
    <glyph glyph-name="ninesuperior" unicode="&#x2079;" 
d="M152 351q101 63 101 205q0 47 -20.5 86.5t-62.5 39.5q-28 0 -49.5 -21.5t-21.5 -56.5q0 -36 21 -64.5t57 -28.5q15 0 33 2q8 -6 2 -15q-30 -24 -67 -24q-47 0 -79 28.5t-32 75.5q0 56 43 93t107 37q66 0 105.5 -45t37.5 -120q-3 -114 -108 -194q-63 -47 -167 -61
q-6 1 -7.5 8.5t2.5 11.5q64 17 105 43z" />
    <glyph glyph-name="parenleftsuperior" unicode="&#x207d;" horiz-adv-x="220" 
d="M107 496q0 -159 104 -242q3 -6 -0.5 -11.5t-9.5 -6.5q-77 36 -118.5 105t-41.5 155t41.5 155t118.5 105q6 -1 9.5 -6.5t0.5 -11.5q-104 -83 -104 -242z" />
    <glyph glyph-name="parenrightsuperior" unicode="&#x207e;" horiz-adv-x="220" 
d="M179 496q0 -86 -41.5 -155t-118.5 -105q-6 1 -9.5 6.5t-0.5 11.5q104 83 104 242t-104 242q-3 6 0.5 11.5t9.5 6.5q77 -36 118.5 -105t41.5 -155z" />
    <glyph glyph-name="nsuperior" unicode="&#x207f;" horiz-adv-x="424" 
d="M80 399v117q0 22 -3 28.5t-16 13.5l-14 7q-4 3 -4 8.5t3 8.5q74 24 91 32q5 0 7 -6v-29q0 -8 9 -8q62 37 105 37q91 0 91 -97v-112q0 -37 5.5 -48.5t27.5 -14.5l21 -3q5 -3 4.5 -10.5t-5.5 -9.5q-58 2 -84 2q-42 0 -76 -2q-5 2 -5.5 9.5t4.5 10.5l11 3q22 6 27.5 16.5
t5.5 46.5v98q0 71 -69 71q-38 0 -60 -24q-12 -14 -12 -41v-104q0 -36 5.5 -46.5t27.5 -16.5l11 -3q5 -3 4.5 -10.5t-5.5 -9.5q-38 2 -74 2q-32 0 -86 -2q-5 2 -5.5 9.5t4.5 10.5l21 3q22 3 27.5 14.5t5.5 48.5z" />
    <glyph glyph-name="zeroinferior" unicode="&#x2080;" 
d="M181 229q49 0 83.5 -31.5t49.5 -75.5t15 -93q0 -81 -38 -140.5t-110 -59.5q-73 0 -111 59.5t-38 140.5q0 79 38.5 139.5t110.5 60.5zM181 203q-74 0 -74 -176q0 -172 74 -172q73 0 73 172q0 24 -2.5 49.5t-9.5 56.5t-23 50.5t-38 19.5z" />
    <glyph glyph-name="oneinferior" unicode="&#x2081;" 
d="M153 -78v193q0 31 -5.5 43t-25.5 14l-31 3q-4 3 -4.5 9.5t3.5 9.5q49 8 122 35q7 0 7 -5q-2 -21 -2 -73v-229q0 -40 6.5 -50.5t35.5 -14.5l17 -2q4 -3 3.5 -11t-4.5 -10q-60 2 -92 2t-88 -2q-4 2 -4.5 10t3.5 11l17 2q29 4 35.5 14.5t6.5 50.5z" />
    <glyph glyph-name="twoinferior" unicode="&#x2082;" 
d="M148 -116h71q39 0 59.5 6.5t35.5 29.5q13 5 19 -7q-5 -10 -11 -25t-10 -23.5t-8.5 -17.5t-9.5 -13q-50 2 -113 2h-72q-45 0 -75 -2q-5 5 -5 7q0 6 2 9q43 27 104 88q92 92 92 166q0 39 -20.5 61.5t-54.5 22.5q-53 0 -90 -63q-6 -4 -12.5 -0.5t-6.5 9.5q41 95 139 95
q54 0 86 -28.5t32 -74.5q0 -62 -76 -138l-56 -56q-34 -34 -34 -40q0 -8 14 -8z" />
    <glyph glyph-name="threeinferior" unicode="&#x2083;" 
d="M254 -52q0 37 -20.5 63t-62.5 26q-41 0 -72 -29q-18 9 -13 27q79 33 106 51q31 21 31 56q0 25 -15.5 39t-37.5 14q-49 0 -85 -58q-13 -1 -17 11q19 38 53 59.5t76 21.5t69 -21t27 -50q0 -23 -16 -42t-57 -38q-3 -4 -0.5 -7t8.5 -3q40 0 69 -26t29 -69q0 -72 -69 -123
q-72 -53 -144 -53q-71 0 -71 39q0 14 9.5 23t23.5 9q16 0 33 -26q11 -18 32 -18q36 0 75 34.5t39 89.5z" />
    <glyph glyph-name="fourinferior" unicode="&#x2084;" 
d="M191 -48h-155q-9 0 -9 10q0 8 9 20l213 274q9 12 21 12q22 0 22 -5q0 -2 -2 -6l-206 -264q-5 -9 -1.5 -10.5t19.5 -1.5h90q12 0 15 2.5t3 13.5v109q0 8 6 12q20 11 47 11q11 0 11 -19v-115q0 -9 2.5 -11.5t12.5 -2.5h37q6 -4 6 -14.5t-6 -14.5h-33q-13 0 -16 -2.5
t-3 -13.5v-14q0 -44 5 -53t34 -12l18 -2q3 -4 2.5 -11.5t-4.5 -9.5q-42 2 -87 2q-63 0 -89 -2q-4 2 -5 9.5t3 11.5l18 2q30 4 35.5 13.5t5.5 51.5v12q0 12 -3 15t-16 3z" />
    <glyph glyph-name="fiveinferior" unicode="&#x2085;" 
d="M269 178l-130 -16q-16 -2 -20.5 -4.5t-7.5 -10.5l-9 -21q-6 -14 14 -15l10 -1q181 -19 181 -134q0 -77 -77 -126t-169 -51q-7 3 -8.5 13.5t5.5 16.5q81 1 136 37.5t55 91.5t-53 79.5t-126 24.5q-16 0 -6 27l37 106q3 9 5.5 12t10.5 4l171 21q7 -2 7 -5q-10 -29 -26 -49z
" />
    <glyph glyph-name="sixinferior" unicode="&#x2086;" 
d="M189 -145q31 0 50.5 21.5t19.5 63.5t-21.5 70.5t-55.5 28.5q-16 0 -32 -4q-4 2 -5.5 6.5t1.5 9.5q39 23 73 23q48 0 79 -34t31 -80q0 -57 -42.5 -94t-106.5 -37q-70 0 -109.5 43.5t-39.5 106.5q0 111 93 189q44 37 100 58t98 26q6 -1 7.5 -8.5t-3.5 -10.5
q-89 -28 -139 -71q-82 -70 -82 -181q0 -54 23.5 -90t60.5 -36z" />
    <glyph glyph-name="seveninferior" unicode="&#x2087;" 
d="M238 171h-123q-33 0 -45.5 -5t-24.5 -27q-15 -7 -19 7q19 50 25 78q42 -2 72 -2h115q83 0 93 2q4 -1 4 -7q-29 -36 -64 -100l-172 -311q-9 -2 -18.5 2t-9.5 12l168 303q2 3 4.5 7.5t4 7.5t4 7t3 7t1.5 6t0 5.5t-3 4t-6 2.5t-9 1z" />
    <glyph glyph-name="eightinferior" unicode="&#x2088;" 
d="M179 -171q-58 0 -97 24.5t-39 75.5q0 36 25.5 62.5t63.5 38.5v2q-32 13 -52.5 37t-20.5 55q0 47 36.5 76t90.5 29q53 0 87 -25t34 -71q0 -50 -74 -86q85 -43 85 -114q0 -49 -38.5 -76.5t-100.5 -27.5zM160 18q-57 -22 -57 -86q0 -30 23 -53.5t57 -23.5t55 19t21 49
q0 64 -99 95zM206 60q45 24 45 75q0 27 -19.5 47.5t-48.5 20.5q-30 0 -48.5 -18.5t-18.5 -46.5q0 -49 90 -78z" />
    <glyph glyph-name="nineinferior" unicode="&#x2089;" 
d="M152 -128q101 63 101 205q0 47 -20.5 86.5t-62.5 39.5q-28 0 -49.5 -21.5t-21.5 -56.5q0 -36 21 -64.5t57 -28.5q15 0 33 2q8 -6 2 -15q-30 -24 -67 -24q-47 0 -79 28.5t-32 75.5q0 56 43 93t107 37q66 0 105.5 -45t37.5 -120q-3 -114 -108 -194q-63 -47 -167 -61
q-6 1 -7.5 8.5t2.5 11.5q64 17 105 43z" />
    <glyph glyph-name="parenleftinferior" unicode="&#x208d;" horiz-adv-x="220" 
d="M107 27q0 -159 104 -242q3 -6 -0.5 -11.5t-9.5 -6.5q-77 36 -118.5 105t-41.5 155t41.5 155t118.5 105q6 -1 9.5 -6.5t0.5 -11.5q-104 -83 -104 -242z" />
    <glyph glyph-name="parenrightinferior" unicode="&#x208e;" horiz-adv-x="220" 
d="M179 27q0 -86 -41.5 -155t-118.5 -105q-6 1 -9.5 6.5t-0.5 11.5q104 83 104 242t-104 242q-3 6 0.5 11.5t9.5 6.5q77 -36 118.5 -105t41.5 -155z" />
    <glyph glyph-name="colonmonetary" unicode="&#x20a1;" horiz-adv-x="584" 
d="M375 596l-155 -522q23 -19 50 -29l161 539q-23 11 -56 12zM194 99l148 496q-89 -3 -151.5 -76.5t-62.5 -207.5q0 -137 66 -212zM459 567l-157 -531q26 -6 54 -6q116 0 170 129q4 4 11.5 3t9.5 -7q-4 -33 -16.5 -71.5t-22.5 -54.5q-14 -1 -29 -9q-45 -20 -129 -20
q-34 0 -58 4l-21 -72q-5 -8 -17.5 -8t-16.5 8l23 78q-32 7 -53 17l-29 -95q-5 -8 -17.5 -8t-16.5 8l33 110q-137 83 -137 262q0 76 29 139.5t77 105.5q89 76 205 76l22 74q4 7 16.5 7t16.5 -7l-22 -74q30 0 57 -6l24 80q5 7 17 7t17 -7l-26 -86q21 -5 36 -9q15 -5 21 -4
q5 -92 9 -133q-3 -5 -11 -5t-12 4q-11 67 -57 101z" />
    <glyph glyph-name="franc" unicode="&#x20a3;" horiz-adv-x="500" 
d="M36 210h88v274q0 78 -8.5 97.5t-48.5 22.5l-15 1q-4 3 -3.5 12.5t5.5 11.5q66 -3 106 -3h175q115 0 128 3q0 -71 3 -125q-2 -5 -10 -6t-13 3q-7 38 -20.5 58.5t-46.5 29.5q-24 6 -92 6h-58q-21 0 -24.5 -5t-3.5 -31v-170q0 -19 4.5 -22.5t26.5 -3.5h65q64 0 80 6
q19 7 27 32l6 19q3 4 12.5 4t11.5 -4q0 -10 -1.5 -33.5t-1.5 -42.5q0 -18 1.5 -40t1.5 -32q-2 -4 -10.5 -4t-13.5 4l-7 18q-9 25 -33 33q-16 5 -73 5h-65q-21 0 -26 -4.5t-5 -21.5v-92h201q6 -4 6 -16t-6 -16h-201v-36q0 -77 8.5 -95.5t49.5 -22.5l32 -3q4 -3 3.5 -12.5
t-5.5 -11.5q-84 3 -126 3t-115 -3q-4 2 -5 10.5t3 13.5l24 3q40 5 48.5 23.5t8.5 94.5v36h-88q-6 4 -6 16t6 16z" />
    <glyph glyph-name="lira" unicode="&#x20a4;" horiz-adv-x="500" 
d="M28 364h86q10 0 12.5 1.5t1.5 7.5v28q0 104 60 171.5t153 67.5q36 0 56 -15q11 -10 11 -23q0 -14 -10.5 -28t-18.5 -14q-5 0 -15 7q-39 31 -68 31q-39 0 -66.5 -40t-27.5 -120q0 -23 2 -65q1 -10 3.5 -12.5t11.5 -2.5h147q7 -3 7 -16.5t-7 -15.5h-139q-13 0 -17 -2.5
t-4 -11.5v-34q0 -10 3.5 -12.5t16.5 -2.5h140q7 -5 7 -18t-7 -14h-139q-21 0 -22 -14q-2 -23 -23.5 -65.5t-67.5 -71.5l1 -2q37 5 80 -1q22 -3 88 -31q61 -26 92 -26q50 0 39 72q-3 17 4 26t20 9q15 0 25.5 -13.5t10.5 -31.5q0 -40 -46.5 -76t-105.5 -36q-42 0 -114 39
q-68 37 -103 37q-34 0 -34 -33q0 -10 -14 -18.5t-24 -8.5q-18 0 -18 18q0 26 48 65q33 28 49.5 71t16.5 77q0 9 -2.5 11.5t-13.5 2.5h-89q-6 2 -6 14.5t6 17.5h91q11 0 14 1.5t2 7.5v46q0 9 -2.5 11.5t-13.5 2.5h-87q-6 2 -6 15.5t6 16.5z" />
    <glyph glyph-name="peseta" unicode="&#x20a7;" horiz-adv-x="500" 
d="M164 470h199q-5 61 -44 96t-106 35q-35 0 -42 -5.5t-7 -28.5v-97zM10 470h84v24q0 63 -7 80t-40 21l-32 4q-5 4 -4.5 12.5t6.5 11.5q55 8 179 8q114 0 174 -39q63 -41 70 -122h47q6 -5 6 -16.5t-6 -15.5h-46q-5 -95 -90 -139q-57 -29 -124 -29q-5 2 -5.5 10t4.5 9
q133 25 138 149h-200v-295q0 -77 8.5 -95.5t51.5 -23.5l25 -3q4 -4 3 -13t-5 -11q-78 3 -118 3q-50 0 -110 -3q-5 2 -5.5 10.5t3.5 13.5l23 3q38 5 46 23.5t8 95.5v295h-84q-5 4 -5 16t5 16z" />
    <glyph glyph-name="Euro" unicode="&#x20ac;" horiz-adv-x="500" 
d="M36 377h41q19 117 88 190t168 73q36 0 95 -22q10 -4 21 -5q0 -52 8 -118q-3 -6 -10 -6.5t-11 4.5q-13 55 -38 87t-79 32q-60 0 -103 -59t-52 -176h256q3 -4 0.5 -16t-10.5 -16h-248q-3 -26 -1 -57h239q5 -4 2 -16t-12 -16h-226q7 -120 49 -180t110 -60q85 0 130 123
q4 4 10.5 2.5t8.5 -6.5q-12 -75 -33 -119q-20 -8 -26 -10q-54 -20 -96 -20q-108 0 -168.5 71t-72.5 199h-63q-4 5 0 16t10 16h51q-2 20 1 57h-49q-4 5 0 16t10 16z" />
    <glyph glyph-name="afii61289" unicode="&#x2113;" horiz-adv-x="420" 
d="M114 252v171q0 117 41.5 185.5t119.5 68.5q45 0 72.5 -30.5t27.5 -76.5q0 -42 -15 -81t-50 -80.5t-55 -61.5t-67 -63v-118q0 -71 19.5 -103.5t62.5 -32.5q59 0 101 90q5 4 12 -1.5t7 -12.5q-45 -120 -148 -120q-70 0 -99 46t-29 130v57q-26 -25 -80 -67q-5 0 -9 6t-2 11
q75 67 91 83zM188 516v-192q140 128 140 234q0 36 -16.5 61.5t-51.5 25.5q-33 0 -52.5 -33t-19.5 -96z" />
    <glyph glyph-name="trademark" unicode="&#x2122;" horiz-adv-x="550" 
d="M110 531v98v6t-1 3.5t-3 1.5h-6h-17q-35 0 -43 -32q-8 -3 -10 3q5 32 12 60h9q6 -8 10.5 -9.5t17.5 -1.5h115q17 0 28 11h8q-7 -28 -5 -63q-1 -2 -5 -2.5t-5 1.5q-2 13 -4.5 18.5t-10.5 10t-22 4.5h-21q-5 0 -6 -1.5t-1 -9.5v-101q0 -22 2.5 -29.5t13.5 -10.5l15 -2
q2 -2 1.5 -7t-2.5 -6q-20 1 -48 1q-36 0 -52 -1q-7 3 -1 13l14 2q17 2 17 43zM464 517l-2 89q0 9 -1 10q-1 0 -17 -30l-25 -49l-8 -16t-13.5 -28t-8.5 -20q-9 -3 -11 -1q-7 20 -26 57l-25 50q-19 41 -21 42q-2 -3 -3 -47q-1 -17 -1 -61q0 -15 3.5 -19.5t15.5 -6.5l8 -1
q4 -6 0 -13q-9 1 -43 1q-22 0 -37 -1q-2 1 -2.5 5.5t1.5 7.5l5 1q21 2 23 21q8 78 8 119q0 17 -22 20l-7 1q-1 2 -1 7t2 6q10 -1 31 -1q27 0 42 1q0 -10 22 -51l25 -47q16 -28 17 -28q2 2 17 28l24 43q15 27 23 55q15 -1 30 -1q25 0 36 1q4 -1 4.5 -6.5t-3.5 -6.5l-9 -1
q-17 -2 -17 -22q0 -63 3 -109q1 -15 3 -20t9 -7l14 -3q2 -2 2 -7t-2 -6q-13 1 -46 1q-28 0 -41 -1q-2 2 -2.5 6.5t2.5 6.5l9 3q11 4 13 8t2 20z" />
    <glyph glyph-name="estimated" unicode="&#x212e;" horiz-adv-x="816" 
d="M773 306h-591q-5 0 -5 -5v-178q0 -11 8 -21q91 -96 224 -96q69 0 130 28.5t105 79.5h53q-51 -59 -126.5 -93.5t-162.5 -34.5q-151 0 -258 96t-107 232t107 232.5t258 96.5t258 -96.5t107 -232.5v-8zM639 329v180q0 12 -9 21q-91 93 -221 93q-131 0 -223 -95q-9 -9 -9 -23
v-176q0 -5 5 -5h453q4 0 4 5z" />
    <glyph glyph-name="onethird" unicode="&#x2153;" horiz-adv-x="780" 
d="M100 333v193q0 31 -5.5 43t-25.5 14l-31 3q-4 3 -4.5 9.5t3.5 9.5q49 8 122 35q7 0 7 -5q-2 -21 -2 -73v-229q0 -40 6.5 -50.5t35.5 -14.5l17 -2q4 -3 3.5 -11t-4.5 -10q-60 2 -92 2t-88 -2q-4 2 -4.5 10t3.5 11l17 2q29 4 35.5 14.5t6.5 50.5zM593 201q-41 0 -72 -29
q-18 9 -13 27q79 33 106 51q31 21 31 56q0 25 -15.5 39t-37.5 14q-49 0 -85 -58q-13 -1 -17 11q19 38 53 59.5t76 21.5t69 -21t27 -50q0 -23 -16 -42t-57 -38q-7 -8 8 -10q42 -5 70 -29t28 -66q0 -72 -69 -123q-72 -53 -144 -53q-71 0 -71 39q0 14 9.5 23t23.5 9
q16 0 33 -26q11 -18 32 -18q36 0 75 34.5t39 89.5q0 37 -20.5 63t-62.5 26zM147 -14q281 426 436 668q21 0 31 -23q-210 -316 -440 -671q-25 0 -27 26z" />
    <glyph glyph-name="twothirds" unicode="&#x2154;" horiz-adv-x="780" 
d="M125 295h71q39 0 59.5 6.5t35.5 29.5q13 5 19 -7q-5 -10 -11 -25t-10 -23.5t-8.5 -17.5t-9.5 -13q-50 2 -113 2h-72q-45 0 -75 -2q-10 8 -3 16q43 27 104 88q92 92 92 166q0 39 -20.5 61.5t-54.5 22.5q-53 0 -90 -63q-6 -4 -12.5 -0.5t-6.5 9.5q41 95 139 95
q54 0 86 -28.5t32 -74.5q0 -62 -76 -138l-56 -56q-34 -34 -34 -40q0 -8 14 -8zM609 201q-41 0 -72 -29q-18 9 -13 27q79 33 106 51q31 21 31 56q0 25 -15.5 39t-37.5 14q-49 0 -85 -58q-13 -1 -17 11q19 38 53 59.5t76 21.5t69 -21t27 -50q0 -23 -16 -42t-57 -38
q-7 -8 8 -10q42 -5 70 -29t28 -66q0 -72 -69 -123q-72 -53 -144 -53q-71 0 -71 39q0 14 9.5 23t23.5 9q16 0 33 -26q11 -18 32 -18q36 0 75 34.5t39 89.5q0 37 -20.5 63t-62.5 26zM183 -14q281 426 436 668q21 0 31 -23q-210 -316 -440 -671q-25 0 -27 26z" />
    <glyph glyph-name="oneeighth" unicode="&#x215b;" horiz-adv-x="780" 
d="M597 393q53 0 87 -25t34 -71q0 -50 -74 -86q85 -43 85 -114q0 -49 -38.5 -76.5t-100.5 -27.5q-58 0 -97 24.5t-39 75.5q0 36 25.5 62.5t63.5 38.5v2q-32 13 -52.5 37t-20.5 55q0 47 36.5 76t90.5 29zM571 182q-57 -22 -57 -86q0 -30 23 -53.5t57 -23.5t55 19t21 49
q0 64 -99 95zM617 224q45 24 45 75q0 27 -19.5 47.5t-48.5 20.5q-30 0 -48.5 -18.5t-18.5 -46.5q0 -49 90 -78zM130 -14q281 426 436 668q21 0 31 -23q-210 -316 -440 -671q-25 0 -27 26zM110 333v193q0 31 -5.5 43t-25.5 14l-31 3q-4 3 -4.5 9.5t3.5 9.5q49 8 122 35
q7 0 7 -5q-2 -21 -2 -73v-229q0 -40 6.5 -50.5t35.5 -14.5l17 -2q4 -3 3.5 -11t-4.5 -10q-60 2 -92 2t-88 -2q-4 2 -4.5 10t3.5 11l17 2q29 4 35.5 14.5t6.5 50.5z" />
    <glyph glyph-name="threeeighths" unicode="&#x215c;" horiz-adv-x="780" 
d="M622 393q53 0 87 -25t34 -71q0 -50 -74 -86q85 -43 85 -114q0 -49 -38.5 -76.5t-100.5 -27.5q-58 0 -97 24.5t-39 75.5q0 36 25.5 62.5t63.5 38.5v2q-32 13 -52.5 37t-20.5 55q0 47 36.5 76t90.5 29zM596 182q-57 -22 -57 -86q0 -30 23 -53.5t57 -23.5t55 19t21 49
q0 64 -99 95zM642 224q45 24 45 75q0 27 -19.5 47.5t-48.5 20.5q-30 0 -48.5 -18.5t-18.5 -46.5q0 -49 90 -78zM168 -14q281 426 436 668q21 0 31 -23q-210 -316 -440 -671q-25 0 -27 26zM146 448q-41 0 -72 -29q-18 9 -13 27q79 33 106 51q31 21 31 56q0 25 -15.5 39
t-37.5 14q-49 0 -85 -58q-13 -1 -17 11q19 38 53 59.5t76 21.5t69 -21t27 -50q0 -23 -16 -42t-57 -38q-7 -8 8 -10q42 -5 70 -29t28 -66q0 -72 -69 -123q-72 -53 -144 -53q-71 0 -71 39q0 14 9.5 23t23.5 9q16 0 33 -26q11 -18 32 -18q36 0 75 34.5t39 89.5q0 37 -20.5 63
t-62.5 26z" />
    <glyph glyph-name="fiveeighths" unicode="&#x215d;" horiz-adv-x="780" 
d="M624 393q53 0 87 -25t34 -71q0 -50 -74 -86q85 -43 85 -114q0 -49 -38.5 -76.5t-100.5 -27.5q-58 0 -97 24.5t-39 75.5q0 36 25.5 62.5t63.5 38.5v2q-32 13 -52.5 37t-20.5 55q0 47 36.5 76t90.5 29zM598 182q-57 -22 -57 -86q0 -30 23 -53.5t57 -23.5t55 19t21 49
q0 64 -99 95zM644 224q45 24 45 75q0 27 -19.5 47.5t-48.5 20.5q-30 0 -48.5 -18.5t-18.5 -46.5q0 -49 90 -78zM166 -14q281 426 436 668q21 0 31 -23q-210 -316 -440 -671q-25 0 -27 26zM260 589l-130 -16q-16 -2 -20.5 -4.5t-7.5 -10.5l-9 -21q-6 -14 14 -15l10 -1
q181 -19 181 -134q0 -77 -77 -126t-169 -51q-7 3 -8.5 13.5t5.5 16.5q81 1 136 37.5t55 91.5t-53 79.5t-126 24.5q-16 0 -6 27l37 106q3 9 5.5 12t10.5 4l171 21q7 -2 7 -5q-10 -29 -26 -49z" />
    <glyph glyph-name="seveneighths" unicode="&#x215e;" horiz-adv-x="780" 
d="M621 393q53 0 87 -25t34 -71q0 -50 -74 -86q85 -43 85 -114q0 -49 -38.5 -76.5t-100.5 -27.5q-58 0 -97 24.5t-39 75.5q0 36 25.5 62.5t63.5 38.5v2q-32 13 -52.5 37t-20.5 55q0 47 36.5 76t90.5 29zM595 182q-57 -22 -57 -86q0 -30 23 -53.5t57 -23.5t55 19t21 49
q0 64 -99 95zM641 224q45 24 45 75q0 27 -19.5 47.5t-48.5 20.5q-30 0 -48.5 -18.5t-18.5 -46.5q0 -49 90 -78zM154 -14q281 426 436 668q21 0 31 -23q-210 -316 -440 -671q-25 0 -27 26zM260 582h-123q-33 0 -45.5 -5t-24.5 -27q-15 -7 -19 7q19 50 25 78q42 -2 72 -2h115
q83 0 93 2q4 -1 4 -7q-29 -36 -64 -100l-172 -311q-9 -2 -18.5 2t-9.5 12l168 303q2 3 4.5 7.5t4 7.5t4 7t3 7t1.5 6t0 5.5t-3 4t-6 2.5t-9 1z" />
    <glyph glyph-name="partialdiff" unicode="&#x2202;" horiz-adv-x="494" 
d="M229 387q45 0 74.5 -13t72.5 -51q9 43 10 110q1 63 -12.5 113.5t-51 87t-95.5 36.5q-63 0 -126 -38q-11 -6 -16 -0.5t-5 21.5q0 28 19 40q37 21 99 21q65 0 116 -30t81 -79.5t45 -107t15 -118.5q0 -158 -51 -259q-32 -62 -74.5 -98t-109.5 -36q-78 0 -129 57t-51 136
q0 78 56 143t133 65zM256 351q-42 0 -74 -37t-46 -82t-14 -85q0 -48 23 -90t63 -42q27 0 49.5 13t39 38.5t28 49.5t20.5 62t13 58t10 54q-55 61 -112 61z" />
    <glyph glyph-name="product" unicode="&#x220f;" horiz-adv-x="791" 
d="M531 663h-271q-36 0 -43 -4.5t-7 -27.5v-591q0 -80 9.5 -100.5t51.5 -24.5l29 -3q4 -3 3.5 -13t-5.5 -12q-81 3 -127 3q-19 0 -38.5 -0.5t-42 -1.5t-35.5 -1q-5 2 -5.5 11t3.5 14l17 3q41 7 49.5 26t8.5 99v510q0 79 -10 101t-49 25l-26 2q-4 3 -3.5 13t5.5 12
q15 0 58 -1.5t68 -1.5h453q50 0 118 3q5 -2 5.5 -12t-3.5 -13l-21 -2q-42 -4 -51 -24.5t-9 -101.5v-510q0 -81 9 -100.5t51 -24.5l24 -3q4 -3 3.5 -13t-5.5 -12q-72 3 -121 3q-55 0 -121 -3q-5 2 -5.5 11t3.5 14l19 3q45 7 53 25.5t8 99.5v591q0 23 -7 27.5t-43 4.5z" />
    <glyph glyph-name="summation" unicode="&#x2211;" horiz-adv-x="684" 
d="M570 700l6 -143q-2 -7 -9 -7t-9 7q-8 31 -13.5 45t-20 32.5t-40.5 25.5t-66 7h-268l247 -340q14 -20 1 -36l-267 -325h367q51 0 74 20t48 79q3 7 11 7t10 -7q-10 -38 -39 -182q-5 0 -31 3.5t-39 3.5h-459q-3 0 -39 -2q-6 -1 -8 6t4 15l289 346q14 16 1 33l-284 395
q-5 7 -1.5 13t9.5 6q24 -2 73 -2h453z" />
    <glyph glyph-name="minus" unicode="&#x2212;" horiz-adv-x="500" 
d="M443 230v-49h-385v49h385z" />
    <glyph glyph-name="radical" unicode="&#x221a;" horiz-adv-x="549" 
d="M26 417l-16 33l151 74l192 -410l127 803l35 -5l-150 -950l-243 502z" />
    <glyph glyph-name="infinity" unicode="&#x221e;" horiz-adv-x="763" 
d="M51 229q7 68 69 105.5t133 6.5q33 -15 56.5 -32t72.5 -62q49 45 72.5 62t56.5 32q71 31 133 -6.5t69 -105.5q6 -59 -37.5 -109.5t-109.5 -44.5q-29 3 -55.5 12.5t-47.5 23.5t-35 26t-28.5 26.5l-17.5 17.5l-17.5 -17.5t-28.5 -26.5t-35 -26t-47.5 -23.5t-55.5 -12.5
q-66 -6 -109.5 44.5t-37.5 109.5zM101 209q1 -43 37.5 -68.5t78.5 -15.5q27 6 48 18t33.5 23t50.5 48q-80 67 -119 81q-58 20 -94 -12.5t-35 -73.5zM663 209q1 41 -35 73.5t-94 12.5q-39 -14 -119 -81q31 -30 39 -37.5t26.5 -22t32 -19.5t34.5 -10q42 -10 78.5 15.5
t37.5 68.5z" />
    <glyph glyph-name="integral" unicode="&#x222b;" horiz-adv-x="274" 
d="M190 388l-1 -194q-1 -173 -30.5 -257.5t-95.5 -84.5q-42 0 -58 40q-13 33 24 50q26 11 57 -18q25 -24 36 29q5 28 4 62q-6 201 -6 283v130q0 200 26 279q11 30 31.5 48t47.5 18q32 0 49.5 -17t17.5 -34q0 -16 -16 -28t-36 -12q-15 0 -29 12q-17 14 -28 9.5t-12 -18.5
q-1 -11 9.5 -119t9.5 -178z" />
    <glyph glyph-name="approxequal" unicode="&#x2248;" horiz-adv-x="500" 
d="M419 352l31 -22q-37 -83 -108 -83q-40 0 -94 26q-4 2 -13.5 6.5t-13 6.5t-11 5t-12 4.5t-11 3.5t-13 2.5t-12.5 0.5q-42 0 -85 -56l-30 25q41 81 121 81q35 0 103 -35q42 -21 73 -21q41 0 75 56zM419 199l31 -22q-37 -83 -110 -83q-38 0 -92 26q-3 1 -13 6t-13.5 6.5
t-11.5 5.5t-12.5 5t-11.5 3t-13.5 2.5t-13.5 0.5q-39 0 -82 -56l-30 25q41 81 118 81q36 0 102 -33q43 -23 77 -23q41 0 75 56z" />
    <glyph glyph-name="notequal" unicode="&#x2260;" horiz-adv-x="500" 
d="M58 305h232l63 96l38 -26l-46 -70h98v-49h-131l-67 -101h198v-49h-230l-64 -97l-38 26l47 71h-100v49h133l67 101h-200v49z" />
    <glyph glyph-name="lessequal" unicode="&#x2264;" horiz-adv-x="500" 
d="M443 49v-49h-385v49h385zM56 328l389 185v-58l-317 -148v-2l317 -149v-57l-389 184v45z" />
    <glyph glyph-name="greaterequal" unicode="&#x2265;" horiz-adv-x="500" 
d="M55 513l389 -185v-45l-389 -184v57l317 149v2l-317 148v58zM443 49v-49h-385v49h385z" />
    <glyph glyph-name="lozenge" unicode="&#x25ca;" horiz-adv-x="518" 
d="M289 -40h-60l-194 382l194 373h60l194 -373zM423 342l-164 319l-164 -319l164 -328z" />
    <glyph glyph-name="A.titling" unicode="&#xe000;" horiz-adv-x="610" 
d="M371 266h-167q-18 0 -22.5 -3t-9.5 -18l-53 -156q-11 -33 -11 -49t30 -21l37 -6q6 -9 -1 -16q-12 1 -99 3q-49 0 -94 -3q-8 6 -2 16l38 9q20 5 30 14.5t23 38.5q33 74 89 222l100 265q19 52 16 76q17 7 28 16.5t15 15.5t5 6q10 0 13 -9q2 -6 8 -24.5t17.5 -54t25.5 -77.5
l131 -380q23 -67 37.5 -87.5t44.5 -25.5l30 -5q8 -7 -1 -16q-47 3 -116 3q-13 0 -109 -3q-9 7 -2 16l29 6q33 6 33 24q0 14 -13 53l-48 149q-5 15 -10 18t-22 3zM219 297h139q20 0 22 3.5t-5 23.5l-56 167q-20 63 -27 76q0 -1 -7 -17t-16 -37.5t-17 -44.5l-52 -145
q-7 -19 -4.5 -22.5t23.5 -3.5z" />
    <glyph glyph-name="AE.titling" unicode="&#xe001;" horiz-adv-x="835" 
d="M368 660h251q120 0 135 3q2 -7 4.5 -30t5.5 -52.5t5 -44.5q-5 -7 -18 -3q-10 40 -27 64t-55 32q-34 8 -98 8h-55q-40 0 -43 -13q-5 -20 -5 -73v-159q0 -24 4.5 -29t25.5 -5h56q70 0 92 7q19 6 28 38l10 38q3 2 9.5 2t8.5 -3q0 -8 -1.5 -42t-1.5 -55t1.5 -55t1.5 -42
q-2 -3 -8.5 -3t-9.5 2l-11 40q-9 29 -27 36q-28 10 -92 10h-56q-21 0 -25.5 -5t-4.5 -29v-141q0 -91 17 -110q20 -22 118 -23q96 -1 137 19.5t72 94.5q4 2 10.5 0.5t7.5 -5.5q-4 -28 -17 -72t-25 -63q-22 0 -66 0.5t-66 1.5q-21 0 -63 0.5t-63 0.5h-95q-72 0 -141 -3
q-10 6 -2 16l40 6q33 4 45 19q15 19 15 120v139q0 23 -5 28.5t-30 5.5h-95q-22 0 -29.5 -5t-17.5 -23q-62 -111 -116 -233q-18 -41 17 -48l49 -9q3 -2 2.5 -8t-3.5 -8q-34 3 -105 3q-47 0 -98 -3q-4 3 -4.5 8.5t2.5 7.5l35 8q18 5 32 20.5t38 58.5q23 41 249 467
q21 41 20.5 53t-22.5 16l-60 11q-9 10 1 16q54 -3 116 -3zM276 358h81q25 0 30 5.5t5 28.5v201q0 29 -3 37h-4q-8 -5 -23 -34q-83 -158 -108 -213q-8 -17 -4.5 -21t26.5 -4z" />
    <glyph glyph-name="Aacute.titling" unicode="&#xe002;" horiz-adv-x="610" 
d="M371 266h-167q-18 0 -22.5 -3t-9.5 -18l-53 -156q-11 -33 -11 -49t30 -21l37 -6q6 -9 -1 -16q-12 1 -99 3q-49 0 -94 -3q-8 6 -2 16l38 9q20 5 30 14.5t23 38.5q33 74 89 222l100 265q19 52 16 76q17 7 28 16.5t15 15.5t5 6q10 0 13 -9q2 -6 8 -24.5t17.5 -54t25.5 -77.5
l131 -380q23 -67 37.5 -87.5t44.5 -25.5l30 -5q8 -7 -1 -16q-47 3 -116 3q-13 0 -109 -3q-9 7 -2 16l29 6q33 6 33 24q0 14 -13 53l-48 149q-5 15 -10 18t-22 3zM219 297h139q20 0 22 3.5t-5 23.5l-56 167q-20 63 -27 76q0 -1 -7 -17t-16 -37.5t-17 -44.5l-52 -145
q-7 -19 -4.5 -22.5t23.5 -3.5zM403 765l-131 -59q-11 4 -6 15l110 91q11 11 20 11q12 0 21 -17q10 -21 5 -27q-2 -6 -19 -14z" />
    <glyph glyph-name="Abreve.titling" unicode="&#xe003;" horiz-adv-x="610" 
d="M371 266h-167q-18 0 -22.5 -3t-9.5 -18l-53 -156q-11 -33 -11 -49t30 -21l37 -6q6 -9 -1 -16q-12 1 -99 3q-49 0 -94 -3q-8 6 -2 16l38 9q20 5 30 14.5t23 38.5q33 74 89 222l100 265q19 52 16 76q17 7 28 16.5t15 15.5t5 6q10 0 13 -9q2 -6 8 -24.5t17.5 -54t25.5 -77.5
l131 -380q23 -67 37.5 -87.5t44.5 -25.5l30 -5q8 -7 -1 -16q-47 3 -116 3q-13 0 -109 -3q-9 7 -2 16l29 6q33 6 33 24q0 14 -13 53l-48 149q-5 15 -10 18t-22 3zM219 297h139q20 0 22 3.5t-5 23.5l-56 167q-20 63 -27 76q0 -1 -7 -17t-16 -37.5t-17 -44.5l-52 -145
q-7 -19 -4.5 -22.5t23.5 -3.5zM305 715q-94 0 -91 103q8 6 15 0q13 -62 76 -62q64 0 77 62q6 6 14 0q3 -103 -91 -103z" />
    <glyph glyph-name="Acircumflex.titling" unicode="&#xe004;" horiz-adv-x="610" 
d="M371 266h-167q-18 0 -22.5 -3t-9.5 -18l-53 -156q-11 -33 -11 -49t30 -21l37 -6q6 -9 -1 -16q-12 1 -99 3q-49 0 -94 -3q-8 6 -2 16l38 9q20 5 30 14.5t23 38.5q33 74 89 222l100 265q19 52 16 76q17 7 28 16.5t15 15.5t5 6q10 0 13 -9q2 -6 8 -24.5t17.5 -54t25.5 -77.5
l131 -380q23 -67 37.5 -87.5t44.5 -25.5l30 -5q8 -7 -1 -16q-47 3 -116 3q-13 0 -109 -3q-9 7 -2 16l29 6q33 6 33 24q0 14 -13 53l-48 149q-5 15 -10 18t-22 3zM219 297h139q20 0 22 3.5t-5 23.5l-56 167q-20 63 -27 76q0 -1 -7 -17t-16 -37.5t-17 -44.5l-52 -145
q-7 -19 -4.5 -22.5t23.5 -3.5zM195 719l98 92q17 17 33 0l97 -92q0 -10 -10 -12l-92 52q-12 8 -25 0l-90 -52q-11 0 -11 12z" />
    <glyph glyph-name="Adieresis.titling" unicode="&#xe005;" horiz-adv-x="610" 
d="M371 266h-167q-18 0 -22.5 -3t-9.5 -18l-53 -156q-11 -33 -11 -49t30 -21l37 -6q6 -9 -1 -16q-12 1 -99 3q-49 0 -94 -3q-8 6 -2 16l38 9q20 5 30 14.5t23 38.5q33 74 89 222l100 265q19 52 16 76q17 7 28 16.5t15 15.5t5 6q10 0 13 -9q2 -6 8 -24.5t17.5 -54t25.5 -77.5
l131 -380q23 -67 37.5 -87.5t44.5 -25.5l30 -5q8 -7 -1 -16q-47 3 -116 3q-13 0 -109 -3q-9 7 -2 16l29 6q33 6 33 24q0 14 -13 53l-48 149q-5 15 -10 18t-22 3zM219 297h139q20 0 22 3.5t-5 23.5l-56 167q-20 63 -27 76q0 -1 -7 -17t-16 -37.5t-17 -44.5l-52 -145
q-7 -19 -4.5 -22.5t23.5 -3.5zM228 705q-37 0 -39 40q0 17 11 29.5t28 12.5t28.5 -12.5t11.5 -28.5q0 -17 -11.5 -29t-28.5 -12zM383 705q-39 0 -41 40q0 17 11.5 29.5t29.5 12.5q17 0 27.5 -12.5t10.5 -28.5q0 -18 -10.5 -29.5t-27.5 -11.5z" />
    <glyph glyph-name="Agrave.titling" unicode="&#xe006;" horiz-adv-x="610" 
d="M371 266h-167q-18 0 -22.5 -3t-9.5 -18l-53 -156q-11 -33 -11 -49t30 -21l37 -6q6 -9 -1 -16q-12 1 -99 3q-49 0 -94 -3q-8 6 -2 16l38 9q20 5 30 14.5t23 38.5q33 74 89 222l100 265q19 52 16 76q17 7 28 16.5t15 15.5t5 6q10 0 13 -9q2 -6 8 -24.5t17.5 -54t25.5 -77.5
l131 -380q23 -67 37.5 -87.5t44.5 -25.5l30 -5q8 -7 -1 -16q-47 3 -116 3q-13 0 -109 -3q-9 7 -2 16l29 6q33 6 33 24q0 14 -13 53l-48 149q-5 15 -10 18t-22 3zM219 297h139q20 0 22 3.5t-5 23.5l-56 167q-20 63 -27 76q0 -1 -7 -17t-16 -37.5t-17 -44.5l-52 -145
q-7 -19 -4.5 -22.5t23.5 -3.5zM353 707l-130 59q-16 6 -19 15q-4 8 8 26q12 17 20 17q6 0 20 -12l107 -90q4 -11 -6 -15z" />
    <glyph glyph-name="Amacron.titling" unicode="&#xe007;" horiz-adv-x="610" 
d="M371 266h-167q-18 0 -22.5 -3t-9.5 -18l-53 -156q-11 -33 -11 -49t30 -21l37 -6q6 -9 -1 -16q-12 1 -99 3q-49 0 -94 -3q-8 6 -2 16l38 9q20 5 30 14.5t23 38.5q33 74 89 222l100 265q19 52 16 76q17 7 28 16.5t15 15.5t5 6q10 0 13 -9q2 -6 8 -24.5t17.5 -54t25.5 -77.5
l131 -380q23 -67 37.5 -87.5t44.5 -25.5l30 -5q8 -7 -1 -16q-47 3 -116 3q-13 0 -109 -3q-9 7 -2 16l29 6q33 6 33 24q0 14 -13 53l-48 149q-5 15 -10 18t-22 3zM219 297h139q20 0 22 3.5t-5 23.5l-56 167q-20 63 -27 76q0 -1 -7 -17t-16 -37.5t-17 -44.5l-52 -145
q-7 -19 -4.5 -22.5t23.5 -3.5zM396 717h-171q-7 8 -7 22t7 22h171q7 -8 7 -22t-7 -22z" />
    <glyph glyph-name="Aogonek.titling" unicode="&#xe008;" horiz-adv-x="610" 
d="M219 297h139q20 0 22 3.5t-5 23.5l-56 167q-20 63 -27 76q0 -1 -7 -17t-16 -37.5t-17 -44.5l-52 -145q-7 -19 -4.5 -22.5t23.5 -3.5zM371 266h-167q-18 0 -22.5 -3t-9.5 -18l-53 -156q-11 -33 -11 -49t30 -21l37 -6q6 -9 -1 -16q-12 1 -99 3q-49 0 -94 -3q-8 6 -2 16
l38 9q20 5 30 14.5t23 38.5q33 74 89 222l100 265q19 52 16 76q17 7 28 16.5t15 15.5t5 6q10 0 13 -9q2 -6 8 -24.5t17.5 -54t25.5 -77.5l131 -380q23 -67 37.5 -87.5t44.5 -25.5l30 -5q8 -7 -1 -16q-47 3 -116 3h-23q-15 -38 -15 -83q0 -34 19 -53t49 -18q17 0 38 7
q7 -2 7 -11q-32 -40 -86 -40q-32 0 -55.5 19.5t-23.5 57.5q0 51 48 120q-27 0 -67 -2q-9 7 -2 16l29 6q33 6 33 24q0 14 -13 53l-48 149q-5 15 -10 18t-22 3z" />
    <glyph glyph-name="Aring.titling" unicode="&#xe009;" horiz-adv-x="610" 
d="M371 266h-167q-18 0 -22.5 -3t-9.5 -18l-53 -156q-11 -33 -11 -49t30 -21l37 -6q6 -9 -1 -16q-12 1 -99 3q-49 0 -94 -3q-8 6 -2 16l38 9q20 5 30 14.5t23 38.5q33 74 89 222l100 265q19 52 16 76q17 7 28 16.5t15 15.5t5 6q10 0 13 -9q2 -6 8 -24.5t17.5 -54t25.5 -77.5
l131 -380q23 -67 37.5 -87.5t44.5 -25.5l30 -5q8 -7 -1 -16q-47 3 -116 3q-13 0 -109 -3q-9 7 -2 16l29 6q33 6 33 24q0 14 -13 53l-48 149q-5 15 -10 18t-22 3zM219 297h139q20 0 22 3.5t-5 23.5l-56 167q-20 63 -27 76q0 -1 -7 -17t-16 -37.5t-17 -44.5l-52 -145
q-7 -19 -4.5 -22.5t23.5 -3.5zM308 852q33 0 55 -22t22 -51q0 -30 -22 -51.5t-55 -21.5t-54.5 21.5t-21.5 51.5q0 29 21.5 51t54.5 22zM268 779q0 -21 11.5 -34.5t28.5 -13.5t29 13.5t12 34.5q0 20 -12 33.5t-29 13.5t-28.5 -13.5t-11.5 -33.5z" />
    <glyph glyph-name="Atilde.titling" unicode="&#xe00a;" horiz-adv-x="610" 
d="M371 266h-167q-18 0 -22.5 -3t-9.5 -18l-53 -156q-11 -33 -11 -49t30 -21l37 -6q6 -9 -1 -16q-12 1 -99 3q-49 0 -94 -3q-8 6 -2 16l38 9q20 5 30 14.5t23 38.5q33 74 89 222l100 265q19 52 16 76q17 7 28 16.5t15 15.5t5 6q10 0 13 -9q2 -6 8 -24.5t17.5 -54t25.5 -77.5
l131 -380q23 -67 37.5 -87.5t44.5 -25.5l30 -5q8 -7 -1 -16q-47 3 -116 3q-13 0 -109 -3q-9 7 -2 16l29 6q33 6 33 24q0 14 -13 53l-48 149q-5 15 -10 18t-22 3zM219 297h139q20 0 22 3.5t-5 23.5l-56 167q-20 63 -27 76q0 -1 -7 -17t-16 -37.5t-17 -44.5l-52 -145
q-7 -19 -4.5 -22.5t23.5 -3.5zM287 776h45q25 0 36.5 6t26.5 27q8 6 14 -3q-9 -38 -31 -60q-15 -14 -41 -14h-44q-27 0 -41 -9.5t-27 -33.5q-9 -5 -14 3q3 14 12.5 36t18.5 31q15 17 45 17z" />
    <glyph glyph-name="B.titling" unicode="&#xe00b;" horiz-adv-x="592" 
d="M134 158v319q0 120 -14 137q-12 15 -34 19l-35 6q-8 8 1 16q117 8 199 8q124 0 178 -27q78 -39 78 -126q0 -88 -100 -137q-8 -11 16 -16q53 -11 94 -52.5t41 -113.5q0 -93 -65.5 -144t-194.5 -51q-13 0 -53 2q-38 2 -58 2q-55 0 -135 -3q-8 7 -2 16l27 5q31 5 43 19
q14 18 14 121zM210 317v-159q0 -88 18 -112q19 -27 89 -27q69 0 112.5 37t43.5 114q0 74 -44.5 123t-154.5 49q-45 0 -54.5 -4t-9.5 -21zM210 596v-203q0 -20 6.5 -24t38.5 -4q89 0 129.5 30t40.5 102q0 73 -43.5 108t-110.5 35q-49 0 -54 -10q-7 -9 -7 -34z" />
    <glyph glyph-name="C.titling" unicode="&#xe00c;" horiz-adv-x="704" 
d="M432 653q-126 0 -209 -80t-83 -232q0 -157 85.5 -245.5t213.5 -88.5q47 0 85 13.5t64.5 38.5t42.5 47.5t31 52.5q3 3 9.5 2t8.5 -5q-5 -37 -20.5 -80t-27.5 -60q-5 -1 -35 -9q-72 -23 -161 -23q-148 0 -245 68q-141 98 -141 279q0 81 34.5 148t91.5 112q107 85 270 85
q91 0 176 -20q17 -4 25 -3q0 -31 16 -143q-2 -3 -8.5 -3.5t-9.5 1.5q-39 145 -213 145z" />
    <glyph glyph-name="Cacute.titling" unicode="&#xe00d;" horiz-adv-x="704" 
d="M432 653q-126 0 -209 -80t-83 -232q0 -157 85.5 -245.5t213.5 -88.5q47 0 85 13.5t64.5 38.5t42.5 47.5t31 52.5q3 3 9.5 2t8.5 -5q-5 -37 -20.5 -80t-27.5 -60q-5 -1 -35 -9q-72 -23 -161 -23q-148 0 -245 68q-141 98 -141 279q0 81 34.5 148t91.5 112q107 85 270 85
q91 0 176 -20q17 -4 25 -3q0 -31 16 -143q-2 -3 -8.5 -3.5t-9.5 1.5q-39 145 -213 145zM500 765l-131 -59q-11 4 -6 15l110 91q11 11 20 11q13 0 21 -17q10 -21 5 -27q-2 -6 -19 -14z" />
    <glyph glyph-name="Ccaron.titling" unicode="&#xe00e;" horiz-adv-x="704" 
d="M432 653q-126 0 -209 -80t-83 -232q0 -157 85.5 -245.5t213.5 -88.5q47 0 85 13.5t64.5 38.5t42.5 47.5t31 52.5q3 3 9.5 2t8.5 -5q-5 -37 -20.5 -80t-27.5 -60q-5 -1 -35 -9q-72 -23 -161 -23q-148 0 -245 68q-141 98 -141 279q0 81 34.5 148t91.5 112q107 85 270 85
q91 0 176 -20q17 -4 25 -3q0 -31 16 -143q-2 -3 -8.5 -3.5t-9.5 1.5q-39 145 -213 145zM405 716l-97 94q0 11 11 11l91 -52q13 -7 25 0l92 52q9 -2 9 -11l-97 -94q-18 -16 -34 0z" />
    <glyph glyph-name="Ccedilla.titling" unicode="&#xe00f;" horiz-adv-x="704" 
d="M362 -87l45 73q-127 3 -216 66q-141 98 -141 279q0 81 34.5 148t91.5 112q107 85 270 85q91 0 176 -20q17 -4 25 -3q0 -31 16 -143q-2 -3 -8.5 -3.5t-9.5 1.5q-39 145 -213 145q-126 0 -209 -80t-83 -232q0 -157 85.5 -245.5t213.5 -88.5q47 0 85 13.5t64.5 38.5
t42.5 47.5t31 52.5q3 3 9.5 2t8.5 -5q-5 -37 -20.5 -80t-27.5 -60q-5 -1 -35 -9q-72 -23 -161 -23h-2l-23 -38q-5 -8 6 -15q40 -27 40 -61q0 -26 -25 -45.5t-57 -19.5q-46 0 -46 28q0 7 5.5 13.5t14.5 6.5q8 0 22 -11.5t19 -11.5q22 0 22 25q0 15 -14 30t-36 23v5z" />
    <glyph glyph-name="D.titling" unicode="&#xe010;" horiz-adv-x="788" 
d="M134 159v329q0 104 -17 128q-11 14 -39 20l-13 3q-3 1 -3 7.5t4 8.5q133 8 244 8q135 0 227 -32q96 -34 148.5 -114.5t52.5 -176.5q0 -98 -44.5 -177t-131.5 -124q-90 -47 -232 -47q-31 0 -85 4t-68 4q-78 0 -126 -3q-4 1 -4.5 6.5t2.5 9.5l25 5q38 8 47 21q13 19 13 120
zM210 538v-359q0 -94 19 -122q31 -42 120 -42q150 0 224.5 85.5t74.5 235.5q0 38 -8 75.5t-30 80t-56.5 74.5t-94 53t-135.5 21q-86 0 -103 -15q-11 -11 -11 -87z" />
    <glyph glyph-name="Dcaron.titling" unicode="&#xe011;" horiz-adv-x="788" 
d="M134 159v329q0 104 -17 128q-11 14 -39 20l-13 3q-3 1 -3 7.5t4 8.5q133 8 244 8q135 0 227 -32q96 -34 148.5 -114.5t52.5 -176.5q0 -98 -44.5 -177t-131.5 -124q-90 -47 -232 -47q-31 0 -85 4t-68 4q-78 0 -126 -3q-4 1 -4.5 6.5t2.5 9.5l25 5q38 8 47 21q13 19 13 120
zM210 538v-359q0 -94 19 -122q31 -42 120 -42q150 0 224.5 85.5t74.5 235.5q0 38 -8 75.5t-30 80t-56.5 74.5t-94 53t-135.5 21q-86 0 -103 -15q-11 -11 -11 -87zM370 716l-97 94q0 11 11 11l91 -52q13 -7 25 0l92 52q9 -2 9 -11l-97 -94q-18 -16 -34 0z" />
    <glyph glyph-name="Dcroat.titling" unicode="&#xe012;" horiz-adv-x="794" 
d="M134 159v171h-87q-5 6 -5 15t5 14h87v129q0 104 -17 128q-11 14 -39 20l-13 3q-3 1 -3 7.5t4 8.5q133 8 244 8q135 0 227 -32q96 -34 148.5 -114.5t52.5 -176.5q0 -98 -44.5 -177t-131.5 -124q-90 -47 -232 -47q-31 0 -85 4t-68 4q-78 0 -126 -3q-4 1 -4.5 6.5t2.5 9.5
l25 5q38 8 47 21q13 19 13 120zM210 538v-179h149q8 -12 0 -29h-149v-151q0 -94 19 -122q31 -42 120 -42q150 0 224.5 85.5t74.5 235.5q0 38 -8 75.5t-30 80t-56.5 74.5t-94 53t-135.5 21q-86 0 -103 -15q-11 -11 -11 -87z" />
    <glyph glyph-name="E.titling" unicode="&#xe013;" horiz-adv-x="577" 
d="M134 158v344q0 97 -14 118q-12 16 -46 23l-19 4q-7 9 2 16q11 0 31.5 -0.5t30.5 -1.5q9 0 28.5 -0.5t29.5 -0.5h184q120 0 135 3q2 -7 4.5 -30t5.5 -52.5t5 -44.5q-5 -7 -18 -3q-10 40 -27 64t-55 32q-34 8 -98 8h-55q-40 0 -43 -13q-5 -20 -5 -73v-159q0 -24 4.5 -29
t25.5 -5h56q70 0 92 7q19 6 28 38l10 38q3 2 9.5 2t8.5 -3q0 -8 -1.5 -42t-1.5 -55t1.5 -55t1.5 -42q-2 -3 -8.5 -3t-9.5 2l-11 40q-9 29 -27 36q-28 10 -92 10h-56q-21 0 -25.5 -5t-4.5 -29v-141q0 -91 17 -110q20 -22 118 -23q96 -1 137 19.5t72 94.5q4 2 10.5 0.5
t7.5 -5.5q-4 -28 -17 -72t-25 -63q-22 0 -66 0.5t-66 1.5q-21 0 -63 0.5t-63 0.5h-95q-72 0 -141 -3q-10 6 -2 16l40 6q33 4 45 19q15 19 15 120z" />
    <glyph glyph-name="Eacute.titling" unicode="&#xe014;" horiz-adv-x="577" 
d="M134 158v344q0 97 -14 118q-12 16 -46 23l-19 4q-7 9 2 16q11 0 31.5 -0.5t30.5 -1.5q9 0 28.5 -0.5t29.5 -0.5h184q120 0 135 3q2 -7 4.5 -30t5.5 -52.5t5 -44.5q-5 -7 -18 -3q-10 40 -27 64t-55 32q-34 8 -98 8h-55q-40 0 -43 -13q-5 -20 -5 -73v-159q0 -24 4.5 -29
t25.5 -5h56q70 0 92 7q19 6 28 38l10 38q3 2 9.5 2t8.5 -3q0 -8 -1.5 -42t-1.5 -55t1.5 -55t1.5 -42q-2 -3 -8.5 -3t-9.5 2l-11 40q-9 29 -27 36q-28 10 -92 10h-56q-21 0 -25.5 -5t-4.5 -29v-141q0 -91 17 -110q20 -22 118 -23q96 -1 137 19.5t72 94.5q4 2 10.5 0.5
t7.5 -5.5q-4 -28 -17 -72t-25 -63q-22 0 -66 0.5t-66 1.5q-21 0 -63 0.5t-63 0.5h-95q-72 0 -141 -3q-10 6 -2 16l40 6q33 4 45 19q15 19 15 120zM387 765l-131 -59q-11 4 -6 15l110 91q11 11 20 11q12 0 21 -17q10 -21 5 -27q-2 -6 -19 -14z" />
    <glyph glyph-name="Ecaron.titling" unicode="&#xe015;" horiz-adv-x="577" 
d="M134 158v344q0 97 -14 118q-12 16 -46 23l-19 4q-7 9 2 16q11 0 31.5 -0.5t30.5 -1.5q9 0 28.5 -0.5t29.5 -0.5h184q120 0 135 3q2 -7 4.5 -30t5.5 -52.5t5 -44.5q-5 -7 -18 -3q-10 40 -27 64t-55 32q-34 8 -98 8h-55q-40 0 -43 -13q-5 -20 -5 -73v-159q0 -24 4.5 -29
t25.5 -5h56q70 0 92 7q19 6 28 38l10 38q3 2 9.5 2t8.5 -3q0 -8 -1.5 -42t-1.5 -55t1.5 -55t1.5 -42q-2 -3 -8.5 -3t-9.5 2l-11 40q-9 29 -27 36q-28 10 -92 10h-56q-21 0 -25.5 -5t-4.5 -29v-141q0 -91 17 -110q20 -22 118 -23q96 -1 137 19.5t72 94.5q4 2 10.5 0.5
t7.5 -5.5q-4 -28 -17 -72t-25 -63q-22 0 -66 0.5t-66 1.5q-21 0 -63 0.5t-63 0.5h-95q-72 0 -141 -3q-10 6 -2 16l40 6q33 4 45 19q15 19 15 120zM286 716l-97 94q0 11 11 11l91 -52q13 -7 25 0l92 52q9 -2 9 -11l-97 -94q-18 -16 -34 0z" />
    <glyph glyph-name="Ecircumflex.titling" unicode="&#xe016;" horiz-adv-x="577" 
d="M134 158v344q0 97 -14 118q-12 16 -46 23l-19 4q-7 9 2 16q11 0 31.5 -0.5t30.5 -1.5q9 0 28.5 -0.5t29.5 -0.5h184q120 0 135 3q2 -7 4.5 -30t5.5 -52.5t5 -44.5q-5 -7 -18 -3q-10 40 -27 64t-55 32q-34 8 -98 8h-55q-40 0 -43 -13q-5 -20 -5 -73v-159q0 -24 4.5 -29
t25.5 -5h56q70 0 92 7q19 6 28 38l10 38q3 2 9.5 2t8.5 -3q0 -8 -1.5 -42t-1.5 -55t1.5 -55t1.5 -42q-2 -3 -8.5 -3t-9.5 2l-11 40q-9 29 -27 36q-28 10 -92 10h-56q-21 0 -25.5 -5t-4.5 -29v-141q0 -91 17 -110q20 -22 118 -23q96 -1 137 19.5t72 94.5q4 2 10.5 0.5
t7.5 -5.5q-4 -28 -17 -72t-25 -63q-22 0 -66 0.5t-66 1.5q-21 0 -63 0.5t-63 0.5h-95q-72 0 -141 -3q-10 6 -2 16l40 6q33 4 45 19q15 19 15 120zM175 719l98 92q17 17 33 0l97 -92q0 -10 -10 -12l-92 52q-12 8 -25 0l-90 -52q-11 0 -11 12z" />
    </font>
</defs>
</svg>
